<?xml version="1.0" encoding="UTF-8"?>
<svg xmlns="http://www.w3.org/2000/svg" xmlns:xlink="http://www.w3.org/1999/xlink" width="1144pt" height="1144pt" viewBox="0 0 1144 1144" version="1.1">
<defs>
<filter id="alpha" filterUnits="objectBoundingBox" x="0%" y="0%" width="100%" height="100%">
  <feColorMatrix type="matrix" in="SourceGraphic" values="0 0 0 0 1 0 0 0 0 1 0 0 0 0 1 0 0 0 1 0"/>
</filter>
<mask id="mask0">
  <g filter="url(#alpha)">
<rect x="0" y="0" width="1144" height="1144" style="fill:rgb(0%,0%,0%);fill-opacity:0.8;stroke:none;"/>
  </g>
</mask>
<clipPath id="clip1">
  <rect x="0" y="0" width="1144" height="1144"/>
</clipPath>
<g id="surface5" clip-path="url(#clip1)">
<path style=" stroke:none;fill-rule:nonzero;fill:rgb(100%,100%,100%);fill-opacity:1;" d="M 201.34375 131.378906 C 274.742188 81.660156 377.152344 77.3125 475.902344 98.519531 C 532.484375 110.695312 587.878906 129.386719 644.828125 139.429688 C 676.242188 144.992188 708.546875 147.757812 739.597656 144.945312 C 769.132812 142.246094 804.53125 139.203125 834.203125 150.023438 C 882.09375 167.503906 907.238281 199.492188 920.691406 239.804688 C 934.648438 282.402344 936.808594 327.984375 926.9375 371.707031 C 926.113281 375.390625 925.199219 379.03125 924.191406 382.667969 C 915.933594 412.710938 900.96875 440.484375 877.035156 459.703125 C 832.167969 495.742188 744.035156 512.992188 679.949219 476.453125 C 634.1875 452.0625 600.140625 416.964844 562.460938 447.328125 L 513.886719 429.023438 C 521.960938 413.945312 505.761719 384.179688 473.753906 380.3125 C 441.195312 376.398438 415.683594 383.171875 391.386719 384.222656 C 361.777344 385.527344 331.394531 385.4375 300.710938 379.648438 C 232.4375 366.71875 155.628906 307.941406 144.761719 240.078125 C 136.59375 190.339844 165.011719 155.925781 201.34375 131.378906 Z M 201.34375 131.378906 "/>
</g>
<mask id="mask1">
  <g filter="url(#alpha)">
<rect x="0" y="0" width="1144" height="1144" style="fill:rgb(0%,0%,0%);fill-opacity:0.701961;stroke:none;"/>
  </g>
</mask>
<clipPath id="clip2">
  <rect x="0" y="0" width="1144" height="1144"/>
</clipPath>
<g id="surface8" clip-path="url(#clip2)">
<path style=" stroke:none;fill-rule:nonzero;fill:rgb(100%,100%,100%);fill-opacity:1;" d="M 918.746094 191.644531 C 850.519531 119.683594 747.625 93.648438 645.46875 97.605469 C 586.894531 99.894531 528.78125 109.847656 470.09375 109.640625 C 437.71875 109.527344 404.792969 106.046875 373.769531 96.4375 C 344.273438 87.289062 308.878906 76.511719 277.671875 82.710938 C 227.335938 92.847656 198.117188 124.238281 179.792969 167.574219 C 159.976562 214.386719 153.296875 266.847656 157.871094 317.230469 C 158.253906 321.59375 158.734375 325.949219 159.3125 330.296875 C 164.117188 366.355469 175.945312 401.222656 197.84375 428.109375 C 238.890625 478.445312 325.835938 516.402344 394.863281 487.800781 C 436.390625 472.175781 449.523438 442.933594 473.433594 459.957031 C 486.117188 468.949219 501.574219 473.164062 517.066406 471.855469 L 522.511719 471.398438 C 543.125 469.789062 561.773438 458.566406 572.847656 441.105469 C 581.734375 426.957031 597.738281 418.910156 614.398438 420.214844 C 647.734375 422.503906 672.671875 435.40625 697.152344 441.628906 C 726.898438 449.203125 757.601562 455.359375 789.269531 455.039062 C 859.738281 454.28125 944.210938 402.871094 963.15625 327.574219 C 977.089844 272.273438 952.472656 227.175781 918.746094 191.644531 Z M 918.746094 191.644531 "/>
</g>
<mask id="mask2">
  <g filter="url(#alpha)">
<rect x="0" y="0" width="1144" height="1144" style="fill:rgb(0%,0%,0%);fill-opacity:0.2;stroke:none;"/>
  </g>
</mask>
<clipPath id="clip3">
  <rect x="0" y="0" width="1144" height="1144"/>
</clipPath>
<g id="surface11" clip-path="url(#clip3)">
<path style=" stroke:none;fill-rule:nonzero;fill:rgb(100%,100%,100%);fill-opacity:1;" d="M 303.847656 247.285156 C 318.882812 230.097656 336.855469 215.71875 356.929688 204.820312 C 402.6875 179.652344 456.066406 169.769531 507.9375 172.308594 C 562.183594 174.941406 617.761719 175.03125 670.382812 159.039062 C 694.523438 151.671875 718.753906 140.734375 744.492188 145.722656 C 783.707031 153.339844 808.304688 186.90625 822.101562 222.074219 C 840.863281 269.871094 838.484375 329.058594 806.085938 370.289062 C 777.027344 407.21875 728.773438 427.351562 682.695312 413.257812 C 668.53125 409.390625 648.648438 391.820312 634.121094 396.234375 C 627.964844 398.113281 622.679688 402.070312 616.84375 404.863281 C 601.941406 411.78125 584.5625 410.777344 570.558594 402.183594 C 558.730469 394.75 550.515625 383.171875 535.847656 380.722656 C 522.121094 378.433594 508.394531 384.726562 495.582031 390.171875 C 465.835938 402.734375 434.214844 411.65625 402.023438 411.382812 C 362.875 411.0625 324.894531 395.6875 299.203125 365.621094 C 287.710938 352.6875 280.390625 336.589844 278.199219 319.425781 C 275.179688 292.40625 286.503906 267.695312 303.847656 247.285156 Z M 303.847656 247.285156 "/>
</g>
<mask id="mask3">
  <g filter="url(#alpha)">
<rect x="0" y="0" width="1144" height="1144" style="fill:rgb(0%,0%,0%);fill-opacity:0.501961;stroke:none;"/>
  </g>
</mask>
<clipPath id="clip4">
  <rect x="0" y="0" width="1144" height="1144"/>
</clipPath>
<g id="surface14" clip-path="url(#clip4)">
<path style=" stroke:none;fill-rule:nonzero;fill:rgb(100%,100%,100%);fill-opacity:1;" d="M 378.960938 233.078125 C 378.992188 252.644531 372.316406 271.632812 360.039062 286.871094 C 353.148438 295.382812 347.582031 304.886719 343.519531 315.058594 C 340.207031 323.554688 332.046875 329.167969 322.929688 329.21875 L 262.824219 329.21875 C 253.710938 329.1875 245.546875 323.589844 242.230469 315.101562 C 238.066406 304.695312 232.425781 294.9375 225.480469 286.136719 C 202.265625 256.550781 200.988281 215.300781 222.332031 184.335938 C 243.679688 153.371094 282.683594 139.886719 318.59375 151.0625 C 354.507812 162.238281 378.976562 195.46875 378.984375 233.078125 Z M 378.960938 233.078125 "/>
</g>
<mask id="mask4">
  <g filter="url(#alpha)">
<rect x="0" y="0" width="1144" height="1144" style="fill:rgb(0%,0%,0%);fill-opacity:0.6;stroke:none;"/>
  </g>
</mask>
<clipPath id="clip5">
  <rect x="0" y="0" width="1144" height="1144"/>
</clipPath>
<g id="surface17" clip-path="url(#clip5)">
<path style=" stroke:none;fill-rule:nonzero;fill:rgb(100%,100%,100%);fill-opacity:1;" d="M 901.242188 415.15625 C 809.953125 375.230469 683.539062 336.703125 659.972656 336.703125 C 636.40625 336.703125 485.492188 382.097656 371.890625 443.367188 C 384.179688 453.757812 402.664062 463.25 425.707031 471.625 C 445.269531 458.765625 456.707031 448.058594 473.433594 459.957031 C 486.117188 468.949219 501.574219 473.164062 517.066406 471.855469 L 522.511719 471.398438 C 543.125 469.789062 561.773438 458.566406 572.847656 441.105469 C 581.734375 426.957031 597.738281 418.910156 614.398438 420.214844 C 647.734375 422.503906 672.671875 435.40625 697.175781 441.628906 C 726.921875 449.203125 757.601562 455.359375 789.269531 455.039062 C 826.585938 454.625 867.859375 440.003906 901.242188 415.15625 Z M 901.242188 415.15625 "/>
</g>
<mask id="mask5">
  <g filter="url(#alpha)">
<rect x="0" y="0" width="1144" height="1144" style="fill:rgb(0%,0%,0%);fill-opacity:0.101961;stroke:none;"/>
  </g>
</mask>
<clipPath id="clip6">
  <rect x="0" y="0" width="1144" height="1144"/>
</clipPath>
<g id="surface20" clip-path="url(#clip6)">
<path style=" stroke:none;fill-rule:nonzero;fill:rgb(14.901961%,19.607843%,21.960784%);fill-opacity:1;" d="M 659.972656 336.703125 C 636.339844 336.703125 485.492188 382.003906 371.890625 443.367188 C 371.890625 443.367188 396.578125 454.144531 431.90625 467.484375 C 447.921875 456.683594 458.5625 449.363281 473.433594 459.957031 C 486.117188 468.949219 501.574219 473.164062 517.066406 471.855469 L 522.511719 471.398438 C 543.125 469.789062 561.773438 458.566406 572.847656 441.105469 C 581.734375 426.957031 597.738281 418.910156 614.398438 420.214844 C 633.960938 421.496094 650.636719 426.507812 666.035156 431.652344 C 660.84375 417.925781 657.914062 406.484375 664.527344 400.445312 C 686.398438 380.609375 638.625 347.160156 659.972656 336.703125 Z M 659.972656 336.703125 "/>
</g>
<mask id="mask6">
  <g filter="url(#alpha)">
<rect x="0" y="0" width="1144" height="1144" style="fill:rgb(0%,0%,0%);fill-opacity:0.4;stroke:none;"/>
  </g>
</mask>
<clipPath id="clip7">
  <rect x="0" y="0" width="1144" height="1144"/>
</clipPath>
<g id="surface23" clip-path="url(#clip7)">
<path style=" stroke:none;fill-rule:nonzero;fill:rgb(100%,100%,100%);fill-opacity:1;" d="M 473.433594 459.886719 C 486.117188 468.878906 501.574219 473.09375 517.066406 471.785156 L 522.511719 471.328125 C 543.125 469.722656 561.773438 458.496094 572.847656 441.035156 C 578.972656 431.296875 588.605469 424.289062 599.753906 421.449219 C 522.96875 374.179688 400.398438 324.894531 379.054688 324.894531 C 362.441406 324.894531 270.875 359.695312 185.558594 410.445312 C 189.210938 416.625 193.316406 422.53125 197.84375 428.109375 C 238.890625 478.445312 325.835938 516.402344 394.863281 487.800781 C 436.390625 472.175781 449.523438 442.933594 473.433594 459.886719 Z M 473.433594 459.886719 "/>
</g>
<mask id="mask7">
  <g filter="url(#alpha)">
<rect x="0" y="0" width="1144" height="1144" style="fill:rgb(0%,0%,0%);fill-opacity:0.301961;stroke:none;"/>
  </g>
</mask>
<clipPath id="clip8">
  <rect x="0" y="0" width="1144" height="1144"/>
</clipPath>
<g id="surface26" clip-path="url(#clip8)">
<path style=" stroke:none;fill-rule:nonzero;fill:rgb(14.901961%,19.607843%,21.960784%);fill-opacity:1;" d="M 382.851562 394.679688 C 401.15625 372.945312 361.113281 336.335938 379.054688 324.894531 C 362.441406 324.894531 270.875 359.695312 185.558594 410.445312 C 189.210938 416.625 193.316406 422.53125 197.84375 428.109375 C 238.890625 478.445312 325.835938 516.402344 394.863281 487.800781 L 397.496094 486.773438 C 397.769531 454.03125 370.65625 409.300781 382.851562 394.679688 Z M 382.851562 394.679688 "/>
</g>
<mask id="mask8">
  <g filter="url(#alpha)">
<rect x="0" y="0" width="1144" height="1144" style="fill:rgb(0%,0%,0%);fill-opacity:0.4;stroke:none;"/>
  </g>
</mask>
<clipPath id="clip9">
  <rect x="0" y="0" width="1144" height="1144"/>
</clipPath>
<g id="surface29" clip-path="url(#clip9)">
<path style=" stroke:none;fill-rule:nonzero;fill:rgb(14.901961%,19.607843%,21.960784%);fill-opacity:1;" d="M 926.984375 190.542969 C 920.777344 193.660156 913.304688 192.722656 908.0625 188.171875 C 902.816406 183.621094 900.835938 176.355469 903.050781 169.769531 C 905.261719 163.1875 911.226562 158.59375 918.15625 158.128906 C 925.082031 157.667969 931.605469 161.433594 934.671875 167.664062 C 938.824219 176.109375 935.394531 186.320312 926.984375 190.542969 Z M 926.984375 190.542969 "/>
</g>
<mask id="mask9">
  <g filter="url(#alpha)">
<rect x="0" y="0" width="1144" height="1144" style="fill:rgb(0%,0%,0%);fill-opacity:0.6;stroke:none;"/>
  </g>
</mask>
<clipPath id="clip10">
  <rect x="0" y="0" width="1144" height="1144"/>
</clipPath>
<g id="surface32" clip-path="url(#clip10)">
<path style=" stroke:none;fill-rule:nonzero;fill:rgb(100%,100%,100%);fill-opacity:1;" d="M 310.414062 125.589844 C 310.414062 126.714844 309.5 127.625 308.375 127.625 C 307.253906 127.625 306.339844 126.714844 306.339844 125.589844 C 306.339844 124.464844 307.253906 123.550781 308.375 123.550781 C 309.5 123.550781 310.414062 124.464844 310.414062 125.589844 Z M 310.414062 125.589844 "/>
</g>
<mask id="mask10">
  <g filter="url(#alpha)">
<rect x="0" y="0" width="1144" height="1144" style="fill:rgb(0%,0%,0%);fill-opacity:0.6;stroke:none;"/>
  </g>
</mask>
<clipPath id="clip11">
  <rect x="0" y="0" width="1144" height="1144"/>
</clipPath>
<g id="surface35" clip-path="url(#clip11)">
<path style=" stroke:none;fill-rule:nonzero;fill:rgb(100%,100%,100%);fill-opacity:1;" d="M 411.679688 251.246094 C 411.679688 252.371094 410.769531 253.28125 409.644531 253.28125 C 408.519531 253.28125 407.605469 252.371094 407.605469 251.246094 C 407.605469 250.121094 408.519531 249.207031 409.644531 249.207031 C 410.769531 249.207031 411.679688 250.121094 411.679688 251.246094 Z M 411.679688 251.246094 "/>
</g>
<mask id="mask11">
  <g filter="url(#alpha)">
<rect x="0" y="0" width="1144" height="1144" style="fill:rgb(0%,0%,0%);fill-opacity:0.6;stroke:none;"/>
  </g>
</mask>
<clipPath id="clip12">
  <rect x="0" y="0" width="1144" height="1144"/>
</clipPath>
<g id="surface38" clip-path="url(#clip12)">
<path style=" stroke:none;fill-rule:nonzero;fill:rgb(100%,100%,100%);fill-opacity:1;" d="M 197.523438 184.320312 C 197.523438 185.445312 196.613281 186.359375 195.488281 186.359375 C 194.363281 186.359375 193.449219 185.445312 193.449219 184.320312 C 193.449219 183.195312 194.363281 182.285156 195.488281 182.285156 C 196.027344 182.277344 196.550781 182.492188 196.933594 182.875 C 197.316406 183.257812 197.527344 183.78125 197.523438 184.320312 Z M 197.523438 184.320312 "/>
</g>
<mask id="mask12">
  <g filter="url(#alpha)">
<rect x="0" y="0" width="1144" height="1144" style="fill:rgb(0%,0%,0%);fill-opacity:0.6;stroke:none;"/>
  </g>
</mask>
<clipPath id="clip13">
  <rect x="0" y="0" width="1144" height="1144"/>
</clipPath>
<g id="surface41" clip-path="url(#clip13)">
<path style=" stroke:none;fill-rule:nonzero;fill:rgb(100%,100%,100%);fill-opacity:1;" d="M 559.714844 163.019531 C 559.714844 164.144531 558.800781 165.054688 557.675781 165.054688 C 556.550781 165.054688 555.640625 164.144531 555.640625 163.019531 C 555.640625 161.894531 556.550781 160.984375 557.675781 160.984375 C 558.800781 160.984375 559.714844 161.894531 559.714844 163.019531 Z M 559.714844 163.019531 "/>
</g>
<mask id="mask13">
  <g filter="url(#alpha)">
<rect x="0" y="0" width="1144" height="1144" style="fill:rgb(0%,0%,0%);fill-opacity:0.6;stroke:none;"/>
  </g>
</mask>
<clipPath id="clip14">
  <rect x="0" y="0" width="1144" height="1144"/>
</clipPath>
<g id="surface44" clip-path="url(#clip14)">
<path style=" stroke:none;fill-rule:nonzero;fill:rgb(100%,100%,100%);fill-opacity:1;" d="M 710.5625 120.875 C 710.5625 122 709.648438 122.910156 708.523438 122.910156 C 707.398438 122.910156 706.488281 122 706.488281 120.875 C 706.488281 119.75 707.398438 118.839844 708.523438 118.839844 C 709.648438 118.839844 710.5625 119.75 710.5625 120.875 Z M 710.5625 120.875 "/>
</g>
<mask id="mask14">
  <g filter="url(#alpha)">
<rect x="0" y="0" width="1144" height="1144" style="fill:rgb(0%,0%,0%);fill-opacity:0.6;stroke:none;"/>
  </g>
</mask>
<clipPath id="clip15">
  <rect x="0" y="0" width="1144" height="1144"/>
</clipPath>
<g id="surface47" clip-path="url(#clip15)">
<path style=" stroke:none;fill-rule:nonzero;fill:rgb(100%,100%,100%);fill-opacity:1;" d="M 855.140625 335.582031 C 855.140625 336.707031 854.226562 337.617188 853.105469 337.617188 C 851.980469 337.617188 851.066406 336.707031 851.066406 335.582031 C 851.066406 334.457031 851.980469 333.542969 853.105469 333.542969 C 854.226562 333.542969 855.140625 334.457031 855.140625 335.582031 Z M 855.140625 335.582031 "/>
</g>
<mask id="mask15">
  <g filter="url(#alpha)">
<rect x="0" y="0" width="1144" height="1144" style="fill:rgb(0%,0%,0%);fill-opacity:0.701961;stroke:none;"/>
  </g>
</mask>
<clipPath id="clip16">
  <rect x="0" y="0" width="1144" height="1144"/>
</clipPath>
<g id="surface50" clip-path="url(#clip16)">
<path style=" stroke:none;fill-rule:nonzero;fill:rgb(100%,100%,100%);fill-opacity:1;" d="M 399.917969 159.015625 C 393.902344 161.050781 392.253906 162.699219 390.21875 168.71875 C 388.183594 162.699219 386.535156 161.050781 380.515625 159.015625 C 386.535156 156.980469 388.183594 155.332031 390.21875 149.316406 C 392.253906 155.332031 393.902344 156.980469 399.917969 159.015625 Z M 399.917969 159.015625 "/>
</g>
<mask id="mask16">
  <g filter="url(#alpha)">
<rect x="0" y="0" width="1144" height="1144" style="fill:rgb(0%,0%,0%);fill-opacity:0.701961;stroke:none;"/>
  </g>
</mask>
<clipPath id="clip17">
  <rect x="0" y="0" width="1144" height="1144"/>
</clipPath>
<g id="surface53" clip-path="url(#clip17)">
<path style=" stroke:none;fill-rule:nonzero;fill:rgb(100%,100%,100%);fill-opacity:1;" d="M 519.855469 214.890625 C 519.855469 218.3125 517.082031 221.089844 513.65625 221.089844 C 510.230469 221.089844 507.457031 218.3125 507.457031 214.890625 C 507.457031 211.464844 510.230469 208.6875 513.65625 208.6875 C 517.082031 208.6875 519.855469 211.464844 519.855469 214.890625 Z M 519.855469 214.890625 "/>
</g>
<mask id="mask17">
  <g filter="url(#alpha)">
<rect x="0" y="0" width="1144" height="1144" style="fill:rgb(0%,0%,0%);fill-opacity:0.701961;stroke:none;"/>
  </g>
</mask>
<clipPath id="clip18">
  <rect x="0" y="0" width="1144" height="1144"/>
</clipPath>
<g id="surface56" clip-path="url(#clip18)">
<path style=" stroke:none;fill-rule:nonzero;fill:rgb(100%,100%,100%);fill-opacity:1;" d="M 197.523438 291.605469 C 197.523438 295.03125 194.746094 297.804688 191.324219 297.804688 C 187.898438 297.804688 185.121094 295.03125 185.121094 291.605469 C 185.121094 288.179688 187.898438 285.40625 191.324219 285.40625 C 194.746094 285.40625 197.523438 288.179688 197.523438 291.605469 Z M 197.523438 291.605469 "/>
</g>
<mask id="mask18">
  <g filter="url(#alpha)">
<rect x="0" y="0" width="1144" height="1144" style="fill:rgb(0%,0%,0%);fill-opacity:0.701961;stroke:none;"/>
  </g>
</mask>
<clipPath id="clip19">
  <rect x="0" y="0" width="1144" height="1144"/>
</clipPath>
<g id="surface59" clip-path="url(#clip19)">
<path style=" stroke:none;fill-rule:nonzero;fill:rgb(100%,100%,100%);fill-opacity:1;" d="M 653.980469 120.875 C 650.753906 121.5 648.234375 124.03125 647.617188 127.257812 C 647.011719 124.027344 644.488281 121.496094 641.257812 120.875 C 644.492188 120.277344 647.019531 117.746094 647.617188 114.515625 C 648.230469 117.742188 650.753906 120.265625 653.980469 120.875 Z M 653.980469 120.875 "/>
</g>
<mask id="mask19">
  <g filter="url(#alpha)">
<rect x="0" y="0" width="1144" height="1144" style="fill:rgb(0%,0%,0%);fill-opacity:0.701961;stroke:none;"/>
  </g>
</mask>
<clipPath id="clip20">
  <rect x="0" y="0" width="1144" height="1144"/>
</clipPath>
<g id="surface62" clip-path="url(#clip20)">
<path style=" stroke:none;fill-rule:nonzero;fill:rgb(100%,100%,100%);fill-opacity:1;" d="M 932.085938 286.527344 C 932.085938 290.039062 929.238281 292.886719 925.726562 292.886719 C 922.210938 292.886719 919.363281 290.039062 919.363281 286.527344 C 919.363281 283.011719 922.210938 280.164062 925.726562 280.164062 C 929.238281 280.164062 932.085938 283.011719 932.085938 286.527344 Z M 932.085938 286.527344 "/>
</g>
<mask id="mask20">
  <g filter="url(#alpha)">
<rect x="0" y="0" width="1144" height="1144" style="fill:rgb(0%,0%,0%);fill-opacity:0.2;stroke:none;"/>
  </g>
</mask>
<clipPath id="clip21">
  <rect x="0" y="0" width="1144" height="1144"/>
</clipPath>
<g id="surface65" clip-path="url(#clip21)">
<path style=" stroke:none;fill-rule:nonzero;fill:rgb(0%,0%,0%);fill-opacity:1;" d="M 758.539062 427.167969 C 788.464844 437.140625 817.277344 450.175781 844.523438 466.066406 C 844.429688 469.265625 844.015625 472.445312 843.289062 475.5625 C 835.371094 468.515625 819.308594 458.902344 799.929688 450.140625 C 780.550781 441.378906 762.773438 435.65625 752.226562 434.375 C 754.101562 431.78125 756.214844 429.371094 758.539062 427.167969 Z M 758.539062 427.167969 "/>
</g>
<mask id="mask21">
  <g filter="url(#alpha)">
<rect x="0" y="0" width="1144" height="1144" style="fill:rgb(0%,0%,0%);fill-opacity:0.4;stroke:none;"/>
  </g>
</mask>
<clipPath id="clip22">
  <rect x="0" y="0" width="1144" height="1144"/>
</clipPath>
<g id="surface68" clip-path="url(#clip22)">
<path style=" stroke:none;fill-rule:nonzero;fill:rgb(100%,100%,100%);fill-opacity:1;" d="M 815.671875 420.195312 C 837.628906 431.347656 846.386719 458.191406 835.234375 480.148438 C 824.078125 502.105469 797.238281 510.863281 775.28125 499.710938 C 753.320312 488.554688 744.5625 461.714844 755.71875 439.757812 C 766.871094 417.796875 793.714844 409.039062 815.671875 420.195312 Z M 815.671875 420.195312 "/>
</g>
<mask id="mask22">
  <g filter="url(#alpha)">
<rect x="0" y="0" width="1144" height="1144" style="fill:rgb(0%,0%,0%);fill-opacity:0.101961;stroke:none;"/>
  </g>
</mask>
<clipPath id="clip23">
  <rect x="0" y="0" width="1144" height="1144"/>
</clipPath>
<g id="surface71" clip-path="url(#clip23)">
<path style=" stroke:none;fill-rule:nonzero;fill:rgb(100%,100%,100%);fill-opacity:1;" d="M 770.621094 432.613281 C 766.582031 441.5625 770.558594 452.085938 779.5 456.128906 C 788.445312 460.171875 798.972656 456.203125 803.019531 447.261719 C 807.066406 438.320312 803.105469 427.789062 794.164062 423.738281 C 789.867188 421.789062 784.96875 421.628906 780.550781 423.292969 C 776.136719 424.960938 772.5625 428.3125 770.621094 432.613281 Z M 770.621094 432.613281 "/>
</g>
<mask id="mask23">
  <g filter="url(#alpha)">
<rect x="0" y="0" width="1144" height="1144" style="fill:rgb(0%,0%,0%);fill-opacity:0.101961;stroke:none;"/>
  </g>
</mask>
<clipPath id="clip24">
  <rect x="0" y="0" width="1144" height="1144"/>
</clipPath>
<g id="surface74" clip-path="url(#clip24)">
<path style=" stroke:none;fill-rule:nonzero;fill:rgb(100%,100%,100%);fill-opacity:1;" d="M 814.527344 436 C 813.195312 438.921875 814.488281 442.371094 817.410156 443.703125 C 820.332031 445.03125 823.78125 443.738281 825.109375 440.816406 C 826.433594 437.890625 825.140625 434.445312 822.214844 433.117188 C 819.296875 431.796875 815.855469 433.085938 814.527344 436 Z M 814.527344 436 "/>
</g>
<mask id="mask24">
  <g filter="url(#alpha)">
<rect x="0" y="0" width="1144" height="1144" style="fill:rgb(0%,0%,0%);fill-opacity:0.101961;stroke:none;"/>
  </g>
</mask>
<clipPath id="clip25">
  <rect x="0" y="0" width="1144" height="1144"/>
</clipPath>
<g id="surface77" clip-path="url(#clip25)">
<path style=" stroke:none;fill-rule:nonzero;fill:rgb(100%,100%,100%);fill-opacity:1;" d="M 787.347656 492.035156 C 786.027344 494.960938 787.328125 498.402344 790.253906 499.722656 C 793.175781 501.042969 796.621094 499.742188 797.941406 496.816406 C 799.261719 493.890625 797.960938 490.449219 795.035156 489.128906 C 792.109375 487.808594 788.667969 489.109375 787.347656 492.035156 Z M 787.347656 492.035156 "/>
</g>
<mask id="mask25">
  <g filter="url(#alpha)">
<rect x="0" y="0" width="1144" height="1144" style="fill:rgb(0%,0%,0%);fill-opacity:0.501961;stroke:none;"/>
  </g>
</mask>
<clipPath id="clip26">
  <rect x="0" y="0" width="1144" height="1144"/>
</clipPath>
<g id="surface80" clip-path="url(#clip26)">
<path style=" stroke:none;fill-rule:nonzero;fill:rgb(14.901961%,19.607843%,21.960784%);fill-opacity:1;" d="M 789.359375 473.777344 C 802.445312 479.878906 816.070312 484.746094 830.0625 488.304688 C 828.238281 490.546875 826.179688 492.59375 823.933594 494.414062 C 812.492188 490.457031 799.839844 485.421875 786.773438 479.496094 C 773.710938 473.570312 761.605469 467.460938 751.035156 461.464844 C 750.925781 458.566406 751.101562 455.660156 751.5625 452.796875 C 763.472656 460.964844 776.128906 467.992188 789.359375 473.777344 Z M 789.359375 473.777344 "/>
</g>
<mask id="mask26">
  <g filter="url(#alpha)">
<rect x="0" y="0" width="1144" height="1144" style="fill:rgb(0%,0%,0%);fill-opacity:0.301961;stroke:none;"/>
  </g>
</mask>
<clipPath id="clip27">
  <rect x="0" y="0" width="1144" height="1144"/>
</clipPath>
<g id="surface83" clip-path="url(#clip27)">
<path style=" stroke:none;fill-rule:nonzero;fill:rgb(14.901961%,19.607843%,21.960784%);fill-opacity:1;" d="M 638.605469 815.511719 L 654.941406 819.308594 L 654.6875 808.761719 L 638.765625 808.761719 Z M 638.605469 815.511719 "/>
</g>
<mask id="mask27">
  <g filter="url(#alpha)">
<rect x="0" y="0" width="1144" height="1144" style="fill:rgb(0%,0%,0%);fill-opacity:0.301961;stroke:none;"/>
  </g>
</mask>
<clipPath id="clip28">
  <rect x="0" y="0" width="1144" height="1144"/>
</clipPath>
<g id="surface86" clip-path="url(#clip28)">
<path style=" stroke:none;fill-rule:nonzero;fill:rgb(14.901961%,19.607843%,21.960784%);fill-opacity:1;" d="M 586.597656 815.511719 L 602.933594 819.308594 L 602.683594 808.761719 L 586.757812 808.761719 Z M 586.597656 815.511719 "/>
</g>
<mask id="mask28">
  <g filter="url(#alpha)">
<rect x="0" y="0" width="1144" height="1144" style="fill:rgb(0%,0%,0%);fill-opacity:0.301961;stroke:none;"/>
  </g>
</mask>
<clipPath id="clip29">
  <rect x="0" y="0" width="1144" height="1144"/>
</clipPath>
<g id="surface89" clip-path="url(#clip29)">
<path style=" stroke:none;fill-rule:nonzero;fill:rgb(14.901961%,19.607843%,21.960784%);fill-opacity:1;" d="M 548.730469 815.511719 L 565.066406 819.308594 L 564.816406 808.761719 L 548.890625 808.761719 Z M 548.730469 815.511719 "/>
</g>
<mask id="mask29">
  <g filter="url(#alpha)">
<rect x="0" y="0" width="1144" height="1144" style="fill:rgb(0%,0%,0%);fill-opacity:0.301961;stroke:none;"/>
  </g>
</mask>
<clipPath id="clip30">
  <rect x="0" y="0" width="1144" height="1144"/>
</clipPath>
<g id="surface92" clip-path="url(#clip30)">
<path style=" stroke:none;fill-rule:nonzero;fill:rgb(14.901961%,19.607843%,21.960784%);fill-opacity:1;" d="M 496.726562 815.511719 L 513.0625 819.308594 L 512.808594 808.761719 L 496.886719 808.761719 Z M 496.726562 815.511719 "/>
</g>
<mask id="mask30">
  <g filter="url(#alpha)">
<rect x="0" y="0" width="1144" height="1144" style="fill:rgb(0%,0%,0%);fill-opacity:0.2;stroke:none;"/>
  </g>
</mask>
<clipPath id="clip31">
  <rect x="0" y="0" width="1144" height="1144"/>
</clipPath>
<g id="surface95" clip-path="url(#clip31)">
<path style=" stroke:none;fill-rule:nonzero;fill:rgb(0%,0%,0%);fill-opacity:1;" d="M 525.964844 539.351562 C 524.839844 534.949219 522.941406 530.78125 520.359375 527.039062 L 515.785156 516.8125 C 513.816406 513.191406 509.445312 511.628906 505.625 513.175781 L 501.050781 514.59375 C 503.65625 522.9375 507.636719 530.785156 512.832031 537.816406 C 515.917969 541.882812 520 545.082031 524.683594 547.105469 C 526.027344 544.757812 526.480469 542.003906 525.964844 539.351562 Z M 525.964844 539.351562 "/>
</g>
<mask id="mask31">
  <g filter="url(#alpha)">
<rect x="0" y="0" width="1144" height="1144" style="fill:rgb(0%,0%,0%);fill-opacity:0.501961;stroke:none;"/>
  </g>
</mask>
<clipPath id="clip32">
  <rect x="0" y="0" width="1144" height="1144"/>
</clipPath>
<g id="surface98" clip-path="url(#clip32)">
<path style=" stroke:none;fill-rule:nonzero;fill:rgb(14.901961%,19.607843%,21.960784%);fill-opacity:1;" d="M 494.324219 893.328125 C 488.511719 850.449219 499.21875 809.105469 493.292969 782.496094 C 523.152344 787.78125 584.8125 798.671875 595.132812 756.574219 C 599.113281 740.214844 616.339844 720.308594 614.945312 711.203125 C 588.976562 711.203125 504.136719 710.242188 473.226562 716.144531 C 422.707031 725.777344 424.972656 760.578125 438.539062 819.308594 C 443.828125 842.191406 446.617188 846.21875 453.253906 876.097656 C 456.820312 892.113281 456.066406 902.136719 460.6875 912.589844 C 472.265625 920.738281 487.113281 916.960938 494.277344 913.300781 C 500.15625 907.71875 495.488281 902.113281 494.324219 893.328125 Z M 494.324219 893.328125 "/>
</g>
<mask id="mask32">
  <g filter="url(#alpha)">
<rect x="0" y="0" width="1144" height="1144" style="fill:rgb(0%,0%,0%);fill-opacity:0.2;stroke:none;"/>
  </g>
</mask>
<clipPath id="clip33">
  <rect x="0" y="0" width="1144" height="1144"/>
</clipPath>
<g id="surface101" clip-path="url(#clip33)">
<path style=" stroke:none;fill-rule:nonzero;fill:rgb(0%,0%,0%);fill-opacity:1;" d="M 668.097656 564.953125 C 668.097656 564.199219 667.890625 563.464844 667.753906 562.664062 C 616.203125 568.523438 601.058594 664.046875 672.191406 691.824219 C 674.570312 664.480469 675.347656 621.625 668.097656 564.953125 Z M 668.097656 564.953125 "/>
</g>
<mask id="mask33">
  <g filter="url(#alpha)">
<rect x="0" y="0" width="1144" height="1144" style="fill:rgb(0%,0%,0%);fill-opacity:0.2;stroke:none;"/>
  </g>
</mask>
<clipPath id="clip34">
  <rect x="0" y="0" width="1144" height="1144"/>
</clipPath>
<g id="surface104" clip-path="url(#clip34)">
<path style=" stroke:none;fill-rule:nonzero;fill:rgb(0%,0%,0%);fill-opacity:1;" d="M 555.984375 511.460938 L 538.207031 533.285156 C 540.917969 537.195312 541.289062 542.273438 539.167969 546.535156 C 544.820312 543.789062 553.789062 538.160156 556.992188 531.183594 C 562.277344 519.511719 559.253906 510.613281 555.984375 511.460938 Z M 555.984375 511.460938 "/>
</g>
<mask id="mask34">
  <g filter="url(#alpha)">
<rect x="0" y="0" width="1144" height="1144" style="fill:rgb(0%,0%,0%);fill-opacity:0.4;stroke:none;"/>
  </g>
</mask>
<clipPath id="clip35">
  <rect x="0" y="0" width="1144" height="1144"/>
</clipPath>
<g id="surface107" clip-path="url(#clip35)">
<path style=" stroke:none;fill-rule:nonzero;fill:rgb(14.901961%,19.607843%,21.960784%);fill-opacity:1;" d="M 588.175781 869.050781 C 569.710938 830.542969 581.496094 827.113281 564.882812 790.503906 C 593.894531 793.546875 645.949219 796.0625 663.453125 757.921875 C 670.476562 742.617188 668.988281 724.929688 668.941406 717.402344 C 649.035156 706.695312 585.246094 709.601562 554.542969 716.234375 C 504.207031 727.082031 481.441406 736.828125 501.917969 798.605469 C 508.644531 818.898438 518.117188 837.246094 538.160156 869.691406 C 546.808594 883.671875 551.292969 905.5 559.574219 913.390625 C 567.628906 920.140625 575.59375 906.09375 591.882812 907.945312 C 598.769531 897.742188 591.996094 877.035156 588.175781 869.050781 Z M 588.175781 869.050781 "/>
</g>
<mask id="mask35">
  <g filter="url(#alpha)">
<rect x="0" y="0" width="1144" height="1144" style="fill:rgb(0%,0%,0%);fill-opacity:0.301961;stroke:none;"/>
  </g>
</mask>
<clipPath id="clip36">
  <rect x="0" y="0" width="1144" height="1144"/>
</clipPath>
<g id="surface110" clip-path="url(#clip36)">
<path style=" stroke:none;fill-rule:nonzero;fill:rgb(14.901961%,19.607843%,21.960784%);fill-opacity:1;" d="M 605.425781 675.921875 L 509.445312 675.921875 L 509.445312 657.570312 L 605.425781 657.570312 Z M 605.425781 675.921875 "/>
</g>
<mask id="mask36">
  <g filter="url(#alpha)">
<rect x="0" y="0" width="1144" height="1144" style="fill:rgb(0%,0%,0%);fill-opacity:0.301961;stroke:none;"/>
  </g>
</mask>
<clipPath id="clip37">
  <rect x="0" y="0" width="1144" height="1144"/>
</clipPath>
<g id="surface113" clip-path="url(#clip37)">
<path style=" stroke:none;fill-rule:nonzero;fill:rgb(14.901961%,19.607843%,21.960784%);fill-opacity:1;" d="M 469.039062 685.347656 L 480.777344 690.769531 L 480.457031 675.921875 L 469.222656 675.921875 Z M 469.039062 685.347656 "/>
</g>
<mask id="mask37">
  <g filter="url(#alpha)">
<rect x="0" y="0" width="1144" height="1144" style="fill:rgb(0%,0%,0%);fill-opacity:0.701961;stroke:none;"/>
  </g>
</mask>
<clipPath id="clip38">
  <rect x="0" y="0" width="1144" height="1144"/>
</clipPath>
<g id="surface116" clip-path="url(#clip38)">
<path style=" stroke:none;fill-rule:nonzero;fill:rgb(100%,100%,100%);fill-opacity:1;" d="M 474.898438 646.175781 C 467.277344 648.257812 417.308594 654.183594 394.816406 648.464844 C 399.964844 651.898438 417.878906 657.617188 433.507812 657.617188 L 554.953125 657.617188 C 554.953125 657.617188 567.5625 657.617188 570.421875 654.230469 C 553.261719 655.902344 485.949219 653.796875 474.898438 646.175781 Z M 474.898438 646.175781 "/>
</g>
</defs>
<g id="surface1">
<path style=" stroke:none;fill-rule:nonzero;fill:rgb(92.156863%,92.156863%,92.156863%);fill-opacity:1;" d="M 0 874.929688 L 1144 874.929688 L 1144 875.503906 L 0 875.503906 Z M 0 874.929688 "/>
<path style=" stroke:none;fill-rule:nonzero;fill:rgb(92.156863%,92.156863%,92.156863%);fill-opacity:1;" d="M 851.890625 911.746094 L 1029.371094 911.746094 L 1029.371094 912.316406 L 851.890625 912.316406 Z M 851.890625 911.746094 "/>
<path style=" stroke:none;fill-rule:nonzero;fill:rgb(92.156863%,92.156863%,92.156863%);fill-opacity:1;" d="M 636.0625 903.738281 L 762.660156 903.738281 L 762.660156 904.308594 L 636.0625 904.308594 Z M 636.0625 903.738281 "/>
<path style=" stroke:none;fill-rule:nonzero;fill:rgb(92.156863%,92.156863%,92.156863%);fill-opacity:1;" d="M 816.265625 890.511719 L 951.304688 890.511719 L 951.304688 891.085938 L 816.265625 891.085938 Z M 816.265625 890.511719 "/>
<path style=" stroke:none;fill-rule:nonzero;fill:rgb(92.156863%,92.156863%,92.156863%);fill-opacity:1;" d="M 120.027344 894.355469 L 149.0625 894.355469 L 149.0625 894.929688 L 120.027344 894.929688 Z M 120.027344 894.355469 "/>
<path style=" stroke:none;fill-rule:nonzero;fill:rgb(92.156863%,92.156863%,92.156863%);fill-opacity:1;" d="M 169.449219 894.355469 L 333.292969 894.355469 L 333.292969 894.929688 L 169.449219 894.929688 Z M 169.449219 894.355469 "/>
<path style=" stroke:none;fill-rule:nonzero;fill:rgb(92.156863%,92.156863%,92.156863%);fill-opacity:1;" d="M 396.191406 904.011719 L 503.359375 904.011719 L 503.359375 904.582031 L 396.191406 904.582031 Z M 396.191406 904.011719 "/>
<path style=" stroke:none;fill-rule:nonzero;fill:rgb(92.156863%,92.156863%,92.156863%);fill-opacity:1;" d="M 542.257812 772.886719 L 100.464844 772.886719 C 93.257812 772.875 87.425781 767.027344 87.425781 759.820312 L 87.425781 138.789062 C 87.488281 131.628906 93.304688 125.851562 100.464844 125.839844 L 542.257812 125.839844 C 549.472656 125.839844 555.320312 131.6875 555.320312 138.90625 L 555.320312 759.820312 C 555.320312 767.039062 549.472656 772.886719 542.257812 772.886719 Z M 100.464844 126.296875 C 93.574219 126.308594 87.996094 131.898438 87.996094 138.789062 L 87.996094 759.820312 C 87.996094 766.710938 93.574219 772.300781 100.464844 772.3125 L 542.257812 772.3125 C 549.148438 772.300781 554.734375 766.714844 554.75 759.820312 L 554.75 138.789062 C 554.734375 131.894531 549.148438 126.308594 542.257812 126.296875 Z M 100.464844 126.296875 "/>
<path style=" stroke:none;fill-rule:nonzero;fill:rgb(92.156863%,92.156863%,92.156863%);fill-opacity:1;" d="M 1037.171875 772.886719 L 595.359375 772.886719 C 588.148438 772.875 582.308594 767.03125 582.296875 759.820312 L 582.296875 138.789062 C 582.371094 131.625 588.195312 125.851562 595.359375 125.839844 L 1037.171875 125.839844 C 1044.328125 125.863281 1050.128906 131.636719 1050.191406 138.789062 L 1050.191406 759.820312 C 1050.191406 767.019531 1044.371094 772.859375 1037.171875 772.886719 Z M 595.359375 126.296875 C 588.464844 126.308594 582.878906 131.894531 582.867188 138.789062 L 582.867188 759.820312 C 582.878906 766.714844 588.464844 772.300781 595.359375 772.3125 L 1037.171875 772.3125 C 1044.066406 772.300781 1049.652344 766.714844 1049.664062 759.820312 L 1049.664062 138.789062 C 1049.652344 131.894531 1044.066406 126.308594 1037.171875 126.296875 Z M 595.359375 126.296875 "/>
<path style=" stroke:none;fill-rule:nonzero;fill:rgb(90.196078%,90.196078%,90.196078%);fill-opacity:1;" d="M 735.613281 874.929688 L 648.304688 874.929688 L 648.304688 527.75 L 735.613281 527.75 Z M 735.613281 874.929688 "/>
<path style=" stroke:none;fill-rule:nonzero;fill:rgb(98.039216%,98.039216%,98.039216%);fill-opacity:1;" d="M 687.863281 874.929688 L 648.304688 874.929688 L 648.304688 826.996094 L 729.324219 826.996094 Z M 687.863281 874.929688 "/>
<path style=" stroke:none;fill-rule:nonzero;fill:rgb(90.196078%,90.196078%,90.196078%);fill-opacity:1;" d="M 991.367188 874.929688 L 904.058594 874.929688 L 904.058594 527.75 L 991.367188 527.75 Z M 991.367188 874.929688 "/>
<path style=" stroke:none;fill-rule:nonzero;fill:rgb(98.039216%,98.039216%,98.039216%);fill-opacity:1;" d="M 938.582031 858.433594 L 648.304688 858.433594 L 648.304688 527.75 L 938.582031 527.75 Z M 938.582031 858.433594 "/>
<path style=" stroke:none;fill-rule:nonzero;fill:rgb(98.039216%,98.039216%,98.039216%);fill-opacity:1;" d="M 899.023438 874.929688 L 938.582031 874.929688 L 938.582031 826.996094 L 857.542969 826.996094 Z M 899.023438 874.929688 "/>
<path style=" stroke:none;fill-rule:nonzero;fill:rgb(94.117647%,94.117647%,94.117647%);fill-opacity:1;" d="M 907.902344 733.714844 L 679.007812 733.714844 L 679.007812 650.957031 L 907.902344 650.957031 Z M 907.902344 733.714844 "/>
<path style=" stroke:none;fill-rule:nonzero;fill:rgb(94.117647%,94.117647%,94.117647%);fill-opacity:1;" d="M 907.902344 834.160156 L 679.007812 834.160156 L 679.007812 751.402344 L 907.902344 751.402344 Z M 907.902344 834.160156 "/>
<path style=" stroke:none;fill-rule:nonzero;fill:rgb(98.039216%,98.039216%,98.039216%);fill-opacity:1;" d="M 835.003906 659.835938 L 751.882812 659.835938 C 744.300781 659.835938 738.15625 653.691406 738.15625 646.109375 L 738.15625 643.820312 L 848.664062 643.820312 L 848.664062 646.109375 C 848.664062 653.664062 842.558594 659.796875 835.003906 659.835938 Z M 835.003906 659.835938 "/>
<path style=" stroke:none;fill-rule:nonzero;fill:rgb(94.117647%,94.117647%,94.117647%);fill-opacity:1;" d="M 907.902344 633.273438 L 679.007812 633.273438 L 679.007812 550.515625 L 907.902344 550.515625 Z M 907.902344 633.273438 "/>
<path style=" stroke:none;fill-rule:nonzero;fill:rgb(98.039216%,98.039216%,98.039216%);fill-opacity:1;" d="M 835.003906 559.394531 L 751.882812 559.394531 C 744.300781 559.394531 738.15625 553.246094 738.15625 545.664062 L 738.15625 543.378906 L 848.664062 543.378906 L 848.664062 545.664062 C 848.664062 553.21875 842.558594 559.355469 835.003906 559.394531 Z M 835.003906 559.394531 "/>
<path style=" stroke:none;fill-rule:nonzero;fill:rgb(98.039216%,98.039216%,98.039216%);fill-opacity:1;" d="M 835.003906 760.28125 L 751.882812 760.28125 C 744.300781 760.28125 738.15625 754.132812 738.15625 746.550781 L 738.15625 744.261719 L 848.664062 744.261719 L 848.664062 746.550781 C 848.664062 754.105469 842.558594 760.242188 835.003906 760.28125 Z M 835.003906 760.28125 "/>
<path style=" stroke:none;fill-rule:nonzero;fill:rgb(92.156863%,92.156863%,92.156863%);fill-opacity:1;" d="M 847.703125 491.921875 C 854.796875 487.847656 847.292969 482.308594 856.855469 478.375 C 866.417969 474.441406 858.207031 468.535156 858.550781 463.066406 C 858.890625 457.601562 871.316406 456.730469 874.863281 450.371094 C 876.351562 447.714844 874.609375 444.375 872.070312 441.402344 C 866.695312 435.109375 851.960938 433.644531 843.972656 438.90625 C 843.59375 439.15625 843.230469 439.421875 842.875 439.707031 C 835.828125 445.269531 842.738281 450.597656 834.890625 454.328125 C 827.042969 458.058594 812.949219 458.902344 813.40625 465.082031 C 813.863281 471.257812 803.203125 471.832031 797.527344 476.660156 C 794.027344 479.609375 796.679688 484.507812 799.265625 487.847656 C 801.65625 490.550781 804.875 492.386719 808.417969 493.0625 C 817.800781 495.398438 836.308594 498.554688 847.703125 491.921875 Z M 847.703125 491.921875 "/>
<path style=" stroke:none;fill-rule:nonzero;fill:rgb(87.843137%,87.843137%,87.843137%);fill-opacity:1;" d="M 863.421875 506.722656 C 875.390625 503.75 870.746094 494.847656 885.546875 492.742188 C 900.351562 490.640625 895.226562 481.074219 900.078125 474.441406 C 904.925781 467.804688 920.851562 470.296875 930.371094 463.527344 C 936.226562 459.339844 934.695312 451.398438 932.65625 445.929688 C 931.191406 441.996094 925.425781 439.066406 918.585938 438.90625 C 912.261719 438.609375 905.933594 439.46875 899.917969 441.445312 C 886.804688 446.230469 890.902344 454.71875 878.25 457.074219 C 865.597656 459.429688 847.773438 456.363281 843.265625 464.121094 C 838.757812 471.878906 825.257812 469.496094 814.390625 473.777344 C 806.613281 476.84375 806.910156 485.511719 807.710938 490.160156 C 808.28125 492.476562 809.835938 494.433594 811.964844 495.511719 C 820.386719 500.613281 842.371094 511.960938 863.421875 506.722656 Z M 863.421875 506.722656 "/>
<path style=" stroke:none;fill-rule:nonzero;fill:rgb(92.156863%,92.156863%,92.156863%);fill-opacity:1;" d="M 853.859375 470.984375 C 861.707031 467.4375 869.875 472.609375 877.90625 467.644531 C 885.9375 462.679688 894.609375 468.261719 903.851562 468.855469 C 913.09375 469.453125 916.320312 462.335938 927.507812 461.167969 C 932.546875 460.972656 937.558594 461.976562 942.128906 464.097656 C 951.945312 468.125 952.242188 476.957031 942.265625 480.847656 L 940.78125 481.371094 C 930.460938 484.691406 922.476562 479.886719 915.085938 483.933594 C 907.695312 487.984375 904.378906 496.085938 893.96875 494.917969 C 883.558594 493.75 881.15625 499.90625 872.253906 502.511719 C 866.785156 504.136719 858.9375 501.871094 853.699219 499.882812 C 850.519531 498.925781 847.859375 496.730469 846.308594 493.796875 C 843.835938 487.960938 841.230469 476.703125 853.859375 470.984375 Z M 853.859375 470.984375 "/>
<path style=" stroke:none;fill-rule:nonzero;fill:rgb(96.078431%,96.078431%,96.078431%);fill-opacity:1;" d="M 769.042969 478.375 C 769.042969 478.375 771.511719 527.75 866.808594 527.75 C 962.105469 527.75 964.550781 478.375 964.550781 478.375 Z M 769.042969 478.375 "/>
<path style=" stroke:none;fill-rule:nonzero;fill:rgb(96.078431%,96.078431%,96.078431%);fill-opacity:1;" d="M 183.65625 549.371094 L 187.203125 549.371094 C 203.089844 549.371094 215.964844 562.246094 215.964844 578.132812 L 215.964844 825.417969 C 215.964844 841.300781 203.089844 854.179688 187.203125 854.179688 L 183.65625 854.179688 C 167.773438 854.179688 154.898438 841.300781 154.898438 825.417969 L 154.898438 578.132812 C 154.898438 562.246094 167.773438 549.371094 183.65625 549.371094 Z M 183.65625 549.371094 "/>
<path style=" stroke:none;fill-rule:nonzero;fill:rgb(92.156863%,92.156863%,92.156863%);fill-opacity:1;" d="M 202.898438 843.996094 C 191.527344 843.996094 182.308594 834.777344 182.308594 823.40625 L 182.308594 580.191406 C 182.308594 568.820312 191.527344 559.597656 202.898438 559.597656 C 214.273438 559.597656 223.492188 568.820312 223.492188 580.191406 L 223.492188 823.382812 C 223.496094 828.847656 221.332031 834.089844 217.46875 837.957031 C 213.605469 841.824219 208.363281 843.996094 202.898438 843.996094 Z M 202.898438 843.996094 "/>
<path style=" stroke:none;fill-rule:nonzero;fill:rgb(96.078431%,96.078431%,96.078431%);fill-opacity:1;" d="M 228 549.371094 L 231.546875 549.371094 C 247.429688 549.371094 260.304688 562.246094 260.304688 578.132812 L 260.304688 825.417969 C 260.304688 841.300781 247.429688 854.179688 231.546875 854.179688 L 228 854.179688 C 212.117188 854.179688 199.238281 841.300781 199.238281 825.417969 L 199.238281 578.132812 C 199.238281 562.246094 212.117188 549.371094 228 549.371094 Z M 228 549.371094 "/>
<path style=" stroke:none;fill-rule:nonzero;fill:rgb(92.156863%,92.156863%,92.156863%);fill-opacity:1;" d="M 247.242188 843.996094 C 235.867188 843.996094 226.648438 834.777344 226.648438 823.40625 L 226.648438 580.191406 C 226.648438 568.820312 235.867188 559.597656 247.242188 559.597656 C 258.613281 559.597656 267.832031 568.820312 267.832031 580.191406 L 267.832031 823.382812 C 267.839844 828.847656 265.671875 834.089844 261.808594 837.957031 C 257.949219 841.824219 252.707031 843.996094 247.242188 843.996094 Z M 247.242188 843.996094 "/>
<path style=" stroke:none;fill-rule:nonzero;fill:rgb(96.078431%,96.078431%,96.078431%);fill-opacity:1;" d="M 272.339844 549.371094 L 275.886719 549.371094 C 291.769531 549.371094 304.648438 562.246094 304.648438 578.132812 L 304.648438 825.417969 C 304.648438 841.300781 291.769531 854.179688 275.886719 854.179688 L 272.339844 854.179688 C 256.457031 854.179688 243.582031 841.300781 243.582031 825.417969 L 243.582031 578.132812 C 243.582031 562.246094 256.457031 549.371094 272.339844 549.371094 Z M 272.339844 549.371094 "/>
<path style=" stroke:none;fill-rule:nonzero;fill:rgb(92.156863%,92.156863%,92.156863%);fill-opacity:1;" d="M 291.582031 843.996094 C 280.210938 843.996094 270.992188 834.777344 270.992188 823.40625 L 270.992188 580.191406 C 270.992188 568.820312 280.210938 559.597656 291.582031 559.597656 C 302.957031 559.597656 312.175781 568.820312 312.175781 580.191406 L 312.175781 823.382812 C 312.179688 828.847656 310.015625 834.089844 306.152344 837.957031 C 302.289062 841.824219 297.046875 843.996094 291.582031 843.996094 Z M 291.582031 843.996094 "/>
<path style=" stroke:none;fill-rule:nonzero;fill:rgb(96.078431%,96.078431%,96.078431%);fill-opacity:1;" d="M 316.703125 549.371094 L 320.25 549.371094 C 336.136719 549.371094 349.011719 562.246094 349.011719 578.132812 L 349.011719 825.417969 C 349.011719 841.300781 336.136719 854.179688 320.25 854.179688 L 316.703125 854.179688 C 300.820312 854.179688 287.945312 841.300781 287.945312 825.417969 L 287.945312 578.132812 C 287.945312 562.246094 300.820312 549.371094 316.703125 549.371094 Z M 316.703125 549.371094 "/>
<path style=" stroke:none;fill-rule:nonzero;fill:rgb(92.156863%,92.156863%,92.156863%);fill-opacity:1;" d="M 335.945312 559.554688 C 347.34375 559.554688 356.585938 568.792969 356.585938 580.191406 L 356.585938 823.359375 C 356.585938 834.757812 347.34375 843.996094 335.945312 843.996094 C 324.550781 843.996094 315.308594 834.757812 315.308594 823.359375 L 315.308594 580.191406 C 315.308594 568.792969 324.550781 559.554688 335.945312 559.554688 Z M 335.945312 559.554688 "/>
<path style=" stroke:none;fill-rule:nonzero;fill:rgb(96.078431%,96.078431%,96.078431%);fill-opacity:1;" d="M 361.046875 549.371094 L 364.59375 549.371094 C 380.476562 549.371094 393.351562 562.246094 393.351562 578.132812 L 393.351562 825.417969 C 393.351562 841.300781 380.476562 854.179688 364.59375 854.179688 L 361.046875 854.179688 C 345.164062 854.179688 332.285156 841.300781 332.285156 825.417969 L 332.285156 578.132812 C 332.285156 562.246094 345.164062 549.371094 361.046875 549.371094 Z M 361.046875 549.371094 "/>
<path style=" stroke:none;fill-rule:nonzero;fill:rgb(92.156863%,92.156863%,92.156863%);fill-opacity:1;" d="M 380.289062 843.996094 C 368.914062 843.996094 359.695312 834.777344 359.695312 823.40625 L 359.695312 580.191406 C 359.695312 568.820312 368.914062 559.597656 380.289062 559.597656 C 391.660156 559.597656 400.878906 568.820312 400.878906 580.191406 L 400.878906 823.382812 C 400.886719 828.847656 398.71875 834.089844 394.855469 837.957031 C 390.996094 841.824219 385.753906 843.996094 380.289062 843.996094 Z M 380.289062 843.996094 "/>
<path style=" stroke:none;fill-rule:nonzero;fill:rgb(96.078431%,96.078431%,96.078431%);fill-opacity:1;" d="M 405.386719 549.371094 L 408.933594 549.371094 C 424.816406 549.371094 437.695312 562.246094 437.695312 578.132812 L 437.695312 825.417969 C 437.695312 841.300781 424.816406 854.179688 408.933594 854.179688 L 405.386719 854.179688 C 389.503906 854.179688 376.628906 841.300781 376.628906 825.417969 L 376.628906 578.132812 C 376.628906 562.246094 389.503906 549.371094 405.386719 549.371094 Z M 405.386719 549.371094 "/>
<path style=" stroke:none;fill-rule:nonzero;fill:rgb(92.156863%,92.156863%,92.156863%);fill-opacity:1;" d="M 424.628906 843.996094 C 413.257812 843.996094 404.039062 834.777344 404.039062 823.40625 L 404.039062 580.191406 C 404.039062 568.820312 413.257812 559.597656 424.628906 559.597656 C 436.003906 559.597656 445.222656 568.820312 445.222656 580.191406 L 445.222656 823.382812 C 445.226562 828.847656 443.0625 834.089844 439.199219 837.957031 C 435.335938 841.824219 430.09375 843.996094 424.628906 843.996094 Z M 424.628906 843.996094 "/>
<path style=" stroke:none;fill-rule:nonzero;fill:rgb(96.078431%,96.078431%,96.078431%);fill-opacity:1;" d="M 449.753906 549.371094 L 453.296875 549.371094 C 469.183594 549.371094 482.058594 562.246094 482.058594 578.132812 L 482.058594 825.417969 C 482.058594 841.300781 469.183594 854.179688 453.296875 854.179688 L 449.753906 854.179688 C 433.867188 854.179688 420.992188 841.300781 420.992188 825.417969 L 420.992188 578.132812 C 420.992188 562.246094 433.867188 549.371094 449.753906 549.371094 Z M 449.753906 549.371094 "/>
<path style=" stroke:none;fill-rule:nonzero;fill:rgb(96.078431%,96.078431%,96.078431%);fill-opacity:1;" d="M 438.882812 808.855469 L 488.625 808.855469 C 491.226562 808.855469 493.339844 810.964844 493.339844 813.566406 L 493.339844 815.601562 C 493.339844 818.207031 491.226562 820.316406 488.625 820.316406 L 438.882812 820.316406 C 436.28125 820.316406 434.171875 818.207031 434.171875 815.601562 L 434.171875 813.566406 C 434.171875 810.964844 436.28125 808.855469 438.882812 808.855469 Z M 438.882812 808.855469 "/>
<path style=" stroke:none;fill-rule:nonzero;fill:rgb(96.078431%,96.078431%,96.078431%);fill-opacity:1;" d="M 438.882812 590.738281 L 488.625 590.738281 C 491.226562 590.738281 493.339844 592.847656 493.339844 595.453125 L 493.339844 597.488281 C 493.339844 600.089844 491.226562 602.203125 488.625 602.203125 L 438.882812 602.203125 C 436.28125 602.203125 434.171875 600.089844 434.171875 597.488281 L 434.171875 595.453125 C 434.171875 592.847656 436.28125 590.738281 438.882812 590.738281 Z M 438.882812 590.738281 "/>
<path style=" stroke:none;fill-rule:nonzero;fill:rgb(96.078431%,96.078431%,96.078431%);fill-opacity:1;" d="M 1015.621094 952.355469 C 1015.621094 938.054688 817.003906 926.457031 572 926.457031 C 326.996094 926.457031 128.378906 938.054688 128.378906 952.355469 C 128.378906 966.660156 326.996094 978.257812 572 978.257812 C 817.003906 978.257812 1015.621094 966.660156 1015.621094 952.355469 Z M 1015.621094 952.355469 "/>
<path style=" stroke:none;fill-rule:nonzero;fill:rgb(14.901961%,19.607843%,21.960784%);fill-opacity:1;" d="M 201.34375 131.378906 C 274.742188 81.660156 377.152344 77.3125 475.902344 98.519531 C 532.484375 110.695312 587.878906 129.386719 644.828125 139.429688 C 676.242188 144.992188 708.546875 147.757812 739.597656 144.945312 C 769.132812 142.246094 804.53125 139.203125 834.203125 150.023438 C 882.09375 167.503906 907.238281 199.492188 920.691406 239.804688 C 934.648438 282.402344 936.808594 327.984375 926.9375 371.707031 C 926.113281 375.390625 925.199219 379.03125 924.191406 382.667969 C 915.933594 412.710938 900.96875 440.484375 877.035156 459.703125 C 832.167969 495.742188 744.035156 512.992188 679.949219 476.453125 C 634.1875 452.0625 600.140625 416.964844 562.460938 447.328125 L 513.886719 429.023438 C 521.960938 413.945312 505.761719 384.179688 473.753906 380.3125 C 441.195312 376.398438 415.683594 383.171875 391.386719 384.222656 C 361.777344 385.527344 331.394531 385.4375 300.710938 379.648438 C 232.4375 366.71875 155.628906 307.941406 144.761719 240.078125 C 136.59375 190.339844 165.011719 155.925781 201.34375 131.378906 Z M 201.34375 131.378906 "/>
<use xlink:href="#surface5" mask="url(#mask0)"/>
<path style=" stroke:none;fill-rule:nonzero;fill:rgb(14.901961%,19.607843%,21.960784%);fill-opacity:1;" d="M 918.746094 191.644531 C 850.519531 119.683594 747.625 93.648438 645.46875 97.605469 C 586.894531 99.894531 528.78125 109.847656 470.09375 109.640625 C 437.71875 109.527344 404.792969 106.046875 373.769531 96.4375 C 344.273438 87.289062 308.878906 76.511719 277.671875 82.710938 C 227.335938 92.847656 198.117188 124.238281 179.792969 167.574219 C 159.976562 214.386719 153.296875 266.847656 157.871094 317.230469 C 158.253906 321.59375 158.734375 325.949219 159.3125 330.296875 C 164.117188 366.355469 175.945312 401.222656 197.84375 428.109375 C 238.890625 478.445312 325.835938 516.402344 394.863281 487.800781 C 436.390625 472.175781 449.523438 442.933594 473.433594 459.957031 C 486.117188 468.949219 501.574219 473.164062 517.066406 471.855469 L 522.511719 471.398438 C 543.125 469.789062 561.773438 458.566406 572.847656 441.105469 C 581.734375 426.957031 597.738281 418.910156 614.398438 420.214844 C 647.734375 422.503906 672.671875 435.40625 697.152344 441.628906 C 726.898438 449.203125 757.601562 455.359375 789.269531 455.039062 C 859.738281 454.28125 944.210938 402.871094 963.15625 327.574219 C 977.089844 272.273438 952.472656 227.175781 918.746094 191.644531 Z M 918.746094 191.644531 "/>
<use xlink:href="#surface8" mask="url(#mask1)"/>
<use xlink:href="#surface11" mask="url(#mask2)"/>
<path style=" stroke:none;fill-rule:nonzero;fill:rgb(14.901961%,19.607843%,21.960784%);fill-opacity:1;" d="M 291.878906 429.320312 C 269.25 429.320312 247.585938 421.3125 232.164062 406.644531 C 210.3125 385.824219 203.539062 351.183594 216.445312 326.0625 C 231.820312 296.066406 268.910156 284.742188 298.8125 286.800781 C 328.71875 288.859375 356.171875 301.125 383.058594 312.976562 L 389.507812 315.8125 C 418.179688 328.375 448.835938 340.476562 480.59375 338.441406 C 515.347656 336.152344 546.054688 317.253906 575.753906 298.949219 C 591.355469 289.316406 607.507812 279.363281 624.210938 271.792969 C 674.546875 248.910156 735.707031 245.84375 796.179688 263.050781 C 852.53125 279.066406 896.851562 303.410156 940.070312 341.917969 C 957.320312 357.292969 983.839844 375.804688 1012.28125 376.558594 L 1012.28125 378.847656 C 983.152344 378.070312 956.132812 359.261719 938.605469 343.613281 C 895.730469 305.355469 851.664062 281.171875 795.628906 265.246094 C 735.683594 248.179688 675.164062 251.246094 625.21875 273.875 C 608.609375 281.425781 592.59375 291.308594 576.941406 300.894531 C 547.015625 319.359375 516.058594 338.441406 480.847656 340.730469 C 448.585938 342.789062 417.628906 330.59375 388.707031 317.847656 L 382.097656 315.058594 C 355.394531 303.296875 327.777344 291.101562 298.605469 289.089844 C 269.433594 287.074219 233.375 298.058594 218.480469 327.183594 C 206.035156 351.4375 212.601562 384.910156 233.742188 404.976562 C 253.554688 423.851562 284.078125 431.355469 313.363281 424.5625 L 313.867188 426.847656 C 306.65625 428.503906 299.28125 429.335938 291.878906 429.320312 Z M 291.878906 429.320312 "/>
<path style=" stroke:none;fill-rule:nonzero;fill:rgb(14.901961%,19.607843%,21.960784%);fill-opacity:1;" d="M 1013.585938 344.59375 C 971.027344 334.117188 969.265625 364.433594 969.265625 364.433594 C 969.265625 364.433594 992.992188 383.308594 1013.585938 344.59375 Z M 1013.585938 344.59375 "/>
<path style=" stroke:none;fill-rule:nonzero;fill:rgb(14.901961%,19.607843%,21.960784%);fill-opacity:1;" d="M 620.871094 236.03125 C 584.148438 259.960938 605.105469 281.949219 605.105469 281.949219 C 605.105469 281.949219 635.125 277.488281 620.871094 236.03125 Z M 620.871094 236.03125 "/>
<path style=" stroke:none;fill-rule:nonzero;fill:rgb(14.901961%,19.607843%,21.960784%);fill-opacity:1;" d="M 501.070312 308.878906 C 457.234375 309.292969 463.066406 339.105469 463.066406 339.105469 C 463.066406 339.105469 490.820312 351.367188 501.070312 308.878906 Z M 501.070312 308.878906 "/>
<path style=" stroke:none;fill-rule:nonzero;fill:rgb(14.901961%,19.607843%,21.960784%);fill-opacity:1;" d="M 896.1875 349.171875 C 914.054688 309.15625 884.539062 302.039062 884.539062 302.039062 C 884.539062 302.039062 861.730469 322.058594 896.1875 349.171875 Z M 896.1875 349.171875 "/>
<path style=" stroke:none;fill-rule:nonzero;fill:rgb(14.901961%,19.607843%,21.960784%);fill-opacity:1;" d="M 603.046875 310.550781 C 587.03125 287.945312 573.738281 301.648438 573.738281 301.648438 C 573.738281 301.648438 577.238281 320.480469 603.046875 310.550781 Z M 603.046875 310.550781 "/>
<path style=" stroke:none;fill-rule:nonzero;fill:rgb(14.901961%,19.607843%,21.960784%);fill-opacity:1;" d="M 231.683594 334.277344 C 204.523438 339.449219 211.503906 357.292969 211.503906 357.292969 C 211.503906 357.292969 230.082031 361.871094 231.683594 334.277344 Z M 231.683594 334.277344 "/>
<use xlink:href="#surface14" mask="url(#mask3)"/>
<path style=" stroke:none;fill-rule:nonzero;fill:rgb(100%,100%,100%);fill-opacity:1;" d="M 324.050781 355.417969 L 262.023438 355.417969 C 256.550781 355.394531 252.128906 350.957031 252.113281 345.488281 C 252.128906 340.023438 256.554688 335.59375 262.023438 335.582031 L 324.050781 335.582031 C 326.691406 335.5625 329.230469 336.597656 331.105469 338.457031 C 332.984375 340.316406 334.042969 342.847656 334.046875 345.488281 C 334.042969 348.132812 332.984375 350.664062 331.109375 352.527344 C 329.234375 354.390625 326.691406 355.429688 324.050781 355.417969 Z M 324.050781 355.417969 "/>
<path style=" stroke:none;fill-rule:nonzero;fill:rgb(100%,100%,100%);fill-opacity:1;" d="M 324.050781 382.097656 L 262.023438 382.097656 C 256.554688 382.082031 252.128906 377.65625 252.113281 372.1875 C 252.128906 366.722656 256.554688 362.292969 262.023438 362.28125 L 324.050781 362.28125 C 329.515625 362.292969 333.945312 366.722656 333.957031 372.1875 C 333.945312 377.65625 329.515625 382.082031 324.050781 382.097656 Z M 324.050781 382.097656 "/>
<path style=" stroke:none;fill-rule:nonzero;fill:rgb(14.901961%,19.607843%,21.960784%);fill-opacity:1;" d="M 293.023438 271.128906 C 274.84375 271.117188 260.113281 256.367188 260.121094 238.1875 C 260.132812 220.007812 274.875 205.273438 293.054688 205.28125 C 311.234375 205.285156 325.972656 220.023438 325.972656 238.203125 C 325.945312 256.386719 311.207031 271.117188 293.023438 271.128906 Z M 293.023438 207.566406 C 276.105469 207.578125 262.402344 221.300781 262.410156 238.21875 C 262.417969 255.136719 276.136719 268.84375 293.054688 268.839844 C 309.972656 268.835938 323.683594 255.121094 323.683594 238.203125 C 323.671875 221.28125 309.949219 207.566406 293.023438 207.566406 Z M 293.023438 207.566406 "/>
<path style=" stroke:none;fill-rule:nonzero;fill:rgb(14.901961%,19.607843%,21.960784%);fill-opacity:1;" d="M 315.902344 271.128906 C 297.722656 271.117188 282.996094 256.367188 283.003906 238.1875 C 283.011719 220.007812 297.753906 205.273438 315.933594 205.28125 C 334.117188 205.285156 348.851562 220.023438 348.851562 238.203125 C 348.824219 256.386719 334.085938 271.117188 315.902344 271.128906 Z M 315.902344 207.566406 C 298.988281 207.578125 285.28125 221.300781 285.289062 238.21875 C 285.300781 255.136719 299.019531 268.84375 315.933594 268.839844 C 332.851562 268.835938 346.5625 255.121094 346.5625 238.203125 C 346.550781 221.28125 332.828125 207.566406 315.902344 207.566406 Z M 315.902344 207.566406 "/>
<path style=" stroke:none;fill-rule:nonzero;fill:rgb(14.901961%,19.607843%,21.960784%);fill-opacity:1;" d="M 270.144531 271.128906 C 251.964844 271.117188 237.234375 256.367188 237.242188 238.1875 C 237.25 220.007812 251.992188 205.273438 270.175781 205.28125 C 288.355469 205.285156 303.089844 220.023438 303.089844 238.203125 C 303.066406 256.386719 288.328125 271.117188 270.144531 271.128906 Z M 270.144531 207.566406 C 253.226562 207.578125 239.523438 221.300781 239.53125 238.21875 C 239.539062 255.136719 253.257812 268.84375 270.175781 268.839844 C 287.089844 268.835938 300.804688 255.121094 300.804688 238.203125 C 300.789062 221.28125 287.066406 207.566406 270.144531 207.566406 Z M 270.144531 207.566406 "/>
<path style=" stroke:none;fill-rule:nonzero;fill:rgb(14.901961%,19.607843%,21.960784%);fill-opacity:1;" d="M 272.273438 329.21875 L 269.984375 329.21875 C 269.984375 311.257812 261.015625 294.898438 252.34375 279.136719 C 244.542969 264.925781 237.175781 251.519531 237.175781 238.203125 L 239.460938 238.203125 C 239.460938 250.925781 246.691406 264.082031 254.335938 278.015625 C 263.121094 294.078125 272.273438 310.664062 272.273438 329.21875 Z M 272.273438 329.21875 "/>
<path style=" stroke:none;fill-rule:nonzero;fill:rgb(14.901961%,19.607843%,21.960784%);fill-opacity:1;" d="M 316.042969 329.21875 L 313.753906 329.21875 C 313.753906 310.664062 322.90625 294.078125 331.691406 278.015625 C 339.332031 264.082031 346.5625 250.925781 346.5625 238.203125 L 348.851562 238.203125 C 348.851562 251.519531 341.484375 264.925781 333.683594 279.136719 C 325.011719 294.921875 316.042969 311.167969 316.042969 329.21875 Z M 316.042969 329.21875 "/>
<path style=" stroke:none;fill-rule:nonzero;fill:rgb(14.901961%,19.607843%,21.960784%);fill-opacity:1;" d="M 901.242188 415.15625 C 809.953125 375.230469 683.539062 336.703125 659.972656 336.703125 C 636.40625 336.703125 485.492188 382.097656 371.890625 443.367188 C 384.179688 453.757812 402.664062 463.25 425.707031 471.625 C 445.269531 458.765625 456.707031 448.058594 473.433594 459.957031 C 486.117188 468.949219 501.574219 473.164062 517.066406 471.855469 L 522.511719 471.398438 C 543.125 469.789062 561.773438 458.566406 572.847656 441.105469 C 581.734375 426.957031 597.738281 418.910156 614.398438 420.214844 C 647.734375 422.503906 672.671875 435.40625 697.175781 441.628906 C 726.921875 449.203125 757.601562 455.359375 789.269531 455.039062 C 826.585938 454.625 867.859375 440.003906 901.242188 415.15625 Z M 901.242188 415.15625 "/>
<use xlink:href="#surface17" mask="url(#mask4)"/>
<use xlink:href="#surface20" mask="url(#mask5)"/>
<path style=" stroke:none;fill-rule:nonzero;fill:rgb(14.901961%,19.607843%,21.960784%);fill-opacity:1;" d="M 473.433594 459.886719 C 486.117188 468.878906 501.574219 473.09375 517.066406 471.785156 L 522.511719 471.328125 C 543.125 469.722656 561.773438 458.496094 572.847656 441.035156 C 578.972656 431.296875 588.605469 424.289062 599.753906 421.449219 C 522.96875 374.179688 400.398438 324.894531 379.054688 324.894531 C 362.441406 324.894531 270.875 359.695312 185.558594 410.445312 C 189.210938 416.625 193.316406 422.53125 197.84375 428.109375 C 238.890625 478.445312 325.835938 516.402344 394.863281 487.800781 C 436.390625 472.175781 449.523438 442.933594 473.433594 459.886719 Z M 473.433594 459.886719 "/>
<use xlink:href="#surface23" mask="url(#mask6)"/>
<use xlink:href="#surface26" mask="url(#mask7)"/>
<path style=" stroke:none;fill-rule:nonzero;fill:rgb(100%,100%,100%);fill-opacity:1;" d="M 864.476562 206.101562 C 864.476562 231.058594 844.242188 251.292969 819.285156 251.292969 C 794.332031 251.292969 774.097656 231.058594 774.097656 206.101562 C 774.097656 181.144531 794.332031 160.914062 819.285156 160.914062 C 844.242188 160.914062 864.476562 181.144531 864.476562 206.101562 Z M 864.476562 206.101562 "/>
<path style=" stroke:none;fill-rule:nonzero;fill:rgb(100%,100%,100%);fill-opacity:1;" d="M 868.867188 217.492188 C 882.976562 231.601562 882.976562 254.476562 868.867188 268.585938 C 854.757812 282.695312 831.882812 282.695312 817.773438 268.585938 C 803.667969 254.476562 803.667969 231.601562 817.773438 217.492188 C 831.882812 203.382812 854.757812 203.382812 868.867188 217.492188 Z M 868.867188 217.492188 "/>
<path style=" stroke:none;fill-rule:nonzero;fill:rgb(100%,100%,100%);fill-opacity:1;" d="M 840.0625 247.21875 C 840.0625 275.535156 817.105469 298.492188 788.789062 298.492188 C 760.46875 298.492188 737.515625 275.535156 737.515625 247.21875 C 737.515625 218.902344 760.46875 195.945312 788.789062 195.945312 C 817.105469 195.945312 840.0625 218.902344 840.0625 247.21875 Z M 840.0625 247.21875 "/>
<path style=" stroke:none;fill-rule:nonzero;fill:rgb(100%,100%,100%);fill-opacity:1;" d="M 752.132812 228.363281 C 760.230469 247.917969 750.945312 270.335938 731.390625 278.4375 C 711.835938 286.535156 689.417969 277.25 681.316406 257.695312 C 673.21875 238.140625 682.503906 215.722656 702.058594 207.621094 C 721.613281 199.523438 744.03125 208.808594 752.132812 228.363281 Z M 752.132812 228.363281 "/>
<path style=" stroke:none;fill-rule:nonzero;fill:rgb(100%,100%,100%);fill-opacity:1;" d="M 691.386719 158.34375 C 702.648438 174.800781 698.441406 197.269531 681.984375 208.53125 C 665.53125 219.792969 643.0625 215.585938 631.800781 199.128906 C 620.535156 182.675781 624.746094 160.207031 641.199219 148.945312 C 657.65625 137.679688 680.125 141.890625 691.386719 158.34375 Z M 691.386719 158.34375 "/>
<path style=" stroke:none;fill-rule:nonzero;fill:rgb(100%,100%,100%);fill-opacity:1;" d="M 643.722656 174.5 C 656.8125 182.003906 661.339844 198.699219 653.839844 211.789062 C 646.335938 224.878906 629.640625 229.40625 616.550781 221.902344 C 603.460938 214.402344 598.933594 197.707031 606.433594 184.617188 C 613.9375 171.527344 630.632812 167 643.722656 174.5 Z M 643.722656 174.5 "/>
<path style=" stroke:none;fill-rule:nonzero;fill:rgb(100%,100%,100%);fill-opacity:1;" d="M 583.382812 216.910156 C 591.914062 225.441406 591.914062 239.277344 583.382812 247.808594 C 574.847656 256.34375 561.015625 256.34375 552.480469 247.808594 C 543.949219 239.277344 543.949219 225.441406 552.480469 216.910156 C 561.015625 208.375 574.847656 208.375 583.382812 216.910156 Z M 583.382812 216.910156 "/>
<path style=" stroke:none;fill-rule:nonzero;fill:rgb(100%,100%,100%);fill-opacity:1;" d="M 589.847656 257.949219 C 589.847656 267.667969 581.96875 275.542969 572.25 275.542969 C 562.535156 275.542969 554.65625 267.667969 554.65625 257.949219 C 554.65625 248.230469 562.535156 240.355469 572.25 240.355469 C 581.96875 240.355469 589.847656 248.230469 589.847656 257.949219 Z M 589.847656 257.949219 "/>
<path style=" stroke:none;fill-rule:nonzero;fill:rgb(100%,100%,100%);fill-opacity:1;" d="M 566.691406 254.21875 C 566.691406 261.902344 560.464844 268.128906 552.78125 268.128906 C 545.097656 268.128906 538.871094 261.902344 538.871094 254.21875 C 538.871094 246.535156 545.097656 240.308594 552.78125 240.308594 C 560.464844 240.308594 566.691406 246.535156 566.691406 254.21875 Z M 566.691406 254.21875 "/>
<path style=" stroke:none;fill-rule:nonzero;fill:rgb(100%,100%,100%);fill-opacity:1;" d="M 544.039062 296.59375 C 544.039062 302.152344 539.535156 306.660156 533.972656 306.660156 C 528.414062 306.660156 523.90625 302.152344 523.90625 296.59375 C 523.90625 291.035156 528.414062 286.527344 533.972656 286.527344 C 539.535156 286.527344 544.039062 291.035156 544.039062 296.59375 Z M 544.039062 296.59375 "/>
<path style=" stroke:none;fill-rule:nonzero;fill:rgb(100%,100%,100%);fill-opacity:1;" d="M 498.785156 288.289062 C 498.785156 291.824219 495.914062 294.695312 492.378906 294.695312 C 488.839844 294.695312 485.972656 291.824219 485.972656 288.289062 C 485.972656 284.75 488.839844 281.882812 492.378906 281.882812 C 495.914062 281.882812 498.785156 284.75 498.785156 288.289062 Z M 498.785156 288.289062 "/>
<path style=" stroke:none;fill-rule:nonzero;fill:rgb(100%,100%,100%);fill-opacity:1;" d="M 473.617188 168.878906 C 478.164062 185.660156 470.277344 203.324219 454.746094 211.144531 C 439.214844 218.96875 420.328125 214.785156 409.550781 201.136719 C 415.636719 202.761719 422.042969 202.761719 428.128906 201.136719 C 440.144531 198 449.746094 188.984375 453.636719 177.195312 C 457.527344 165.402344 455.179688 152.445312 447.394531 142.769531 C 460.214844 146.089844 470.242188 156.074219 473.617188 168.878906 Z M 473.617188 168.878906 "/>
<path style=" stroke:none;fill-rule:nonzero;fill:rgb(14.901961%,19.607843%,21.960784%);fill-opacity:1;" d="M 896.4375 157.871094 C 849.144531 136.296875 828.257812 180.59375 828.257812 180.59375 L 895.914062 192.902344 Z M 896.4375 157.871094 "/>
<path style=" stroke:none;fill-rule:nonzero;fill:rgb(14.901961%,19.607843%,21.960784%);fill-opacity:1;" d="M 919.363281 203.929688 C 908.085938 254.675781 860.128906 244.679688 860.128906 244.679688 L 891.085938 183.269531 Z M 919.363281 203.929688 "/>
<path style=" stroke:none;fill-rule:nonzero;fill:rgb(14.901961%,19.607843%,21.960784%);fill-opacity:1;" d="M 1009.464844 130.414062 C 938.835938 118.152344 857.335938 172.882812 857.335938 172.882812 L 846.558594 211.457031 L 883.878906 226.144531 C 883.878906 226.144531 976.679688 194.089844 1009.464844 130.414062 Z M 1009.464844 130.414062 "/>
<path style=" stroke:none;fill-rule:nonzero;fill:rgb(14.901961%,19.607843%,21.960784%);fill-opacity:1;" d="M 865.230469 178.832031 C 814.480469 183.40625 808.578125 213.148438 808.578125 213.148438 L 873.46875 193.152344 Z M 865.230469 178.832031 "/>
<path style=" stroke:none;fill-rule:nonzero;fill:rgb(14.901961%,19.607843%,21.960784%);fill-opacity:1;" d="M 883.832031 216.214844 C 849.671875 254.015625 822.375 240.789062 822.375 240.789062 L 877.449219 201.070312 Z M 883.832031 216.214844 "/>
<path style=" stroke:none;fill-rule:nonzero;fill:rgb(100%,100%,100%);fill-opacity:1;" d="M 928.5625 193.726562 C 918.382812 198.742188 906.058594 194.578125 901.015625 184.410156 C 895.96875 174.242188 900.097656 161.910156 910.25 156.835938 C 920.402344 151.761719 932.746094 155.855469 937.851562 165.996094 C 942.925781 176.21875 938.773438 188.621094 928.5625 193.726562 Z M 928.5625 193.726562 "/>
<use xlink:href="#surface29" mask="url(#mask8)"/>
<use xlink:href="#surface32" mask="url(#mask9)"/>
<use xlink:href="#surface35" mask="url(#mask10)"/>
<use xlink:href="#surface38" mask="url(#mask11)"/>
<use xlink:href="#surface41" mask="url(#mask12)"/>
<use xlink:href="#surface44" mask="url(#mask13)"/>
<use xlink:href="#surface47" mask="url(#mask14)"/>
<use xlink:href="#surface50" mask="url(#mask15)"/>
<use xlink:href="#surface53" mask="url(#mask16)"/>
<use xlink:href="#surface56" mask="url(#mask17)"/>
<use xlink:href="#surface59" mask="url(#mask18)"/>
<use xlink:href="#surface62" mask="url(#mask19)"/>
<path style=" stroke:none;fill-rule:nonzero;fill:rgb(14.901961%,19.607843%,21.960784%);fill-opacity:1;" d="M 742.5 436.046875 C 744.949219 430.601562 770.691406 436.894531 799.929688 450.140625 C 829.171875 463.386719 850.90625 478.511719 848.4375 483.957031 L 879.234375 497.867188 C 883.121094 489.265625 848.800781 465.332031 802.515625 444.398438 C 756.230469 423.464844 715.570312 413.53125 711.726562 422.136719 Z M 742.5 436.046875 "/>
<use xlink:href="#surface65" mask="url(#mask20)"/>
<path style=" stroke:none;fill-rule:nonzero;fill:rgb(14.901961%,19.607843%,21.960784%);fill-opacity:1;" d="M 815.671875 420.195312 C 837.628906 431.347656 846.386719 458.191406 835.234375 480.148438 C 824.078125 502.105469 797.238281 510.863281 775.28125 499.710938 C 753.320312 488.554688 744.5625 461.714844 755.71875 439.757812 C 766.871094 417.796875 793.714844 409.039062 815.671875 420.195312 Z M 815.671875 420.195312 "/>
<use xlink:href="#surface68" mask="url(#mask21)"/>
<use xlink:href="#surface71" mask="url(#mask22)"/>
<use xlink:href="#surface74" mask="url(#mask23)"/>
<use xlink:href="#surface77" mask="url(#mask24)"/>
<use xlink:href="#surface80" mask="url(#mask25)"/>
<path style=" stroke:none;fill-rule:nonzero;fill:rgb(14.901961%,19.607843%,21.960784%);fill-opacity:1;" d="M 742.5 436.046875 C 740.03125 441.492188 761.742188 456.640625 791.007812 469.886719 C 820.269531 483.132812 845.917969 489.402344 848.4375 483.957031 L 879.234375 497.867188 C 875.34375 506.496094 834.683594 496.519531 788.421875 475.605469 C 742.160156 454.695312 707.839844 430.761719 711.726562 422.136719 Z M 742.5 436.046875 "/>
<path style=" stroke:none;fill-rule:nonzero;fill:rgb(14.901961%,19.607843%,21.960784%);fill-opacity:1;" d="M 522.417969 458.261719 C 521.503906 476.566406 545.664062 495.511719 559.277344 495.765625 C 565.40625 496.105469 571.277344 493.265625 574.820312 488.253906 C 578.363281 483.242188 579.078125 476.761719 576.714844 471.097656 C 565.683594 482.835938 545.984375 470.09375 538.113281 458.765625 C 530.242188 447.441406 523.242188 442.179688 522.417969 458.261719 Z M 522.417969 458.261719 "/>
<path style=" stroke:none;fill-rule:nonzero;fill:rgb(14.901961%,19.607843%,21.960784%);fill-opacity:1;" d="M 579.527344 487.9375 C 564.792969 491.050781 553.878906 474.78125 549.507812 463.730469 L 557.953125 495.765625 C 569.710938 500.089844 577.835938 499.585938 579.527344 487.9375 Z M 579.527344 487.9375 "/>
<path style=" stroke:none;fill-rule:nonzero;fill:rgb(14.901961%,19.607843%,21.960784%);fill-opacity:1;" d="M 480.960938 807.664062 C 483.371094 792.734375 496.046875 781.625 511.160156 781.191406 L 537.679688 781.191406 L 559.53125 625.171875 C 561.574219 612.164062 572.566406 602.441406 585.726562 601.996094 L 700.929688 601.996094 C 706.824219 601.832031 712.480469 604.335938 716.320312 608.8125 C 720.160156 613.285156 721.777344 619.257812 720.71875 625.058594 L 700.675781 768.769531 C 697.589844 790.871094 677.15625 808.761719 655.078125 808.761719 L 480.800781 808.761719 Z M 480.960938 807.664062 "/>
<path style=" stroke:none;fill-rule:nonzero;fill:rgb(87.843137%,87.843137%,87.843137%);fill-opacity:1;" d="M 635.195312 953.15625 L 658.28125 953.15625 L 654.6875 808.761719 L 638.765625 808.761719 Z M 635.195312 953.15625 "/>
<use xlink:href="#surface83" mask="url(#mask26)"/>
<path style=" stroke:none;fill-rule:nonzero;fill:rgb(87.843137%,87.843137%,87.843137%);fill-opacity:1;" d="M 583.1875 953.15625 L 606.273438 953.15625 L 602.683594 808.761719 L 586.757812 808.761719 Z M 583.1875 953.15625 "/>
<use xlink:href="#surface86" mask="url(#mask27)"/>
<path style=" stroke:none;fill-rule:nonzero;fill:rgb(87.843137%,87.843137%,87.843137%);fill-opacity:1;" d="M 545.300781 953.15625 L 568.40625 953.15625 L 564.816406 808.761719 L 548.890625 808.761719 Z M 545.300781 953.15625 "/>
<use xlink:href="#surface89" mask="url(#mask28)"/>
<path style=" stroke:none;fill-rule:nonzero;fill:rgb(87.843137%,87.843137%,87.843137%);fill-opacity:1;" d="M 493.292969 953.15625 L 516.402344 953.15625 L 512.808594 808.761719 L 496.886719 808.761719 Z M 493.292969 953.15625 "/>
<use xlink:href="#surface92" mask="url(#mask29)"/>
<path style=" stroke:none;fill-rule:nonzero;fill:rgb(14.901961%,19.607843%,21.960784%);fill-opacity:1;" d="M 505.96875 495.03125 C 484.027344 496.335938 481.441406 470.183594 488.695312 460.003906 C 496.121094 466.800781 504.433594 472.566406 513.40625 477.140625 C 507.9375 499.425781 505.96875 495.03125 505.96875 495.03125 Z M 505.96875 495.03125 "/>
<path style=" stroke:none;fill-rule:nonzero;fill:rgb(100%,54.509804%,48.235294%);fill-opacity:1;" d="M 554.152344 598.449219 C 552.300781 602.660156 550.378906 608.472656 548.042969 615.289062 C 546.878906 618.722656 545.480469 622.382812 543.789062 626.339844 C 541.957031 630.703125 539.722656 634.886719 537.109375 638.832031 C 533.96875 643.578125 530.109375 647.808594 525.667969 651.371094 C 520.96875 655.0625 515.644531 657.882812 509.949219 659.699219 C 504.871094 661.296875 499.597656 662.179688 494.277344 662.332031 C 489.683594 662.394531 485.09375 662.089844 480.546875 661.414062 L 479.40625 661.253906 C 474.101562 660.511719 469.367188 657.527344 466.410156 653.0625 C 464.890625 650.753906 463.679688 648.253906 462.816406 645.628906 C 462.148438 643.5625 461.667969 641.441406 461.375 639.289062 C 460.925781 635.960938 460.855469 632.589844 461.167969 629.246094 C 461.675781 624.03125 462.664062 618.878906 464.121094 613.847656 C 466.699219 605.175781 469.960938 596.722656 473.867188 588.566406 C 477.597656 580.695312 481.625 573.144531 485.949219 565.683594 C 490.273438 558.226562 494.757812 551.269531 499.882812 544.222656 C 503.023438 539.898438 508.84375 538.503906 513.609375 540.929688 C 518.371094 543.355469 520.660156 548.886719 519.011719 553.96875 L 519.011719 554.289062 C 516.539062 561.820312 513.886719 569.574219 511.460938 577.171875 C 509.035156 584.765625 506.632812 592.386719 504.59375 599.914062 C 502.535156 607.0625 500.914062 614.328125 499.746094 621.671875 C 499.265625 624.636719 499.074219 627.640625 499.171875 630.640625 C 499.1875 631.421875 499.328125 632.191406 499.585938 632.929688 C 499.585938 633.066406 499.585938 632.929688 499.585938 632.5625 C 499.410156 631.871094 499.113281 631.210938 498.714844 630.617188 L 484.597656 622.335938 C 486.945312 622.398438 489.296875 622.261719 491.621094 621.925781 C 493.203125 621.660156 494.742188 621.191406 496.199219 620.527344 C 497.078125 620.101562 497.859375 619.496094 498.488281 618.742188 C 499.386719 617.808594 500.15625 616.753906 500.773438 615.609375 C 501.796875 613.648438 502.707031 611.632812 503.496094 609.570312 C 504.480469 607.121094 505.394531 604.238281 506.472656 601.101562 C 508.765625 593.542969 511.675781 586.179688 515.167969 579.09375 C 520.59375 568.734375 533.242188 564.527344 543.792969 569.574219 C 554.34375 574.617188 559.011719 587.101562 554.359375 597.832031 Z M 554.152344 598.449219 "/>
<path style=" stroke:none;fill-rule:nonzero;fill:rgb(100%,54.509804%,48.235294%);fill-opacity:1;" d="M 487.914062 527.246094 L 488.488281 529.398438 C 490.503906 537.035156 494.441406 544.03125 499.929688 549.714844 L 501.851562 551.726562 C 505.121094 554.941406 509.84375 556.183594 514.273438 555 C 522.007812 553.148438 527.382812 545.847656 525.941406 539.351562 C 524.816406 534.949219 522.917969 530.78125 520.335938 527.039062 L 515.761719 516.8125 C 513.792969 513.191406 509.421875 511.628906 505.601562 513.175781 L 494.847656 516.628906 C 489.90625 518.210938 486.792969 522.992188 487.914062 527.246094 Z M 487.914062 527.246094 "/>
<use xlink:href="#surface95" mask="url(#mask30)"/>
<path style=" stroke:none;fill-rule:nonzero;fill:rgb(100%,54.509804%,48.235294%);fill-opacity:1;" d="M 461.695312 895.980469 C 465.242188 893.464844 486.632812 891.929688 486.632812 891.929688 C 490.4375 907.945312 493.28125 924.175781 495.144531 940.527344 L 468.054688 937.210938 C 468.054688 937.210938 466.433594 910.1875 461.695312 895.980469 Z M 461.695312 895.980469 "/>
<path style=" stroke:none;fill-rule:nonzero;fill:rgb(14.901961%,19.607843%,21.960784%);fill-opacity:1;" d="M 494.324219 893.328125 C 488.511719 850.449219 499.21875 809.105469 493.292969 782.496094 C 523.152344 787.78125 584.8125 798.671875 595.132812 756.574219 C 599.113281 740.214844 616.339844 720.308594 614.945312 711.203125 C 588.976562 711.203125 504.136719 710.242188 473.226562 716.144531 C 422.707031 725.777344 424.972656 760.578125 438.539062 819.308594 C 443.828125 842.191406 446.617188 846.21875 453.253906 876.097656 C 456.820312 892.113281 456.066406 902.136719 460.6875 912.589844 C 472.265625 920.738281 487.113281 916.960938 494.277344 913.300781 C 500.15625 907.71875 495.488281 902.113281 494.324219 893.328125 Z M 494.324219 893.328125 "/>
<use xlink:href="#surface98" mask="url(#mask31)"/>
<path style=" stroke:none;fill-rule:nonzero;fill:rgb(100%,54.509804%,48.235294%);fill-opacity:1;" d="M 557.539062 898.496094 C 559.988281 894.609375 578.886719 884.335938 578.886719 884.335938 C 587.21875 898.359375 594.691406 912.878906 601.261719 927.808594 L 575.753906 935.792969 C 575.753906 935.792969 566.121094 910.304688 557.539062 898.496094 Z M 557.539062 898.496094 "/>
<path style=" stroke:none;fill-rule:nonzero;fill:rgb(14.901961%,19.607843%,21.960784%);fill-opacity:1;" d="M 546.832031 552.828125 C 581.472656 558.042969 559.117188 623.386719 546.832031 644.070312 C 527.886719 633.570312 502.789062 627.574219 499.242188 612.175781 C 508.394531 594.695312 503.359375 546.304688 546.832031 552.828125 Z M 546.832031 552.828125 "/>
<path style=" stroke:none;fill-rule:nonzero;fill:rgb(14.901961%,19.607843%,21.960784%);fill-opacity:1;" d="M 619.246094 525.140625 C 593.277344 527.75 546.328125 540.929688 523.609375 555.730469 C 512.398438 563.054688 507.777344 577.46875 510.15625 592.339844 C 518.828125 646.792969 524.660156 675.921875 523.082031 712.804688 C 534.523438 728.246094 642.058594 740.648438 668.941406 717.378906 C 672.648438 696.789062 678.277344 644.4375 668.097656 564.929688 C 664.503906 536.855469 643.089844 522.761719 619.246094 525.140625 Z M 619.246094 525.140625 "/>
<use xlink:href="#surface101" mask="url(#mask32)"/>
<path style=" stroke:none;fill-rule:nonzero;fill:rgb(100%,54.509804%,48.235294%);fill-opacity:1;" d="M 562.847656 487.753906 C 566.347656 507.9375 576.574219 526.46875 591.105469 532.507812 C 591.105469 532.507812 578.246094 557.675781 547.632812 579.894531 C 533.058594 566.667969 534.726562 553.832031 534.726562 553.832031 C 540.058594 546.671875 543.628906 538.9375 536.421875 531.089844 Z M 562.847656 487.753906 "/>
<use xlink:href="#surface104" mask="url(#mask33)"/>
<path style=" stroke:none;fill-rule:nonzero;fill:rgb(100%,54.509804%,48.235294%);fill-opacity:1;" d="M 556.511719 469.589844 C 564.265625 491.371094 569.894531 503.65625 563.832031 519.925781 C 554.679688 544.359375 524.316406 547.882812 510.222656 529.351562 C 497.527344 512.648438 486.976562 479.839844 504.160156 460.941406 C 521.34375 442.042969 548.753906 447.808594 556.511719 469.589844 Z M 556.511719 469.589844 "/>
<path style=" stroke:none;fill-rule:nonzero;fill:rgb(14.901961%,19.607843%,21.960784%);fill-opacity:1;" d="M 533.972656 464.648438 C 530.792969 476.566406 550.195312 481.625 548.523438 495.375 C 558.339844 494.734375 566.394531 487.230469 569.390625 476.019531 C 572.390625 464.808594 562.894531 442.085938 548.800781 451.558594 C 539.007812 453.664062 536.148438 456.457031 533.972656 464.648438 Z M 533.972656 464.648438 "/>
<path style=" stroke:none;fill-rule:nonzero;fill:rgb(14.901961%,19.607843%,21.960784%);fill-opacity:1;" d="M 530.039062 498.96875 C 530.65625 500.75 530.222656 502.535156 529.054688 502.949219 C 527.886719 503.359375 526.421875 502.238281 525.78125 500.453125 C 525.140625 498.667969 525.597656 496.886719 526.765625 496.449219 C 527.933594 496.015625 529.398438 497.160156 530.039062 498.96875 Z M 530.039062 498.96875 "/>
<path style=" stroke:none;fill-rule:nonzero;fill:rgb(14.901961%,19.607843%,21.960784%);fill-opacity:1;" d="M 509.261719 508.597656 C 509.878906 510.382812 509.445312 512.167969 508.277344 512.582031 C 507.113281 512.992188 505.648438 511.871094 505.007812 510.085938 C 504.367188 508.300781 504.824219 506.515625 505.992188 506.105469 C 507.15625 505.695312 508.621094 506.792969 509.261719 508.597656 Z M 509.261719 508.597656 "/>
<path style=" stroke:none;fill-rule:nonzero;fill:rgb(14.901961%,19.607843%,21.960784%);fill-opacity:1;" d="M 537.472656 522.714844 C 536.636719 523.375 535.738281 523.957031 534.796875 524.457031 C 534.667969 524.527344 534.511719 524.542969 534.371094 524.5 C 534.230469 524.457031 534.109375 524.359375 534.042969 524.226562 C 533.960938 524.097656 533.941406 523.941406 533.984375 523.796875 C 534.03125 523.652344 534.132812 523.535156 534.269531 523.472656 C 538.523438 521.296875 541.492188 517.226562 542.257812 512.511719 C 542.292969 512.203125 542.566406 511.980469 542.875 512.007812 C 543.019531 512.019531 543.15625 512.089844 543.25 512.203125 C 543.34375 512.3125 543.390625 512.457031 543.378906 512.605469 C 542.800781 516.613281 540.683594 520.242188 537.472656 522.714844 Z M 537.472656 522.714844 "/>
<path style=" stroke:none;fill-rule:nonzero;fill:rgb(14.901961%,19.607843%,21.960784%);fill-opacity:1;" d="M 529.464844 487.734375 C 529.167969 487.808594 528.851562 487.75 528.597656 487.574219 C 526.292969 485.910156 523.332031 485.453125 520.632812 486.335938 C 520.066406 486.574219 519.410156 486.308594 519.171875 485.742188 C 519.050781 485.46875 519.042969 485.160156 519.15625 484.882812 C 519.269531 484.609375 519.488281 484.390625 519.765625 484.277344 C 523.164062 483.105469 526.921875 483.640625 529.855469 485.71875 C 530.367188 486.066406 530.5 486.761719 530.152344 487.273438 C 529.996094 487.515625 529.746094 487.679688 529.464844 487.734375 Z M 529.464844 487.734375 "/>
<path style=" stroke:none;fill-rule:nonzero;fill:rgb(14.901961%,19.607843%,21.960784%);fill-opacity:1;" d="M 503.75 497.730469 C 504.015625 497.628906 504.308594 497.628906 504.574219 497.730469 C 504.847656 497.839844 505.066406 498.050781 505.183594 498.324219 C 505.300781 498.59375 505.300781 498.898438 505.191406 499.171875 C 503.941406 502.539062 501.148438 505.09375 497.6875 506.035156 C 497.394531 506.097656 497.089844 506.039062 496.84375 505.878906 C 496.59375 505.714844 496.417969 505.457031 496.359375 505.167969 C 496.246094 504.5625 496.628906 503.976562 497.226562 503.839844 C 499.972656 503.078125 502.171875 501.03125 503.132812 498.347656 C 503.246094 498.070312 503.46875 497.847656 503.75 497.730469 Z M 503.75 497.730469 "/>
<path style=" stroke:none;fill-rule:nonzero;fill:rgb(100%,33.72549%,32.156863%);fill-opacity:1;" d="M 515.007812 502.8125 C 515.007812 502.8125 517.292969 514.25 516.265625 521.113281 C 520.839844 521.914062 524.707031 517.683594 524.707031 517.683594 Z M 515.007812 502.8125 "/>
<path style=" stroke:none;fill-rule:nonzero;fill:rgb(100%,54.509804%,48.235294%);fill-opacity:1;" d="M 662.398438 556.691406 C 663.773438 560.628906 664.871094 564.082031 665.945312 567.789062 C 667.019531 571.496094 668.003906 575.113281 668.988281 578.796875 C 670.839844 586.164062 672.535156 593.621094 673.863281 601.285156 C 674.523438 605.105469 675.144531 608.953125 675.667969 612.886719 C 676.195312 616.820312 676.5625 620.824219 676.835938 624.921875 C 677.109375 629.015625 677.292969 633.226562 677.132812 637.664062 C 677.042969 642.5 676.53125 647.3125 675.601562 652.058594 L 675.371094 653.199219 C 674.828125 655.828125 673.703125 658.296875 672.078125 660.429688 C 669.664062 663.527344 666.757812 666.203125 663.472656 668.347656 C 660.742188 670.125 657.796875 671.554688 654.710938 672.601562 C 649.804688 674.21875 644.703125 675.15625 639.542969 675.394531 C 635.214844 675.628906 630.875 675.515625 626.570312 675.050781 C 622.449219 674.640625 618.515625 674.066406 614.671875 673.3125 C 607.195312 671.804688 599.828125 669.800781 592.613281 667.316406 C 585.5 664.90625 578.546875 662.050781 571.792969 658.761719 C 567.117188 656.421875 564.761719 651.09375 566.179688 646.0625 C 567.601562 641.027344 572.398438 637.714844 577.605469 638.167969 L 578.175781 638.167969 C 584.722656 638.785156 591.699219 639.542969 598.378906 640 C 605.0625 640.457031 611.71875 640.824219 618.082031 640.753906 C 623.898438 640.835938 629.710938 640.316406 635.421875 639.199219 C 637.328125 638.859375 639.160156 638.203125 640.847656 637.253906 C 641.328125 636.910156 641.507812 636.636719 641.417969 636.613281 C 641.328125 636.589844 640.867188 636.75 640.410156 637.230469 L 636.886719 645.605469 C 636.980469 643.15625 636.910156 640.703125 636.683594 638.261719 C 636.382812 635.421875 636.085938 632.378906 635.582031 629.269531 C 634.578125 623 633.296875 616.457031 631.671875 609.84375 C 630.046875 603.230469 628.421875 596.574219 626.570312 589.914062 L 621.054688 570.101562 L 620.917969 569.597656 C 617.792969 558.292969 624.203125 546.546875 635.402344 543.054688 C 646.601562 539.566406 658.546875 545.589844 662.398438 556.671875 Z M 662.398438 556.691406 "/>
<path style=" stroke:none;fill-rule:nonzero;fill:rgb(14.901961%,19.607843%,21.960784%);fill-opacity:1;" d="M 533.789062 657.617188 C 532.808594 657.625 531.933594 657.003906 531.613281 656.078125 C 531.292969 655.152344 531.597656 654.121094 532.371094 653.519531 L 586.300781 611.71875 C 586.78125 611.34375 587.394531 611.175781 588 611.253906 C 588.605469 611.328125 589.15625 611.644531 589.527344 612.132812 C 590.292969 613.128906 590.109375 614.5625 589.113281 615.335938 L 535.1875 657.136719 C 534.785156 657.445312 534.296875 657.617188 533.789062 657.617188 Z M 533.789062 657.617188 "/>
<path style=" stroke:none;fill-rule:nonzero;fill:rgb(100%,54.509804%,48.235294%);fill-opacity:1;" d="M 554.65625 635.332031 L 563.601562 634.460938 C 567.109375 634.113281 570.644531 634.667969 573.875 636.0625 L 582.84375 639.976562 C 587.226562 642.15625 589.914062 646.710938 589.710938 651.597656 C 589.710938 658.945312 584.835938 665.671875 578.496094 666.5625 C 573.96875 667.039062 569.390625 666.714844 564.976562 665.601562 L 553.695312 664.824219 C 549.636719 664.300781 546.683594 660.714844 546.945312 656.632812 L 546.742188 645.421875 C 546.460938 640.546875 549.855469 636.222656 554.65625 635.332031 Z M 554.65625 635.332031 "/>
<path style=" stroke:none;fill-rule:nonzero;fill:rgb(14.901961%,19.607843%,21.960784%);fill-opacity:1;" d="M 588.175781 869.050781 C 569.710938 830.542969 581.496094 827.113281 564.882812 790.503906 C 593.894531 793.546875 645.949219 796.0625 663.453125 757.921875 C 670.476562 742.617188 668.988281 724.929688 668.941406 717.402344 C 649.035156 706.695312 585.246094 709.601562 554.542969 716.234375 C 504.207031 727.082031 481.441406 736.828125 501.917969 798.605469 C 508.644531 818.898438 518.117188 837.246094 538.160156 869.691406 C 546.808594 883.671875 551.292969 905.5 559.574219 913.390625 C 567.628906 920.140625 575.59375 906.09375 591.882812 907.945312 C 598.769531 897.742188 591.996094 877.035156 588.175781 869.050781 Z M 588.175781 869.050781 "/>
<use xlink:href="#surface107" mask="url(#mask34)"/>
<path style=" stroke:none;fill-rule:nonzero;fill:rgb(14.901961%,19.607843%,21.960784%);fill-opacity:1;" d="M 603.046875 919.5 C 597.464844 916.183594 580.167969 924.214844 580.167969 924.214844 C 579.867188 922.003906 579.089844 919.886719 577.878906 918.015625 C 575.753906 914.214844 565.160156 918.199219 561.863281 922.910156 C 558.570312 927.625 568.246094 929.890625 568.246094 929.890625 C 563.101562 940.320312 566.484375 945.90625 550.789062 950.113281 C 547.519531 950.984375 548.707031 957.847656 556.488281 957.960938 C 569.390625 958.144531 568.292969 953.59375 578.839844 950.527344 C 587.855469 947.894531 599.433594 944.667969 608.722656 941.808594 C 609.523438 941.632812 610.214844 941.132812 610.628906 940.421875 C 611.042969 939.714844 611.140625 938.863281 610.894531 938.078125 Z M 603.046875 919.5 "/>
<path style=" stroke:none;fill-rule:nonzero;fill:rgb(14.901961%,19.607843%,21.960784%);fill-opacity:1;" d="M 496.929688 934.761719 C 492.582031 929.957031 473.730469 932.589844 473.730469 932.589844 C 474.105469 930.402344 474.003906 928.164062 473.433594 926.023438 C 472.519531 921.742188 461.214844 922.476562 456.730469 926.023438 C 452.246094 929.570312 460.78125 934.554688 460.78125 934.554688 C 452.816406 943.023438 451.332031 945.996094 435.613281 950.113281 C 432.339844 950.984375 433.507812 957.847656 441.308594 957.960938 C 454.191406 958.144531 453.871094 957.230469 464.851562 957.390625 C 474.257812 957.527344 486.246094 957.824219 495.96875 957.824219 C 496.792969 957.871094 497.59375 957.570312 498.1875 956.996094 C 498.777344 956.421875 499.101562 955.628906 499.082031 954.804688 Z M 496.929688 934.761719 "/>
<path style=" stroke:none;fill-rule:nonzero;fill:rgb(14.901961%,19.607843%,21.960784%);fill-opacity:1;" d="M 605.425781 675.921875 L 344.253906 675.921875 L 344.253906 657.570312 L 605.425781 657.570312 Z M 605.425781 675.921875 "/>
<use xlink:href="#surface110" mask="url(#mask35)"/>
<path style=" stroke:none;fill-rule:nonzero;fill:rgb(87.843137%,87.843137%,87.843137%);fill-opacity:1;" d="M 463.160156 961.347656 L 486.519531 961.347656 L 480.457031 675.921875 L 469.222656 675.921875 Z M 463.160156 961.347656 "/>
<use xlink:href="#surface113" mask="url(#mask36)"/>
<path style=" stroke:none;fill-rule:nonzero;fill:rgb(14.901961%,19.607843%,21.960784%);fill-opacity:1;" d="M 474.898438 646.175781 C 467.277344 648.257812 417.308594 654.183594 394.816406 648.464844 C 399.964844 651.898438 417.878906 657.617188 433.507812 657.617188 L 554.953125 657.617188 C 554.953125 657.617188 567.5625 657.617188 570.421875 654.230469 C 553.261719 655.902344 485.949219 653.796875 474.898438 646.175781 Z M 474.898438 646.175781 "/>
<use xlink:href="#surface116" mask="url(#mask37)"/>
<path style=" stroke:none;fill-rule:nonzero;fill:rgb(14.901961%,19.607843%,21.960784%);fill-opacity:1;" d="M 623.867188 524.890625 C 669.101562 524.523438 665.234375 561.5 675.464844 587.328125 C 658.417969 614.03125 621.582031 615.976562 621.582031 615.976562 C 621.582031 615.976562 574.289062 525.300781 623.867188 524.890625 Z M 623.867188 524.890625 "/>
<path style=" stroke:none;fill-rule:nonzero;fill:rgb(100%,54.509804%,48.235294%);fill-opacity:1;" d="M 573.097656 489.082031 C 573.691406 494.585938 571.84375 500.070312 568.042969 504.09375 C 563.167969 508.828125 556.601562 503.703125 554.679688 496.105469 C 552.871094 489.242188 553.214844 478.582031 559.734375 476.84375 C 566.257812 475.101562 572.550781 481.738281 573.097656 489.082031 Z M 573.097656 489.082031 "/>
<path style=" stroke:none;fill-rule:nonzero;fill:rgb(14.901961%,19.607843%,21.960784%);fill-opacity:1;" d="M 537.679688 467.875 C 528.34375 483.570312 497.707031 486.015625 486.222656 478.695312 C 475.125 471.625 474.964844 454.878906 486.222656 446.664062 C 488.921875 462.566406 511.597656 464.691406 524.433594 459.613281 C 537.269531 454.535156 545.984375 454.03125 537.679688 467.875 Z M 537.679688 467.875 "/>
<path style=" stroke:none;fill-rule:nonzero;fill:rgb(14.901961%,19.607843%,21.960784%);fill-opacity:1;" d="M 529.992188 463.707031 C 514.640625 445.589844 528.847656 426.710938 546.96875 427.285156 C 535.414062 441.308594 543.421875 450.300781 550.195312 451.878906 C 540.859375 465.058594 529.992188 463.707031 529.992188 463.707031 Z M 529.992188 463.707031 "/>
<path style=" stroke:none;fill-rule:nonzero;fill:rgb(14.901961%,19.607843%,21.960784%);fill-opacity:1;" d="M 524.707031 478.511719 C 504.503906 488.992188 478.078125 484.917969 474.898438 474.621094 C 485.011719 478.398438 495.71875 474.78125 496.679688 470.757812 C 504.480469 476.339844 524.707031 478.511719 524.707031 478.511719 Z M 524.707031 478.511719 "/>
<path style=" stroke:none;fill-rule:nonzero;fill:rgb(14.901961%,19.607843%,21.960784%);fill-opacity:1;" d="M 548.777344 451.558594 C 557.082031 444.261719 571.472656 453.480469 573.371094 461.695312 C 565.683594 458.195312 561.453125 462.496094 560.789062 465.652344 C 554.566406 461.421875 548.777344 451.558594 548.777344 451.558594 Z M 548.777344 451.558594 "/>
<path style=" stroke:none;fill-rule:nonzero;fill:rgb(14.901961%,19.607843%,21.960784%);fill-opacity:1;" d="M 498.167969 464.121094 C 488.214844 450.394531 496.40625 430.210938 514.023438 426.667969 C 508.78125 435.816406 527.382812 448.402344 535.277344 443.78125 C 543.765625 463.410156 536.167969 468.695312 521.777344 472.816406 C 511.046875 475.902344 501.644531 468.855469 498.167969 464.121094 Z M 498.167969 464.121094 "/>
<path style=" stroke:none;fill-rule:nonzero;fill:rgb(14.901961%,19.607843%,21.960784%);fill-opacity:1;" d="M 531.386719 447.441406 C 535.230469 437.671875 560.539062 433.4375 566.394531 442.867188 C 557.609375 445.015625 560.8125 456.59375 559.347656 463.457031 C 557.035156 474.257812 525.417969 462.566406 531.386719 447.441406 Z M 531.386719 447.441406 "/>
<path style=" stroke:none;fill-rule:nonzero;fill:rgb(100%,54.509804%,48.235294%);fill-opacity:1;" d="M 575.84375 500.75 C 574.148438 499.078125 571.621094 498.582031 569.417969 499.488281 C 567.21875 500.398438 565.773438 502.535156 565.753906 504.914062 C 565.765625 508.179688 568.414062 510.820312 571.679688 510.820312 C 574.070312 510.832031 576.234375 509.398438 577.148438 507.1875 C 578.0625 504.976562 577.546875 502.429688 575.84375 500.75 Z M 571.679688 507.84375 C 570.492188 507.855469 569.417969 507.144531 568.957031 506.050781 C 568.496094 504.957031 568.742188 503.695312 569.578125 502.851562 C 570.414062 502.011719 571.675781 501.757812 572.773438 502.207031 C 573.871094 502.660156 574.585938 503.730469 574.585938 504.914062 C 574.605469 505.703125 574.308594 506.464844 573.761719 507.03125 C 573.214844 507.597656 572.464844 507.925781 571.679688 507.9375 Z M 571.679688 507.84375 "/>
<path style=" stroke:none;fill-rule:nonzero;fill:rgb(14.901961%,19.607843%,21.960784%);fill-opacity:1;" d="M 574.792969 501.804688 C 573.308594 500.34375 571 500.132812 569.277344 501.300781 C 567.550781 502.464844 566.890625 504.6875 567.695312 506.609375 C 568.5 508.527344 570.546875 509.613281 572.589844 509.203125 C 574.628906 508.792969 576.097656 506.996094 576.09375 504.914062 C 576.09375 503.746094 575.621094 502.625 574.792969 501.804688 Z M 571.679688 507.9375 C 570.492188 507.945312 569.417969 507.238281 568.957031 506.144531 C 568.496094 505.050781 568.742188 503.785156 569.578125 502.945312 C 570.414062 502.101562 571.675781 501.847656 572.773438 502.300781 C 573.871094 502.75 574.585938 503.820312 574.585938 505.007812 C 574.574219 506.609375 573.28125 507.910156 571.679688 507.9375 Z M 571.679688 507.9375 "/>
</g>
</svg>
