<?xml version="1.0" encoding="UTF-8"?>
<svg xmlns="http://www.w3.org/2000/svg" xmlns:xlink="http://www.w3.org/1999/xlink" width="1144pt" height="1144pt" viewBox="0 0 1144 1144" version="1.1">
<defs>
<filter id="alpha" filterUnits="objectBoundingBox" x="0%" y="0%" width="100%" height="100%">
  <feColorMatrix type="matrix" in="SourceGraphic" values="0 0 0 0 1 0 0 0 0 1 0 0 0 0 1 0 0 0 1 0"/>
</filter>
<mask id="mask0">
  <g filter="url(#alpha)">
<rect x="0" y="0" width="1144" height="1144" style="fill:rgb(0%,0%,0%);fill-opacity:0.301961;stroke:none;"/>
  </g>
</mask>
<clipPath id="clip1">
  <rect x="0" y="0" width="1144" height="1144"/>
</clipPath>
<g id="surface5" clip-path="url(#clip1)">
<path style=" stroke:none;fill-rule:nonzero;fill:rgb(100%,100%,100%);fill-opacity:1;" d="M 190.382812 657.296875 L 229.96875 657.296875 L 229.96875 696.878906 L 190.382812 696.878906 Z M 190.382812 657.296875 "/>
</g>
<mask id="mask1">
  <g filter="url(#alpha)">
<rect x="0" y="0" width="1144" height="1144" style="fill:rgb(0%,0%,0%);fill-opacity:0.701961;stroke:none;"/>
  </g>
</mask>
<clipPath id="clip2">
  <rect x="0" y="0" width="1144" height="1144"/>
</clipPath>
<g id="surface8" clip-path="url(#clip2)">
<path style=" stroke:none;fill-rule:nonzero;fill:rgb(100%,100%,100%);fill-opacity:1;" d="M 163.570312 453.023438 C 163.796875 471.96875 171.78125 491.921875 188.28125 501.324219 C 193.210938 504.089844 198.667969 505.796875 204.296875 506.335938 C 222.257812 508.050781 240.101562 496.839844 248.660156 480.9375 C 257.21875 465.035156 257.21875 445.40625 251.246094 428.3125 C 245.273438 411.222656 218.9375 370.726562 197.636719 384.839844 C 176.335938 398.957031 163.273438 427.855469 163.570312 453.023438 Z M 163.570312 453.023438 "/>
</g>
<mask id="mask2">
  <g filter="url(#alpha)">
<rect x="0" y="0" width="1144" height="1144" style="fill:rgb(0%,0%,0%);fill-opacity:0.301961;stroke:none;"/>
  </g>
</mask>
<clipPath id="clip3">
  <rect x="0" y="0" width="1144" height="1144"/>
</clipPath>
<g id="surface11" clip-path="url(#clip3)">
<path style=" stroke:none;fill-rule:nonzero;fill:rgb(100%,100%,100%);fill-opacity:1;" d="M 251.542969 253.257812 L 158.488281 253.257812 L 166.65625 219.28125 L 243.351562 219.28125 Z M 251.542969 253.257812 "/>
</g>
<mask id="mask3">
  <g filter="url(#alpha)">
<rect x="0" y="0" width="1144" height="1144" style="fill:rgb(0%,0%,0%);fill-opacity:0.301961;stroke:none;"/>
  </g>
</mask>
<clipPath id="clip4">
  <rect x="0" y="0" width="1144" height="1144"/>
</clipPath>
<g id="surface14" clip-path="url(#clip4)">
<path style=" stroke:none;fill-rule:nonzero;fill:rgb(100%,100%,100%);fill-opacity:1;" d="M 866.304688 164.1875 L 966.40625 164.1875 L 966.40625 264.285156 L 866.304688 264.285156 Z M 866.304688 164.1875 "/>
</g>
<mask id="mask4">
  <g filter="url(#alpha)">
<rect x="0" y="0" width="1144" height="1144" style="fill:rgb(0%,0%,0%);fill-opacity:0.301961;stroke:none;"/>
  </g>
</mask>
<clipPath id="clip5">
  <rect x="0" y="0" width="1144" height="1144"/>
</clipPath>
<g id="surface17" clip-path="url(#clip5)">
<path style=" stroke:none;fill-rule:nonzero;fill:rgb(100%,100%,100%);fill-opacity:1;" d="M 947.851562 429 L 959.425781 429 C 949.566406 439.273438 935.355469 449.410156 921.859375 459.660156 L 912.707031 466.386719 L 912.5 466.523438 L 903.578125 459.0625 C 892.136719 449.203125 880.171875 438.90625 871.683594 428.679688 L 888.863281 428.679688 L 896.394531 402.847656 L 907.625 452.359375 L 918.082031 427.007812 L 924.605469 441.148438 L 932.269531 416.414062 L 940.824219 440.578125 Z M 947.851562 429 "/>
</g>
<mask id="mask5">
  <g filter="url(#alpha)">
<rect x="0" y="0" width="1144" height="1144" style="fill:rgb(0%,0%,0%);fill-opacity:0.301961;stroke:none;"/>
  </g>
</mask>
<clipPath id="clip6">
  <rect x="0" y="0" width="1144" height="1144"/>
</clipPath>
<g id="surface20" clip-path="url(#clip6)">
<path style=" stroke:none;fill-rule:nonzero;fill:rgb(100%,100%,100%);fill-opacity:1;" d="M 924.464844 598.65625 L 924.464844 608.105469 C 921.917969 607.785156 919.347656 607.625 916.777344 607.625 C 913.8125 607.613281 910.855469 607.832031 907.925781 608.289062 L 907.925781 598.65625 Z M 924.464844 598.65625 "/>
</g>
<mask id="mask6">
  <g filter="url(#alpha)">
<rect x="0" y="0" width="1144" height="1144" style="fill:rgb(0%,0%,0%);fill-opacity:0.301961;stroke:none;"/>
  </g>
</mask>
<clipPath id="clip7">
  <rect x="0" y="0" width="1144" height="1144"/>
</clipPath>
<g id="surface23" clip-path="url(#clip7)">
<path style=" stroke:none;fill-rule:nonzero;fill:rgb(100%,100%,100%);fill-opacity:1;" d="M 924.464844 689.03125 L 924.464844 697.976562 L 907.925781 697.976562 L 907.925781 689.648438 C 909.953125 689.851562 911.992188 689.949219 914.03125 689.945312 C 917.53125 689.964844 921.023438 689.660156 924.464844 689.03125 Z M 924.464844 689.03125 "/>
</g>
<mask id="mask7">
  <g filter="url(#alpha)">
<rect x="0" y="0" width="1144" height="1144" style="fill:rgb(0%,0%,0%);fill-opacity:0.2;stroke:none;"/>
  </g>
</mask>
<clipPath id="clip8">
  <rect x="0" y="0" width="1144" height="1144"/>
</clipPath>
<g id="surface26" clip-path="url(#clip8)">
<path style=" stroke:none;fill-rule:nonzero;fill:rgb(0%,0%,0%);fill-opacity:1;" d="M 608.972656 834.683594 L 603.804688 861.292969 L 582.5 859.554688 L 585.15625 831.824219 Z M 608.972656 834.683594 "/>
</g>
<mask id="mask8">
  <g filter="url(#alpha)">
<rect x="0" y="0" width="1144" height="1144" style="fill:rgb(0%,0%,0%);fill-opacity:0.2;stroke:none;"/>
  </g>
</mask>
<clipPath id="clip9">
  <rect x="0" y="0" width="1144" height="1144"/>
</clipPath>
<g id="surface29" clip-path="url(#clip9)">
<path style=" stroke:none;fill-rule:nonzero;fill:rgb(0%,0%,0%);fill-opacity:1;" d="M 583.621094 459.085938 L 573.832031 485.582031 C 581.128906 521.023438 592.914062 583.28125 593.621094 646.679688 C 607.28125 595.65625 590.304688 483.613281 583.621094 459.085938 Z M 583.621094 459.085938 "/>
</g>
<mask id="mask9">
  <g filter="url(#alpha)">
<rect x="0" y="0" width="1144" height="1144" style="fill:rgb(0%,0%,0%);fill-opacity:0.2;stroke:none;"/>
  </g>
</mask>
<clipPath id="clip10">
  <rect x="0" y="0" width="1144" height="1144"/>
</clipPath>
<g id="surface32" clip-path="url(#clip10)">
<path style=" stroke:none;fill-rule:nonzero;fill:rgb(0%,0%,0%);fill-opacity:1;" d="M 515.851562 823.359375 L 538.6875 827.730469 L 533.675781 854.707031 L 511.710938 850.542969 Z M 515.851562 823.359375 "/>
</g>
<mask id="mask10">
  <g filter="url(#alpha)">
<rect x="0" y="0" width="1144" height="1144" style="fill:rgb(0%,0%,0%);fill-opacity:0.2;stroke:none;"/>
  </g>
</mask>
<clipPath id="clip11">
  <rect x="0" y="0" width="1144" height="1144"/>
</clipPath>
<g id="surface35" clip-path="url(#clip11)">
<path style=" stroke:none;fill-rule:nonzero;fill:rgb(0%,0%,0%);fill-opacity:1;" d="M 647.871094 329.839844 L 620.644531 321.050781 C 620.644531 317.40625 620.464844 313.765625 620.09375 310.136719 C 630.824219 321.832031 647.871094 329.839844 647.871094 329.839844 Z M 647.871094 329.839844 "/>
</g>
<mask id="mask11">
  <g filter="url(#alpha)">
<rect x="0" y="0" width="1144" height="1144" style="fill:rgb(0%,0%,0%);fill-opacity:0.2;stroke:none;"/>
  </g>
</mask>
<clipPath id="clip12">
  <rect x="0" y="0" width="1144" height="1144"/>
</clipPath>
<g id="surface38" clip-path="url(#clip12)">
<path style=" stroke:none;fill-rule:nonzero;fill:rgb(0%,0%,0%);fill-opacity:1;" d="M 595.109375 278.265625 L 576.574219 311.511719 C 576.574219 311.511719 538.550781 277.582031 537.863281 277.582031 L 546.855469 277.054688 L 555.089844 283.917969 L 574.722656 300.09375 L 586.507812 277.535156 Z M 595.109375 278.265625 "/>
</g>
<mask id="mask12">
  <g filter="url(#alpha)">
<rect x="0" y="0" width="1144" height="1144" style="fill:rgb(0%,0%,0%);fill-opacity:0.2;stroke:none;"/>
  </g>
</mask>
<clipPath id="clip13">
  <rect x="0" y="0" width="1144" height="1144"/>
</clipPath>
<g id="surface41" clip-path="url(#clip13)">
<path style=" stroke:none;fill-rule:nonzero;fill:rgb(0%,0%,0%);fill-opacity:1;" d="M 512.832031 353.015625 C 512.671875 347.386719 511.480469 328.558594 510.820312 319.863281 C 513.839844 318.257812 516.765625 316.476562 519.582031 314.53125 C 521.433594 320.640625 512.96875 358.644531 512.832031 353.015625 Z M 512.832031 353.015625 "/>
</g>
<mask id="mask13">
  <g filter="url(#alpha)">
<rect x="0" y="0" width="1144" height="1144" style="fill:rgb(0%,0%,0%);fill-opacity:0.2;stroke:none;"/>
  </g>
</mask>
<clipPath id="clip14">
  <rect x="0" y="0" width="1144" height="1144"/>
</clipPath>
<g id="surface44" clip-path="url(#clip14)">
<path style=" stroke:none;fill-rule:nonzero;fill:rgb(0%,0%,0%);fill-opacity:1;" d="M 558.042969 254.175781 C 558.042969 254.175781 562.894531 273.851562 578.269531 271.792969 C 578.269531 271.792969 577.421875 272.25 575.980469 263.121094 C 575.117188 257.328125 574.949219 251.449219 575.476562 245.617188 C 575.476562 245.617188 559.074219 246.074219 558.042969 254.175781 Z M 558.042969 254.175781 "/>
</g>
<mask id="mask14">
  <g filter="url(#alpha)">
<rect x="0" y="0" width="1144" height="1144" style="fill:rgb(0%,0%,0%);fill-opacity:0.2;stroke:none;"/>
  </g>
</mask>
<clipPath id="clip15">
  <rect x="0" y="0" width="1144" height="1144"/>
</clipPath>
<g id="surface47" clip-path="url(#clip15)">
<path style=" stroke:none;fill-rule:nonzero;fill:rgb(0%,0%,0%);fill-opacity:1;" d="M 620.574219 439.777344 C 619.75 439.226562 542.78125 442.84375 520.222656 443.253906 C 512.375 443.988281 511.734375 433.53125 513.519531 432.363281 L 617.738281 431.8125 L 617.851562 431.8125 L 618.605469 430.691406 C 619.730469 432.457031 620.695312 434.316406 621.488281 436.253906 C 621.894531 437.503906 621.539062 438.878906 620.574219 439.777344 Z M 620.574219 439.777344 "/>
</g>
</defs>
<g id="surface1">
<path style=" stroke:none;fill-rule:nonzero;fill:rgb(92.156863%,92.156863%,92.156863%);fill-opacity:1;" d="M 953.59375 911.746094 L 1029.371094 911.746094 L 1029.371094 912.316406 L 953.59375 912.316406 Z M 953.59375 911.746094 "/>
<path style=" stroke:none;fill-rule:nonzero;fill:rgb(92.156863%,92.156863%,92.156863%);fill-opacity:1;" d="M 737.949219 917.96875 L 757.832031 917.96875 L 757.832031 918.539062 L 737.949219 918.539062 Z M 737.949219 917.96875 "/>
<path style=" stroke:none;fill-rule:nonzero;fill:rgb(92.156863%,92.156863%,92.156863%);fill-opacity:1;" d="M 907.398438 890.511719 L 951.304688 890.511719 L 951.304688 891.085938 L 907.398438 891.085938 Z M 907.398438 890.511719 "/>
<path style=" stroke:none;fill-rule:nonzero;fill:rgb(92.156863%,92.156863%,92.156863%);fill-opacity:1;" d="M 120.027344 894.355469 L 218.847656 894.355469 L 218.847656 894.929688 L 120.027344 894.929688 Z M 120.027344 894.355469 "/>
<path style=" stroke:none;fill-rule:nonzero;fill:rgb(92.156863%,92.156863%,92.156863%);fill-opacity:1;" d="M 239.234375 894.355469 L 253.714844 894.355469 L 253.714844 894.929688 L 239.234375 894.929688 Z M 239.234375 894.355469 "/>
<path style=" stroke:none;fill-rule:nonzero;fill:rgb(92.156863%,92.156863%,92.156863%);fill-opacity:1;" d="M 300.804688 904.011719 L 515.144531 904.011719 L 515.144531 904.582031 L 300.804688 904.582031 Z M 300.804688 904.011719 "/>
<path style=" stroke:none;fill-rule:nonzero;fill:rgb(92.156863%,92.156863%,92.156863%);fill-opacity:1;" d="M 542.257812 772.886719 L 100.464844 772.886719 C 93.257812 772.875 87.425781 767.027344 87.425781 759.820312 L 87.425781 138.789062 C 87.488281 131.628906 93.304688 125.851562 100.464844 125.839844 L 542.257812 125.839844 C 549.472656 125.839844 555.320312 131.6875 555.320312 138.90625 L 555.320312 759.820312 C 555.320312 767.039062 549.472656 772.886719 542.257812 772.886719 Z M 100.464844 126.296875 C 93.574219 126.308594 87.996094 131.898438 87.996094 138.789062 L 87.996094 759.820312 C 87.996094 766.710938 93.574219 772.300781 100.464844 772.3125 L 542.257812 772.3125 C 549.148438 772.300781 554.734375 766.714844 554.75 759.820312 L 554.75 138.789062 C 554.734375 131.894531 549.148438 126.308594 542.257812 126.296875 Z M 100.464844 126.296875 "/>
<path style=" stroke:none;fill-rule:nonzero;fill:rgb(92.156863%,92.156863%,92.156863%);fill-opacity:1;" d="M 1037.171875 772.886719 L 595.359375 772.886719 C 588.148438 772.875 582.308594 767.03125 582.296875 759.820312 L 582.296875 138.789062 C 582.371094 131.625 588.195312 125.851562 595.359375 125.839844 L 1037.171875 125.839844 C 1044.328125 125.863281 1050.128906 131.636719 1050.191406 138.789062 L 1050.191406 759.820312 C 1050.191406 767.019531 1044.371094 772.859375 1037.171875 772.886719 Z M 595.359375 126.296875 C 588.464844 126.308594 582.878906 131.894531 582.867188 138.789062 L 582.867188 759.820312 C 582.878906 766.714844 588.464844 772.300781 595.359375 772.3125 L 1037.171875 772.3125 C 1044.066406 772.300781 1049.652344 766.714844 1049.664062 759.820312 L 1049.664062 138.789062 C 1049.652344 131.894531 1044.066406 126.308594 1037.171875 126.296875 Z M 595.359375 126.296875 "/>
<path style=" stroke:none;fill-rule:nonzero;fill:rgb(92.156863%,92.156863%,92.156863%);fill-opacity:1;" d="M 0 874.929688 L 1144 874.929688 L 1144 875.503906 L 0 875.503906 Z M 0 874.929688 "/>
<path style=" stroke:none;fill-rule:nonzero;fill:rgb(94.117647%,94.117647%,94.117647%);fill-opacity:1;" d="M 824.640625 505.304688 C 824.640625 648.917969 708.222656 765.335938 564.609375 765.335938 C 421 765.335938 304.578125 648.917969 304.578125 505.304688 C 304.578125 361.695312 421 245.273438 564.609375 245.273438 C 708.222656 245.273438 824.640625 361.695312 824.640625 505.304688 Z M 824.640625 505.304688 "/>
<path style=" stroke:none;fill-rule:nonzero;fill:rgb(87.843137%,87.843137%,87.843137%);fill-opacity:1;" d="M 568.523438 205.257812 L 568.523438 207.542969 L 567.425781 207.542969 C 564.839844 207.542969 562.277344 207.542969 559.714844 207.683594 C 557.152344 207.820312 554.632812 207.84375 552.117188 208.003906 C 549.601562 208.164062 546.761719 208.324219 544.109375 208.527344 C 537.429688 209.078125 530.808594 209.839844 524.25 210.816406 C 433.339844 224.492188 353.648438 278.921875 307.828125 358.621094 C 307.371094 359.375 306.933594 360.152344 306.5 360.910156 C 281.125 405.867188 267.820312 456.628906 267.878906 508.257812 L 267.878906 508.738281 C 267.878906 509.492188 267.878906 510.269531 267.878906 511.023438 C 268.265625 563.011719 282.210938 613.996094 308.332031 658.945312 L 309.679688 661.230469 C 360.429688 747.074219 450.394531 802.210938 549.921875 808.464844 C 554.496094 808.738281 559.027344 808.914062 563.511719 808.992188 L 568.566406 808.992188 L 568.566406 811.277344 L 566.027344 811.277344 C 554.4375 811.191406 542.867188 810.425781 531.363281 808.992188 C 437.699219 797.285156 354.820312 742.652344 307.140625 661.1875 L 305.8125 658.898438 C 252.941406 566.792969 252.238281 453.710938 303.960938 360.953125 L 305.242188 358.667969 C 348.980469 281.886719 423.960938 227.933594 510.660156 210.863281 C 515.128906 209.992188 519.613281 209.230469 524.113281 208.574219 C 538.816406 206.382812 553.65625 205.273438 568.523438 205.257812 Z M 568.523438 205.257812 "/>
<path style=" stroke:none;fill-rule:nonzero;fill:rgb(87.843137%,87.843137%,87.843137%);fill-opacity:1;" d="M 566.625 811.234375 C 482.515625 811.234375 415.5 593.644531 415.5 508.257812 C 415.5 463.6875 434.332031 386.992188 460.277344 325.628906 C 479.3125 280.667969 518.710938 205.257812 568.523438 205.257812 L 568.523438 207.542969 C 486.269531 207.542969 417.789062 425.886719 417.789062 508.257812 C 417.789062 546.464844 432.796875 621.167969 461.445312 689.992188 C 479.929688 734.425781 518.1875 808.96875 566.691406 808.96875 Z M 566.625 811.234375 "/>
<path style=" stroke:none;fill-rule:nonzero;fill:rgb(87.843137%,87.843137%,87.843137%);fill-opacity:1;" d="M 563.722656 810.105469 L 567.304688 206.40625 L 569.59375 206.417969 L 566.011719 810.121094 Z M 563.722656 810.105469 "/>
<path style=" stroke:none;fill-rule:nonzero;fill:rgb(87.843137%,87.843137%,87.843137%);fill-opacity:1;" d="M 559.667969 811.234375 L 559.667969 808.945312 C 725.457031 808.945312 860.355469 674.066406 860.355469 508.257812 C 860.355469 342.445312 725.363281 207.542969 559.667969 207.542969 L 559.667969 205.257812 C 726.691406 205.257812 862.644531 341.1875 862.644531 508.257812 C 862.644531 675.324219 726.738281 811.234375 559.667969 811.234375 Z M 559.667969 811.234375 "/>
<path style=" stroke:none;fill-rule:nonzero;fill:rgb(87.843137%,87.843137%,87.843137%);fill-opacity:1;" d="M 561.566406 811.234375 L 561.566406 808.945312 C 610.003906 808.945312 648.257812 734.425781 666.816406 689.96875 C 695.484375 621.144531 710.46875 546.441406 710.46875 508.234375 C 710.46875 425.867188 641.988281 207.523438 559.734375 207.523438 L 559.734375 205.234375 C 609.546875 205.234375 648.96875 280.738281 667.980469 325.605469 C 693.925781 386.855469 712.757812 463.664062 712.757812 508.234375 C 712.6875 593.644531 645.671875 811.234375 561.566406 811.234375 Z M 561.566406 811.234375 "/>
<path style=" stroke:none;fill-rule:nonzero;fill:rgb(87.843137%,87.843137%,87.843137%);fill-opacity:1;" d="M 558.503906 206.445312 L 560.792969 206.429688 L 564.585938 810.128906 L 562.296875 810.144531 Z M 558.503906 206.445312 "/>
<path style=" stroke:none;fill-rule:nonzero;fill:rgb(87.843137%,87.843137%,87.843137%);fill-opacity:1;" d="M 819.972656 658.851562 L 307.027344 658.851562 L 305.699219 656.566406 L 821.300781 656.566406 Z M 819.972656 658.851562 "/>
<path style=" stroke:none;fill-rule:nonzero;fill:rgb(87.843137%,87.843137%,87.843137%);fill-opacity:1;" d="M 821.847656 356.332031 L 305.128906 356.332031 L 303.847656 358.621094 L 823.222656 358.621094 Z M 821.847656 356.332031 "/>
<path style=" stroke:none;fill-rule:nonzero;fill:rgb(87.843137%,87.843137%,87.843137%);fill-opacity:1;" d="M 263.898438 505.304688 L 858.710938 505.304688 L 858.710938 507.59375 L 263.898438 507.59375 Z M 263.898438 505.304688 "/>
<path style=" stroke:none;fill-rule:nonzero;fill:rgb(87.843137%,87.843137%,87.843137%);fill-opacity:1;" d="M 265.5 498.945312 L 267.789062 498.945312 L 267.789062 515.691406 L 265.5 515.691406 Z M 265.5 498.945312 "/>
<path style=" stroke:none;fill-rule:nonzero;fill:rgb(87.843137%,87.843137%,87.843137%);fill-opacity:1;" d="M 302.65625 498.945312 L 304.945312 498.945312 L 304.945312 515.691406 L 302.65625 515.691406 Z M 302.65625 498.945312 "/>
<path style=" stroke:none;fill-rule:nonzero;fill:rgb(87.843137%,87.843137%,87.843137%);fill-opacity:1;" d="M 339.8125 498.945312 L 342.101562 498.945312 L 342.101562 515.691406 L 339.8125 515.691406 Z M 339.8125 498.945312 "/>
<path style=" stroke:none;fill-rule:nonzero;fill:rgb(87.843137%,87.843137%,87.843137%);fill-opacity:1;" d="M 376.949219 498.945312 L 379.234375 498.945312 L 379.234375 515.691406 L 376.949219 515.691406 Z M 376.949219 498.945312 "/>
<path style=" stroke:none;fill-rule:nonzero;fill:rgb(87.843137%,87.843137%,87.843137%);fill-opacity:1;" d="M 414.105469 498.945312 L 416.394531 498.945312 L 416.394531 515.691406 L 414.105469 515.691406 Z M 414.105469 498.945312 "/>
<path style=" stroke:none;fill-rule:nonzero;fill:rgb(87.843137%,87.843137%,87.843137%);fill-opacity:1;" d="M 451.238281 498.945312 L 453.527344 498.945312 L 453.527344 515.691406 L 451.238281 515.691406 Z M 451.238281 498.945312 "/>
<path style=" stroke:none;fill-rule:nonzero;fill:rgb(87.843137%,87.843137%,87.843137%);fill-opacity:1;" d="M 488.394531 498.945312 L 490.683594 498.945312 L 490.683594 515.691406 L 488.394531 515.691406 Z M 488.394531 498.945312 "/>
<path style=" stroke:none;fill-rule:nonzero;fill:rgb(87.843137%,87.843137%,87.843137%);fill-opacity:1;" d="M 525.53125 498.945312 L 527.820312 498.945312 L 527.820312 515.691406 L 525.53125 515.691406 Z M 525.53125 498.945312 "/>
<path style=" stroke:none;fill-rule:nonzero;fill:rgb(87.843137%,87.843137%,87.843137%);fill-opacity:1;" d="M 562.6875 498.945312 L 564.976562 498.945312 L 564.976562 515.691406 L 562.6875 515.691406 Z M 562.6875 498.945312 "/>
<path style=" stroke:none;fill-rule:nonzero;fill:rgb(87.843137%,87.843137%,87.843137%);fill-opacity:1;" d="M 599.84375 498.945312 L 602.132812 498.945312 L 602.132812 515.691406 L 599.84375 515.691406 Z M 599.84375 498.945312 "/>
<path style=" stroke:none;fill-rule:nonzero;fill:rgb(87.843137%,87.843137%,87.843137%);fill-opacity:1;" d="M 636.980469 498.945312 L 639.265625 498.945312 L 639.265625 515.691406 L 636.980469 515.691406 Z M 636.980469 498.945312 "/>
<path style=" stroke:none;fill-rule:nonzero;fill:rgb(87.843137%,87.843137%,87.843137%);fill-opacity:1;" d="M 674.136719 498.945312 L 676.425781 498.945312 L 676.425781 515.691406 L 674.136719 515.691406 Z M 674.136719 498.945312 "/>
<path style=" stroke:none;fill-rule:nonzero;fill:rgb(87.843137%,87.843137%,87.843137%);fill-opacity:1;" d="M 711.269531 498.945312 L 713.558594 498.945312 L 713.558594 515.691406 L 711.269531 515.691406 Z M 711.269531 498.945312 "/>
<path style=" stroke:none;fill-rule:nonzero;fill:rgb(87.843137%,87.843137%,87.843137%);fill-opacity:1;" d="M 748.425781 498.945312 L 750.714844 498.945312 L 750.714844 515.691406 L 748.425781 515.691406 Z M 748.425781 498.945312 "/>
<path style=" stroke:none;fill-rule:nonzero;fill:rgb(87.843137%,87.843137%,87.843137%);fill-opacity:1;" d="M 785.5625 498.945312 L 787.851562 498.945312 L 787.851562 515.691406 L 785.5625 515.691406 Z M 785.5625 498.945312 "/>
<path style=" stroke:none;fill-rule:nonzero;fill:rgb(87.843137%,87.843137%,87.843137%);fill-opacity:1;" d="M 822.71875 498.945312 L 825.007812 498.945312 L 825.007812 515.691406 L 822.71875 515.691406 Z M 822.71875 498.945312 "/>
<path style=" stroke:none;fill-rule:nonzero;fill:rgb(87.843137%,87.843137%,87.843137%);fill-opacity:1;" d="M 859.875 498.945312 L 862.164062 498.945312 L 862.164062 515.691406 L 859.875 515.691406 Z M 859.875 498.945312 "/>
<path style=" stroke:none;fill-rule:nonzero;fill:rgb(92.156863%,92.156863%,92.156863%);fill-opacity:1;" d="M 860.082031 787.941406 L 881.636719 787.941406 L 881.636719 865.207031 L 860.082031 865.207031 Z M 860.082031 787.941406 "/>
<path style=" stroke:none;fill-rule:nonzero;fill:rgb(92.156863%,92.156863%,92.156863%);fill-opacity:1;" d="M 902.410156 837.566406 L 923.964844 837.566406 L 923.964844 865.183594 L 902.410156 865.183594 Z M 902.410156 837.566406 "/>
<path style=" stroke:none;fill-rule:nonzero;fill:rgb(92.156863%,92.156863%,92.156863%);fill-opacity:1;" d="M 944.714844 823.910156 L 966.269531 823.910156 L 966.269531 865.183594 L 944.714844 865.183594 Z M 944.714844 823.910156 "/>
<path style=" stroke:none;fill-rule:nonzero;fill:rgb(92.156863%,92.156863%,92.156863%);fill-opacity:1;" d="M 987.042969 849.375 L 1008.597656 849.375 L 1008.597656 865.207031 L 987.042969 865.207031 Z M 987.042969 849.375 "/>
<path style=" stroke:none;fill-rule:nonzero;fill:rgb(92.156863%,92.156863%,92.156863%);fill-opacity:1;" d="M 1029.371094 808.304688 L 1050.925781 808.304688 L 1050.925781 865.183594 L 1029.371094 865.183594 Z M 1029.371094 808.304688 "/>
<path style=" stroke:none;fill-rule:nonzero;fill:rgb(92.156863%,92.156863%,92.156863%);fill-opacity:1;" d="M 87.996094 787.941406 L 244.769531 787.941406 L 244.769531 807.136719 L 87.996094 807.136719 Z M 87.996094 787.941406 "/>
<path style=" stroke:none;fill-rule:nonzero;fill:rgb(87.843137%,87.843137%,87.843137%);fill-opacity:1;" d="M 87.996094 815.191406 L 300.804688 815.191406 L 300.804688 834.386719 L 87.996094 834.386719 Z M 87.996094 815.191406 "/>
<path style=" stroke:none;fill-rule:nonzero;fill:rgb(94.117647%,94.117647%,94.117647%);fill-opacity:1;" d="M 87.996094 842.191406 L 150.070312 842.191406 L 150.070312 861.386719 L 87.996094 861.386719 Z M 87.996094 842.191406 "/>
<path style="fill:none;stroke-width:2;stroke-linecap:butt;stroke-linejoin:miter;stroke:rgb(92.156863%,92.156863%,92.156863%);stroke-opacity:1;stroke-miterlimit:10;" d="M 349.730229 359.93046 C 349.729722 369.976801 341.585995 378.119237 331.540046 378.120392 C 321.493706 378.119884 313.349608 369.976549 313.350115 359.930209 C 313.350622 349.883868 321.493957 341.739771 331.540298 341.740278 C 341.586246 341.739123 349.730736 349.88412 349.730229 359.93046 Z M 349.730229 359.93046 " transform="matrix(0.525577,-2.226817,2.226817,0.525577,-217.19984,1372.5712)"/>
<path style=" stroke:none;fill-rule:nonzero;fill:rgb(92.156863%,92.156863%,92.156863%);fill-opacity:1;" d="M 757.832031 837.292969 L 784.507812 821.644531 L 758.722656 846.492188 Z M 757.832031 837.292969 "/>
<path style=" stroke:none;fill-rule:nonzero;fill:rgb(92.156863%,92.156863%,92.156863%);fill-opacity:1;" d="M 787.300781 844.019531 L 785.449219 842.671875 C 795.390625 828.941406 793.394531 809.929688 780.820312 798.5625 C 768.242188 787.199219 749.125 787.132812 736.46875 798.414062 C 723.816406 809.691406 721.691406 828.691406 731.542969 842.488281 L 729.6875 843.8125 C 719.160156 829.066406 721.429688 808.753906 734.960938 796.699219 C 748.488281 784.644531 768.925781 784.714844 782.367188 796.867188 C 795.808594 809.019531 797.9375 829.347656 787.300781 844.019531 Z M 787.300781 844.019531 "/>
<path style=" stroke:none;fill-rule:nonzero;fill:rgb(87.843137%,87.843137%,87.843137%);fill-opacity:1;" d="M 305.011719 166.359375 L 324.4375 166.359375 L 324.4375 185.785156 L 305.011719 185.785156 Z M 305.011719 166.359375 "/>
<path style=" stroke:none;fill-rule:nonzero;fill:rgb(90.196078%,90.196078%,90.196078%);fill-opacity:1;" d="M 326.796875 166.359375 L 346.21875 166.359375 L 346.21875 185.785156 L 326.796875 185.785156 Z M 326.796875 166.359375 "/>
<path style=" stroke:none;fill-rule:nonzero;fill:rgb(92.156863%,92.156863%,92.156863%);fill-opacity:1;" d="M 348.578125 166.359375 L 368 166.359375 L 368 185.785156 L 348.578125 185.785156 Z M 348.578125 166.359375 "/>
<path style=" stroke:none;fill-rule:nonzero;fill:rgb(94.117647%,94.117647%,94.117647%);fill-opacity:1;" d="M 370.359375 166.109375 L 389.785156 166.109375 L 389.785156 185.535156 L 370.359375 185.535156 Z M 370.359375 166.109375 "/>
<path style=" stroke:none;fill-rule:nonzero;fill:rgb(96.078431%,96.078431%,96.078431%);fill-opacity:1;" d="M 392.117188 166.359375 L 411.542969 166.359375 L 411.542969 185.785156 L 392.117188 185.785156 Z M 392.117188 166.359375 "/>
<path style=" stroke:none;fill-rule:nonzero;fill:rgb(98.039216%,98.039216%,98.039216%);fill-opacity:1;" d="M 413.898438 166.359375 L 433.324219 166.359375 L 433.324219 185.785156 L 413.898438 185.785156 Z M 413.898438 166.359375 "/>
<path style=" stroke:none;fill-rule:nonzero;fill:rgb(87.843137%,87.843137%,87.843137%);fill-opacity:1;" d="M 720.148438 202.738281 C 720.148438 207.316406 716.785156 210.152344 711.429688 210.152344 L 707.425781 210.152344 L 706.464844 215.070312 L 702.277344 215.070312 L 705.871094 197.132812 L 713.125 197.132812 C 717.609375 197.15625 720.148438 199.238281 720.148438 202.738281 Z M 715.9375 203.105469 C 715.9375 201.367188 714.703125 200.542969 712.621094 200.542969 L 709.28125 200.542969 L 708.042969 206.765625 L 711.566406 206.765625 C 714.359375 206.765625 715.9375 205.484375 715.9375 203.105469 Z M 715.9375 203.105469 "/>
<path style=" stroke:none;fill-rule:nonzero;fill:rgb(87.843137%,87.843137%,87.843137%);fill-opacity:1;" d="M 727.835938 200.496094 L 727.082031 204.386719 L 735.410156 204.386719 L 734.769531 207.613281 L 726.417969 207.613281 L 725.59375 211.777344 L 735.363281 211.777344 L 734.675781 215.070312 L 720.71875 215.070312 L 724.3125 197.132812 L 737.855469 197.132812 L 737.171875 200.472656 Z M 727.835938 200.496094 "/>
<path style=" stroke:none;fill-rule:nonzero;fill:rgb(87.843137%,87.843137%,87.843137%);fill-opacity:1;" d="M 750.785156 209.558594 L 753.894531 215.070312 L 749.527344 215.070312 L 746.710938 210.0625 L 743.164062 210.0625 L 742.179688 215.070312 L 737.996094 215.070312 L 741.585938 197.132812 L 748.886719 197.132812 C 753.347656 197.132812 755.910156 199.191406 755.910156 202.695312 C 756.011719 205.898438 753.886719 208.746094 750.785156 209.558594 Z M 751.699219 203.105469 C 751.699219 201.367188 750.464844 200.542969 748.335938 200.542969 L 745.0625 200.542969 L 743.804688 206.765625 L 747.351562 206.765625 C 750.097656 206.765625 751.699219 205.484375 751.699219 203.105469 Z M 751.699219 203.105469 "/>
<path style=" stroke:none;fill-rule:nonzero;fill:rgb(87.843137%,87.843137%,87.843137%);fill-opacity:1;" d="M 755.886719 213.402344 L 757.578125 210.199219 C 759.308594 211.429688 761.382812 212.085938 763.503906 212.074219 C 765.792969 212.074219 767.210938 211.273438 767.210938 209.96875 C 767.210938 207.109375 758.3125 208.644531 758.3125 202.921875 C 758.3125 199.238281 761.5625 196.859375 766.527344 196.859375 C 768.695312 196.789062 770.839844 197.316406 772.726562 198.390625 L 771.054688 201.574219 C 769.613281 200.640625 767.925781 200.15625 766.207031 200.175781 C 763.78125 200.175781 762.382812 201.113281 762.382812 202.464844 C 762.382812 205.394531 771.261719 203.859375 771.261719 209.328125 C 771.261719 213.035156 767.988281 215.4375 763.003906 215.4375 C 760.480469 215.480469 758.003906 214.769531 755.886719 213.402344 Z M 755.886719 213.402344 "/>
<path style=" stroke:none;fill-rule:nonzero;fill:rgb(87.843137%,87.843137%,87.843137%);fill-opacity:1;" d="M 773.753906 207.613281 C 773.671875 204.679688 774.808594 201.84375 776.902344 199.785156 C 778.996094 197.726562 781.851562 196.632812 784.785156 196.769531 C 790.230469 196.769531 793.523438 199.949219 793.523438 204.546875 C 793.617188 207.484375 792.480469 210.328125 790.386719 212.390625 C 788.292969 214.453125 785.433594 215.550781 782.496094 215.414062 C 777.027344 215.414062 773.753906 212.234375 773.753906 207.613281 Z M 789.382812 204.867188 C 789.460938 203.574219 788.960938 202.3125 788.011719 201.425781 C 787.066406 200.542969 785.773438 200.125 784.488281 200.292969 C 782.648438 200.277344 780.886719 201.039062 779.640625 202.390625 C 778.390625 203.738281 777.765625 205.550781 777.921875 207.382812 C 777.832031 208.675781 778.332031 209.9375 779.273438 210.824219 C 780.21875 211.710938 781.507812 212.128906 782.792969 211.960938 C 784.632812 211.972656 786.390625 211.210938 787.640625 209.863281 C 788.890625 208.511719 789.515625 206.699219 789.359375 204.867188 Z M 789.382812 204.867188 "/>
<path style=" stroke:none;fill-rule:nonzero;fill:rgb(87.843137%,87.843137%,87.843137%);fill-opacity:1;" d="M 814.871094 197.15625 L 811.277344 215.070312 L 807.871094 215.070312 L 801.1875 203.859375 L 798.902344 215.070312 L 794.804688 215.070312 L 798.511719 197.15625 L 801.945312 197.15625 L 808.625 208.414062 L 810.914062 197.15625 Z M 814.871094 197.15625 "/>
<path style=" stroke:none;fill-rule:nonzero;fill:rgb(87.843137%,87.843137%,87.843137%);fill-opacity:1;" d="M 828.257812 211.25 L 819.90625 211.25 L 817.617188 215.09375 L 813.179688 215.09375 L 824.777344 197.15625 L 828.898438 197.15625 L 833.289062 215.070312 L 829.148438 215.070312 Z M 827.570312 208.09375 L 826.058594 201.230469 L 821.828125 208.09375 Z M 827.570312 208.09375 "/>
<path style=" stroke:none;fill-rule:nonzero;fill:rgb(87.843137%,87.843137%,87.843137%);fill-opacity:1;" d="M 838.757812 197.15625 L 842.945312 197.15625 L 840.015625 211.707031 L 849.007812 211.707031 L 848.320312 215.09375 L 835.121094 215.09375 Z M 838.757812 197.15625 "/>
<path style=" stroke:none;fill-rule:nonzero;fill:rgb(87.843137%,87.843137%,87.843137%);fill-opacity:1;" d="M 775.976562 225.941406 L 783.480469 225.941406 C 789.015625 225.941406 792.3125 228.824219 792.3125 233.421875 C 792.3125 239.738281 787.734375 243.855469 781.144531 243.855469 L 772.382812 243.855469 Z M 781.261719 240.445312 C 783.117188 240.578125 784.941406 239.894531 786.257812 238.578125 C 787.574219 237.261719 788.253906 235.4375 788.125 233.582031 C 788.125 230.90625 786.410156 229.257812 783.046875 229.257812 L 779.476562 229.257812 L 777.1875 240.378906 Z M 781.261719 240.445312 "/>
<path style=" stroke:none;fill-rule:nonzero;fill:rgb(87.843137%,87.843137%,87.843137%);fill-opacity:1;" d="M 806.0625 240.011719 L 797.710938 240.011719 L 795.421875 243.855469 L 790.984375 243.855469 L 802.585938 225.941406 L 806.679688 225.941406 L 811.097656 243.855469 L 806.953125 243.855469 Z M 805.351562 236.875 L 803.84375 230.011719 L 799.632812 236.875 Z M 805.351562 236.875 "/>
<path style=" stroke:none;fill-rule:nonzero;fill:rgb(87.843137%,87.843137%,87.843137%);fill-opacity:1;" d="M 818.644531 229.304688 L 812.902344 229.304688 L 813.589844 225.941406 L 829.21875 225.941406 L 828.53125 229.304688 L 822.8125 229.304688 L 819.90625 243.855469 L 815.742188 243.855469 Z M 818.644531 229.304688 "/>
<path style=" stroke:none;fill-rule:nonzero;fill:rgb(87.843137%,87.843137%,87.843137%);fill-opacity:1;" d="M 839.695312 240.011719 L 831.34375 240.011719 L 829.058594 243.855469 L 824.617188 243.855469 L 836.21875 225.941406 L 840.335938 225.941406 L 844.730469 243.855469 L 840.589844 243.855469 Z M 839.007812 236.875 L 837.5 230.011719 L 833.265625 236.875 Z M 839.007812 236.875 "/>
<path style=" stroke:none;fill-rule:nonzero;fill:rgb(96.078431%,96.078431%,96.078431%);fill-opacity:1;" d="M 1015.621094 951.097656 C 1015.621094 936.792969 817.003906 925.199219 572 925.199219 C 326.996094 925.199219 128.378906 936.792969 128.378906 951.097656 C 128.378906 965.402344 326.996094 977 572 977 C 817.003906 977 1015.621094 965.402344 1015.621094 951.097656 Z M 1015.621094 951.097656 "/>
<path style=" stroke:none;fill-rule:nonzero;fill:rgb(14.901961%,19.607843%,21.960784%);fill-opacity:1;" d="M 190.382812 657.296875 L 229.96875 657.296875 L 229.96875 696.878906 L 190.382812 696.878906 Z M 190.382812 657.296875 "/>
<use xlink:href="#surface5" mask="url(#mask0)"/>
<path style=" stroke:none;fill-rule:nonzero;fill:rgb(14.901961%,19.607843%,21.960784%);fill-opacity:1;" d="M 209.855469 596.503906 L 158.285156 648.074219 L 177.707031 648.074219 L 177.707031 696.878906 L 200.0625 696.878906 L 200.0625 665.03125 L 219.648438 665.03125 L 219.648438 696.878906 L 242 696.878906 L 242 648.074219 L 261.449219 648.074219 Z M 209.855469 596.503906 "/>
<path style=" stroke:none;fill-rule:nonzero;fill:rgb(14.901961%,19.607843%,21.960784%);fill-opacity:1;" d="M 485.332031 847.566406 L 259.664062 723.488281 L 177.527344 723.488281 L 177.527344 721.199219 L 260.238281 721.199219 L 260.511719 721.335938 L 486.429688 845.554688 Z M 485.332031 847.566406 "/>
<path style=" stroke:none;fill-rule:nonzero;fill:rgb(14.901961%,19.607843%,21.960784%);fill-opacity:1;" d="M 163.570312 453.023438 C 163.796875 471.96875 171.78125 491.921875 188.28125 501.324219 C 193.210938 504.089844 198.667969 505.796875 204.296875 506.335938 C 222.257812 508.050781 240.101562 496.839844 248.660156 480.9375 C 257.21875 465.035156 257.21875 445.40625 251.246094 428.3125 C 245.273438 411.222656 218.9375 370.726562 197.636719 384.839844 C 176.335938 398.957031 163.273438 427.855469 163.570312 453.023438 Z M 163.570312 453.023438 "/>
<use xlink:href="#surface8" mask="url(#mask1)"/>
<path style=" stroke:none;fill-rule:nonzero;fill:rgb(14.901961%,19.607843%,21.960784%);fill-opacity:1;" d="M 174.046875 475.082031 C 173.332031 475.078125 172.695312 474.617188 172.46875 473.9375 C 169.832031 465.386719 168.558594 456.476562 168.695312 447.53125 C 168.796875 434.898438 172.792969 422.605469 180.132812 412.320312 C 180.664062 411.574219 181.699219 411.402344 182.445312 411.929688 C 183.191406 412.460938 183.363281 413.496094 182.835938 414.242188 C 175.855469 423.953125 172.039062 435.578125 171.898438 447.53125 C 171.757812 456.128906 172.976562 464.691406 175.511719 472.90625 C 175.78125 473.777344 175.304688 474.703125 174.4375 474.988281 C 174.3125 475.039062 174.183594 475.070312 174.046875 475.082031 Z M 174.046875 475.082031 "/>
<path style=" stroke:none;fill-rule:nonzero;fill:rgb(14.901961%,19.607843%,21.960784%);fill-opacity:1;" d="M 198.621094 500.707031 C 198.484375 500.726562 198.347656 500.726562 198.210938 500.707031 C 188.121094 497.992188 179.78125 490.898438 175.488281 481.371094 C 175.078125 480.558594 175.40625 479.5625 176.222656 479.152344 C 177.035156 478.742188 178.03125 479.070312 178.441406 479.886719 C 182.320312 488.546875 189.875 495.011719 199.03125 497.503906 C 199.90625 497.757812 200.421875 498.65625 200.199219 499.539062 C 199.980469 500.230469 199.34375 500.699219 198.621094 500.707031 Z M 198.621094 500.707031 "/>
<path style=" stroke:none;fill-rule:nonzero;fill:rgb(14.901961%,19.607843%,21.960784%);fill-opacity:1;" d="M 208.78125 501.941406 C 207.871094 501.941406 207.132812 501.203125 207.132812 500.292969 C 207.132812 499.382812 207.871094 498.648438 208.78125 498.648438 C 228.433594 498.648438 240.378906 487.046875 244.242188 464.1875 C 244.40625 463.285156 245.257812 462.679688 246.164062 462.816406 C 247.066406 462.980469 247.667969 463.835938 247.515625 464.738281 C 243.398438 489.082031 229.988281 501.941406 208.78125 501.941406 Z M 208.78125 501.941406 "/>
<path style=" stroke:none;fill-rule:nonzero;fill:rgb(14.901961%,19.607843%,21.960784%);fill-opacity:1;" d="M 246.828125 458.421875 L 246.691406 458.421875 C 246.253906 458.390625 245.847656 458.179688 245.566406 457.84375 C 245.28125 457.511719 245.144531 457.078125 245.183594 456.640625 C 245.410156 453.757812 245.546875 450.691406 245.546875 447.488281 C 245.464844 438.417969 243.210938 429.496094 238.980469 421.472656 C 238.75 421.082031 238.691406 420.613281 238.824219 420.179688 C 238.953125 419.742188 239.261719 419.382812 239.667969 419.183594 C 240.058594 418.960938 240.527344 418.90625 240.960938 419.035156 C 241.390625 419.167969 241.753906 419.46875 241.957031 419.871094 C 246.40625 428.34375 248.761719 437.757812 248.820312 447.328125 C 248.820312 450.554688 248.707031 453.710938 248.453125 456.683594 C 248.480469 457.132812 248.320312 457.574219 248.011719 457.902344 C 247.707031 458.230469 247.277344 458.417969 246.828125 458.421875 Z M 246.828125 458.421875 "/>
<path style=" stroke:none;fill-rule:nonzero;fill:rgb(14.901961%,19.607843%,21.960784%);fill-opacity:1;" d="M 237.746094 417.742188 C 237.183594 417.742188 236.660156 417.457031 236.351562 416.988281 C 232.445312 410.679688 227.300781 405.230469 221.226562 400.972656 C 220.863281 400.730469 220.609375 400.351562 220.523438 399.921875 C 220.4375 399.492188 220.527344 399.046875 220.769531 398.683594 C 221.007812 398.3125 221.386719 398.058594 221.816406 397.972656 C 222.246094 397.882812 222.695312 397.976562 223.058594 398.226562 C 229.484375 402.71875 234.933594 408.472656 239.074219 415.132812 C 239.3125 415.503906 239.394531 415.953125 239.300781 416.382812 C 239.203125 416.8125 238.941406 417.1875 238.570312 417.421875 C 238.332031 417.605469 238.046875 417.714844 237.746094 417.742188 Z M 237.746094 417.742188 "/>
<path style=" stroke:none;fill-rule:nonzero;fill:rgb(14.901961%,19.607843%,21.960784%);fill-opacity:1;" d="M 189.171875 406.1875 C 188.492188 406.191406 187.878906 405.777344 187.632812 405.140625 C 187.382812 404.507812 187.550781 403.789062 188.050781 403.328125 C 194.914062 396.855469 202.488281 393.148438 208.78125 393.148438 C 212.066406 393.210938 215.300781 393.992188 218.253906 395.433594 C 219.078125 395.828125 219.433594 396.816406 219.042969 397.644531 C 218.648438 398.46875 217.660156 398.824219 216.832031 398.433594 C 214.332031 397.160156 211.585938 396.449219 208.78125 396.351562 C 203.335938 396.351562 196.609375 399.738281 190.316406 405.664062 C 190.019531 405.980469 189.605469 406.167969 189.171875 406.1875 Z M 189.171875 406.1875 "/>
<path style=" stroke:none;fill-rule:nonzero;fill:rgb(14.901961%,19.607843%,21.960784%);fill-opacity:1;" d="M 178.167969 463.410156 C 177.371094 463.414062 176.6875 462.84375 176.542969 462.0625 C 175.695312 457.402344 175.28125 452.679688 175.304688 447.945312 C 175.304688 422.226562 195.691406 402.894531 208.894531 402.894531 C 212.789062 403.070312 216.566406 404.289062 219.832031 406.417969 C 220.210938 406.644531 220.484375 407.015625 220.585938 407.445312 C 220.691406 407.875 220.617188 408.332031 220.378906 408.707031 C 219.90625 409.492188 218.882812 409.75 218.09375 409.277344 C 215.367188 407.460938 212.207031 406.402344 208.941406 406.210938 C 196.996094 406.210938 178.667969 424.925781 178.667969 447.96875 C 178.644531 452.5 179.035156 457.027344 179.835938 461.488281 C 179.917969 461.921875 179.820312 462.367188 179.574219 462.726562 C 179.324219 463.085938 178.941406 463.332031 178.507812 463.410156 Z M 178.167969 463.410156 "/>
<path style=" stroke:none;fill-rule:nonzero;fill:rgb(14.901961%,19.607843%,21.960784%);fill-opacity:1;" d="M 190.179688 486.632812 C 189.796875 486.636719 189.421875 486.507812 189.125 486.269531 C 184.253906 481.984375 180.65625 476.445312 178.714844 470.253906 C 178.5625 469.839844 178.582031 469.382812 178.773438 468.988281 C 178.964844 468.589844 179.304688 468.289062 179.722656 468.148438 C 180.582031 467.855469 181.515625 468.304688 181.828125 469.15625 C 183.597656 474.746094 186.855469 479.753906 191.253906 483.636719 C 191.785156 484.085938 191.976562 484.816406 191.734375 485.46875 C 191.496094 486.117188 190.871094 486.546875 190.179688 486.542969 Z M 190.179688 486.632812 "/>
<path style=" stroke:none;fill-rule:nonzero;fill:rgb(14.901961%,19.607843%,21.960784%);fill-opacity:1;" d="M 208.894531 492.996094 C 204.527344 493.042969 200.195312 492.21875 196.148438 490.570312 C 195.371094 490.171875 195.035156 489.234375 195.375 488.429688 C 195.71875 487.625 196.625 487.21875 197.453125 487.503906 C 201.074219 489.03125 204.964844 489.808594 208.894531 489.792969 C 235.253906 489.792969 239.1875 463.640625 239.1875 448.058594 C 239.1875 447.148438 239.925781 446.410156 240.835938 446.410156 C 241.746094 446.410156 242.480469 447.148438 242.480469 448.058594 C 242.527344 477.003906 230.5625 492.996094 208.894531 492.996094 Z M 208.894531 492.996094 "/>
<path style=" stroke:none;fill-rule:nonzero;fill:rgb(14.901961%,19.607843%,21.960784%);fill-opacity:1;" d="M 240.421875 443.574219 C 239.59375 443.578125 238.890625 442.957031 238.796875 442.132812 C 237.269531 431.324219 232.132812 421.351562 224.222656 413.832031 C 223.5625 413.199219 223.535156 412.148438 224.167969 411.484375 C 224.796875 410.820312 225.847656 410.796875 226.511719 411.429688 C 235.027344 419.445312 240.5625 430.121094 242.207031 441.699219 C 242.265625 442.132812 242.148438 442.570312 241.882812 442.917969 C 241.617188 443.265625 241.222656 443.496094 240.789062 443.550781 Z M 240.421875 443.574219 "/>
<path style=" stroke:none;fill-rule:nonzero;fill:rgb(14.901961%,19.607843%,21.960784%);fill-opacity:1;" d="M 209.03125 484.027344 C 192.304688 484.027344 181.917969 470.296875 181.917969 448.332031 C 182.003906 439.480469 185.03125 430.910156 190.523438 423.964844 C 191.085938 423.246094 192.125 423.117188 192.84375 423.679688 C 193.5625 424.242188 193.691406 425.28125 193.128906 426.003906 C 188.097656 432.402344 185.351562 440.304688 185.328125 448.449219 C 185.328125 468.71875 194.226562 480.824219 209.125 480.824219 C 213.273438 480.933594 217.375 479.894531 220.976562 477.824219 C 221.65625 477.691406 222.347656 477.996094 222.714844 478.585938 C 223.082031 479.175781 223.042969 479.929688 222.621094 480.480469 C 218.503906 482.890625 213.800781 484.117188 209.03125 484.027344 Z M 209.03125 484.027344 "/>
<path style=" stroke:none;fill-rule:nonzero;fill:rgb(14.901961%,19.607843%,21.960784%);fill-opacity:1;" d="M 227.90625 475.082031 C 227.554688 475.074219 227.210938 474.964844 226.925781 474.761719 C 226.203125 474.21875 226.050781 473.199219 226.582031 472.472656 C 230.652344 466.914062 232.828125 458.582031 232.828125 448.355469 C 232.828125 430.464844 218.414062 415.957031 209.03125 415.957031 C 205.582031 416.207031 202.292969 417.507812 199.605469 419.6875 C 198.867188 420.199219 197.855469 420.039062 197.316406 419.320312 C 197.058594 418.972656 196.953125 418.53125 197.019531 418.101562 C 197.089844 417.671875 197.328125 417.285156 197.683594 417.035156 C 200.9375 414.410156 204.945312 412.886719 209.125 412.6875 C 219.785156 412.6875 236.214844 428.015625 236.214844 448.378906 C 236.214844 459.316406 233.925781 468.332031 229.347656 474.441406 C 229.011719 474.886719 228.464844 475.128906 227.90625 475.082031 Z M 227.90625 475.082031 "/>
<path style=" stroke:none;fill-rule:nonzero;fill:rgb(14.901961%,19.607843%,21.960784%);fill-opacity:1;" d="M 196.148438 469.476562 C 195.675781 469.472656 195.226562 469.261719 194.914062 468.902344 C 190.796875 464.328125 188.53125 457.097656 188.53125 448.722656 C 188.53125 434.535156 199.972656 422.386719 209.125 422.386719 C 210.824219 422.40625 212.503906 422.765625 214.066406 423.441406 C 214.503906 423.605469 214.851562 423.949219 215.023438 424.382812 C 215.195312 424.820312 215.167969 425.308594 214.957031 425.726562 C 214.796875 426.136719 214.476562 426.460938 214.070312 426.628906 C 213.664062 426.796875 213.210938 426.792969 212.808594 426.621094 C 211.644531 426.101562 210.394531 425.824219 209.125 425.796875 C 202.257812 425.796875 191.824219 435.703125 191.824219 448.835938 C 191.824219 456.386719 193.792969 462.792969 197.363281 466.820312 C 197.941406 467.496094 197.882812 468.507812 197.226562 469.109375 C 196.925781 469.359375 196.542969 469.488281 196.148438 469.476562 Z M 196.148438 469.476562 "/>
<path style=" stroke:none;fill-rule:nonzero;fill:rgb(14.901961%,19.607843%,21.960784%);fill-opacity:1;" d="M 209.144531 475.082031 C 206.40625 475.101562 203.6875 474.5625 201.160156 473.5 C 200.421875 473.078125 200.125 472.167969 200.464844 471.386719 C 200.804688 470.605469 201.675781 470.207031 202.488281 470.457031 C 204.59375 471.347656 206.859375 471.792969 209.144531 471.761719 C 224.773438 471.761719 226.464844 455.746094 226.464844 448.722656 C 226.339844 441.394531 223.144531 434.453125 217.65625 429.59375 C 216.996094 429 216.921875 427.988281 217.496094 427.308594 C 218.097656 426.65625 219.101562 426.585938 219.785156 427.148438 C 226.03125 432.605469 229.644531 440.472656 229.714844 448.769531 C 229.761719 465.21875 222.074219 475.082031 209.144531 475.082031 Z M 209.144531 475.082031 "/>
<path style=" stroke:none;fill-rule:nonzero;fill:rgb(14.901961%,19.607843%,21.960784%);fill-opacity:1;" d="M 209.285156 466.113281 C 202.417969 466.113281 197.25 461.535156 195.554688 454.03125 C 195.355469 453.421875 195.519531 452.753906 195.980469 452.308594 C 196.441406 451.863281 197.117188 451.722656 197.71875 451.941406 C 198.320312 452.164062 198.742188 452.707031 198.804688 453.34375 C 200.0625 459.363281 203.859375 462.792969 209.191406 462.792969 C 217.152344 462.792969 219.992188 455.722656 219.992188 449.066406 C 220.003906 448.152344 220.746094 447.417969 221.660156 447.417969 C 222.570312 447.417969 223.308594 448.15625 223.308594 449.066406 C 223.398438 459.453125 217.863281 466.113281 209.285156 466.113281 Z M 209.285156 466.113281 "/>
<path style=" stroke:none;fill-rule:nonzero;fill:rgb(14.901961%,19.607843%,21.960784%);fill-opacity:1;" d="M 196.769531 450.734375 C 195.84375 450.734375 195.097656 449.988281 195.097656 449.066406 C 195.097656 439.5 202.695312 432.089844 209.238281 432.089844 C 214.269531 432.089844 219.671875 436.457031 222.074219 442.5 C 222.238281 442.90625 222.234375 443.359375 222.0625 443.765625 C 221.890625 444.167969 221.566406 444.488281 221.15625 444.648438 C 220.304688 444.964844 219.355469 444.550781 219.007812 443.710938 C 217.152344 439.136719 212.851562 435.382812 209.238281 435.382812 C 204.363281 435.382812 198.414062 441.699219 198.414062 449.113281 C 198.390625 450.007812 197.664062 450.722656 196.769531 450.734375 Z M 196.769531 450.734375 "/>
<path style=" stroke:none;fill-rule:nonzero;fill:rgb(14.901961%,19.607843%,21.960784%);fill-opacity:1;" d="M 209.398438 457.140625 C 206.570312 457.296875 203.890625 455.878906 202.433594 453.453125 C 200.972656 451.027344 200.972656 447.996094 202.433594 445.570312 C 203.890625 443.144531 206.570312 441.726562 209.398438 441.882812 C 210.308594 441.882812 211.046875 442.617188 211.046875 443.527344 C 211.046875 444.4375 210.308594 445.175781 209.398438 445.175781 C 207.636719 445.167969 206.046875 446.21875 205.363281 447.84375 C 204.683594 449.46875 205.050781 451.339844 206.292969 452.589844 C 207.535156 453.835938 209.40625 454.214844 211.03125 453.542969 C 212.660156 452.871094 213.722656 451.285156 213.722656 449.523438 C 213.734375 448.316406 213.238281 447.160156 212.347656 446.34375 C 211.757812 445.695312 211.757812 444.703125 212.347656 444.054688 C 212.988281 443.4375 214 443.4375 214.636719 444.054688 C 216.953125 446.183594 217.71875 449.519531 216.570312 452.445312 C 215.417969 455.375 212.589844 457.292969 209.445312 457.28125 Z M 209.398438 457.140625 "/>
<path style=" stroke:none;fill-rule:nonzero;fill:rgb(14.901961%,19.607843%,21.960784%);fill-opacity:1;" d="M 246.460938 404.882812 L 324.847656 361.339844 L 325.957031 363.34375 L 247.570312 406.882812 Z M 246.460938 404.882812 "/>
<path style=" stroke:none;fill-rule:nonzero;fill:rgb(14.901961%,19.607843%,21.960784%);fill-opacity:1;" d="M 509.972656 272.933594 L 431.8125 229.601562 L 259.597656 229.601562 L 259.597656 227.3125 L 432.410156 227.3125 L 511.070312 270.945312 Z M 509.972656 272.933594 "/>
<path style=" stroke:none;fill-rule:nonzero;fill:rgb(14.901961%,19.607843%,21.960784%);fill-opacity:1;" d="M 251.542969 253.257812 L 158.488281 253.257812 L 166.65625 219.28125 L 243.351562 219.28125 Z M 251.542969 253.257812 "/>
<use xlink:href="#surface11" mask="url(#mask2)"/>
<path style=" stroke:none;fill-rule:nonzero;fill:rgb(14.901961%,19.607843%,21.960784%);fill-opacity:1;" d="M 205.003906 153.640625 C 190.769531 153.652344 179.230469 165.1875 179.21875 179.425781 C 179.21875 193.679688 205.003906 231.226562 205.003906 231.226562 C 205.003906 231.226562 230.8125 193.679688 230.8125 179.425781 C 230.800781 165.179688 219.25 153.640625 205.003906 153.640625 Z M 205.003906 192.191406 C 198.507812 192.191406 193.242188 186.921875 193.246094 180.425781 C 193.25 173.925781 198.523438 168.664062 205.019531 168.671875 C 211.519531 168.679688 216.777344 173.957031 216.765625 180.453125 C 216.765625 183.570312 215.523438 186.558594 213.320312 188.761719 C 211.113281 190.964844 208.121094 192.199219 205.003906 192.191406 Z M 205.003906 192.191406 "/>
<path style=" stroke:none;fill-rule:nonzero;fill:rgb(100%,100%,100%);fill-opacity:1;" d="M 161.625 240.195312 L 174.207031 240.171875 L 231.042969 230.402344 L 246.050781 230.402344 L 245.503906 228.113281 L 230.835938 228.136719 L 174.003906 237.90625 L 162.171875 237.90625 Z M 161.625 240.195312 "/>
<path style=" stroke:none;fill-rule:nonzero;fill:rgb(14.901961%,19.607843%,21.960784%);fill-opacity:1;" d="M 866.304688 164.1875 L 966.40625 164.1875 L 966.40625 264.285156 L 866.304688 264.285156 Z M 866.304688 164.1875 "/>
<use xlink:href="#surface14" mask="url(#mask3)"/>
<path style=" stroke:none;fill-rule:nonzero;fill:rgb(96.078431%,96.078431%,96.078431%);fill-opacity:1;" d="M 875.550781 173.429688 L 957.140625 173.429688 L 957.140625 255.019531 L 875.550781 255.019531 Z M 875.550781 173.429688 "/>
<path style=" stroke:none;fill-rule:nonzero;fill:rgb(14.901961%,19.607843%,21.960784%);fill-opacity:1;" d="M 933.023438 205.761719 C 933.21875 212.375 930.429688 218.726562 925.425781 223.058594 C 920.601562 227.019531 913.644531 227.019531 908.816406 223.058594 C 903.8125 218.726562 901.023438 212.375 901.21875 205.761719 C 901.21875 194.570312 903.234375 185.488281 917.121094 185.488281 C 931.011719 185.488281 933.023438 194.480469 933.023438 205.761719 Z M 933.023438 205.761719 "/>
<path style=" stroke:none;fill-rule:nonzero;fill:rgb(14.901961%,19.607843%,21.960784%);fill-opacity:1;" d="M 948.332031 249.390625 L 948.332031 255.113281 L 885.914062 255.113281 L 885.914062 249.390625 C 885.914062 238.523438 892.226562 231.226562 903.484375 229.828125 L 905.613281 229.691406 C 907.382812 229.691406 908.816406 228.257812 908.816406 226.488281 L 908.816406 223.058594 C 913.644531 227.019531 920.601562 227.019531 925.425781 223.058594 L 925.425781 226.511719 C 925.425781 228.28125 926.863281 229.714844 928.628906 229.714844 L 930.757812 229.851562 C 942.015625 231.089844 948.332031 238.457031 948.332031 249.390625 Z M 948.332031 249.390625 "/>
<path style=" stroke:none;fill-rule:nonzero;fill:rgb(14.901961%,19.607843%,21.960784%);fill-opacity:1;" d="M 614.96875 222.757812 L 613.847656 220.746094 L 692.53125 177.113281 L 845.09375 177.113281 L 845.09375 179.402344 L 693.125 179.402344 Z M 614.96875 222.757812 "/>
<path style=" stroke:none;fill-rule:nonzero;fill:rgb(14.901961%,19.607843%,21.960784%);fill-opacity:1;" d="M 947.851562 429 L 959.425781 429 C 949.566406 439.273438 935.355469 449.410156 921.859375 459.660156 L 912.707031 466.386719 L 912.5 466.523438 L 903.578125 459.0625 C 892.136719 449.203125 880.171875 438.90625 871.683594 428.679688 L 888.863281 428.679688 L 896.394531 402.847656 L 907.625 452.359375 L 918.082031 427.007812 L 924.605469 441.148438 L 932.269531 416.414062 L 940.824219 440.578125 Z M 947.851562 429 "/>
<use xlink:href="#surface17" mask="url(#mask4)"/>
<path style=" stroke:none;fill-rule:nonzero;fill:rgb(14.901961%,19.607843%,21.960784%);fill-opacity:1;" d="M 961.875 424.058594 L 946.339844 424.058594 L 941.464844 432.089844 L 932.109375 405.664062 L 924.101562 431.472656 L 917.921875 418.0625 L 908.335938 441.285156 L 896.667969 389.964844 L 886.851562 423.738281 L 869.441406 423.738281 C 858.800781 410.007812 855.230469 396.464844 868.980469 384.453125 C 886.1875 369.398438 906.117188 383.421875 916.207031 392.527344 C 926.847656 384.085938 950.207031 366.8125 968.121094 389.28125 C 977.203125 400.558594 971.78125 412.847656 961.875 424.058594 Z M 961.875 424.058594 "/>
<path style=" stroke:none;fill-rule:nonzero;fill:rgb(14.901961%,19.607843%,21.960784%);fill-opacity:1;" d="M 845.09375 428.839844 L 765.566406 428.839844 L 765.3125 428.679688 L 628.832031 352.992188 L 629.933594 350.980469 L 766.160156 426.550781 L 845.09375 426.550781 Z M 845.09375 428.839844 "/>
<path style=" stroke:none;fill-rule:nonzero;fill:rgb(14.901961%,19.607843%,21.960784%);fill-opacity:1;" d="M 947.804688 665.257812 C 947.804688 676.355469 940.160156 686.078125 924.464844 689.03125 C 921.023438 689.660156 917.53125 689.964844 914.03125 689.945312 C 911.992188 689.949219 909.953125 689.851562 907.925781 689.648438 C 897.445312 688.6875 887.539062 685.300781 881.636719 680.726562 L 887.882812 666.859375 C 893.855469 671.003906 900.722656 673.683594 907.925781 674.683594 C 909.984375 675.003906 912.0625 675.164062 914.148438 675.164062 C 917.667969 675.308594 921.179688 674.734375 924.464844 673.472656 C 927.453125 672.511719 929.480469 669.746094 929.5 666.609375 C 929.5 663.566406 927.554688 661.574219 924.464844 660.066406 C 920.371094 658.050781 914.214844 656.929688 907.925781 655.375 C 895.867188 652.398438 883.238281 647.824219 883.238281 632.378906 C 883.238281 620.757812 891.289062 610.828125 907.925781 608.265625 C 910.855469 607.808594 913.8125 607.589844 916.777344 607.601562 C 919.347656 607.601562 921.917969 607.761719 924.464844 608.082031 C 931.507812 608.796875 938.308594 611.039062 944.394531 614.648438 L 938.71875 628.628906 C 934.292969 626.058594 929.480469 624.21875 924.464844 623.183594 C 921.898438 622.648438 919.285156 622.382812 916.664062 622.382812 C 913.703125 622.304688 910.75 622.722656 907.925781 623.617188 C 903.347656 625.195312 901.539062 628.191406 901.539062 631.464844 C 901.539062 634.738281 904.058594 636.957031 907.925781 638.488281 C 913.355469 640.234375 918.878906 641.6875 924.464844 642.835938 C 936.089844 645.8125 947.804688 650.570312 947.804688 665.257812 Z M 947.804688 665.257812 "/>
<path style=" stroke:none;fill-rule:nonzero;fill:rgb(14.901961%,19.607843%,21.960784%);fill-opacity:1;" d="M 924.464844 598.65625 L 924.464844 608.105469 C 921.917969 607.785156 919.347656 607.625 916.777344 607.625 C 913.8125 607.613281 910.855469 607.832031 907.925781 608.289062 L 907.925781 598.65625 Z M 924.464844 598.65625 "/>
<path style=" stroke:none;fill-rule:nonzero;fill:rgb(14.901961%,19.607843%,21.960784%);fill-opacity:1;" d="M 924.464844 689.03125 L 924.464844 697.976562 L 907.925781 697.976562 L 907.925781 689.648438 C 909.953125 689.851562 911.992188 689.949219 914.03125 689.945312 C 917.53125 689.964844 921.023438 689.660156 924.464844 689.03125 Z M 924.464844 689.03125 "/>
<use xlink:href="#surface20" mask="url(#mask5)"/>
<use xlink:href="#surface23" mask="url(#mask6)"/>
<path style=" stroke:none;fill-rule:nonzero;fill:rgb(14.901961%,19.607843%,21.960784%);fill-opacity:1;" d="M 914.308594 590.097656 L 725.066406 482.609375 L 642.949219 482.609375 L 642.949219 480.320312 L 725.683594 480.320312 L 725.9375 480.457031 L 915.453125 588.109375 Z M 914.308594 590.097656 "/>
<path style=" stroke:none;fill-rule:nonzero;fill:rgb(100%,76.078431%,73.72549%);fill-opacity:1;" d="M 580.007812 885.339844 L 598.472656 888.863281 L 608.972656 834.664062 L 585.15625 831.824219 Z M 580.007812 885.339844 "/>
<path style=" stroke:none;fill-rule:nonzero;fill:rgb(14.901961%,19.607843%,21.960784%);fill-opacity:1;" d="M 602.316406 885.457031 L 577.8125 877.835938 C 576.855469 877.539062 575.820312 877.972656 575.363281 878.867188 L 564.402344 897.878906 C 563.53125 899.441406 563.960938 901.40625 565.410156 902.457031 C 565.667969 902.636719 565.953125 902.777344 566.257812 902.867188 C 574.882812 905.613281 578.976562 906.78125 589.730469 910.167969 C 596.390625 912.226562 615.039062 921.605469 624.578125 921.605469 C 634.121094 921.605469 636.019531 911.652344 632.058594 910.714844 C 614.808594 906.484375 609.019531 894.539062 605.3125 887.835938 C 604.644531 886.695312 603.578125 885.847656 602.316406 885.457031 Z M 602.316406 885.457031 "/>
<use xlink:href="#surface26" mask="url(#mask7)"/>
<path style=" stroke:none;fill-rule:nonzero;fill:rgb(14.901961%,19.607843%,21.960784%);fill-opacity:1;" d="M 593.554688 414.5625 C 602.910156 416.117188 610.140625 412.59375 615.175781 420.761719 C 616.84375 423.484375 619.085938 435.726562 620.003906 438.953125 C 631.441406 479.128906 655.238281 613.574219 648.441406 688.503906 C 642.378906 755.269531 614.945312 847.773438 614.945312 847.773438 L 577.972656 851.273438 C 577.972656 851.273438 591.972656 709.578125 593.507812 654.367188 C 596.136719 559.875 556.210938 408.339844 556.210938 408.339844 Z M 593.554688 414.5625 "/>
<path style=" stroke:none;fill-rule:nonzero;fill:rgb(14.901961%,19.607843%,21.960784%);fill-opacity:1;" d="M 620.894531 854.84375 L 574.652344 852.714844 L 576.117188 834.066406 L 622.246094 838.117188 Z M 620.894531 854.84375 "/>
<use xlink:href="#surface29" mask="url(#mask8)"/>
<path style=" stroke:none;fill-rule:nonzero;fill:rgb(100%,76.078431%,73.72549%);fill-opacity:1;" d="M 507.980469 875.457031 L 529.078125 879.484375 L 538.9375 826.378906 L 515.988281 822.789062 Z M 507.980469 875.457031 "/>
<path style=" stroke:none;fill-rule:nonzero;fill:rgb(14.901961%,19.607843%,21.960784%);fill-opacity:1;" d="M 529.421875 877.449219 L 508.074219 865.414062 C 507.292969 864.945312 506.28125 865.179688 505.785156 865.9375 L 492.742188 884.472656 C 491.667969 886.140625 492.058594 888.351562 493.636719 889.550781 L 494.003906 889.78125 C 501.484375 893.851562 505.328125 895.410156 514.59375 900.738281 C 520.40625 904.101562 534.910156 914.148438 542.898438 918.632812 C 550.882812 923.117188 557.242188 913.070312 554.335938 910.488281 C 541.089844 898.613281 534.75 887.835938 531.984375 880.515625 C 531.503906 879.230469 530.597656 878.148438 529.421875 877.449219 Z M 529.421875 877.449219 "/>
<use xlink:href="#surface32" mask="url(#mask9)"/>
<path style=" stroke:none;fill-rule:nonzero;fill:rgb(14.901961%,19.607843%,21.960784%);fill-opacity:1;" d="M 578.269531 406.578125 C 578.269531 406.578125 604.605469 499.539062 582.84375 652.078125 C 574.984375 718.042969 559.839844 782.929688 537.679688 845.554688 L 510.519531 832.832031 C 510.519531 832.832031 517.730469 711.867188 523.378906 662.855469 C 534.980469 562.480469 517.589844 479.816406 515.257812 436.710938 C 514.390625 424.027344 523.46875 412.832031 536.054688 411.0625 Z M 578.269531 406.578125 "/>
<path style=" stroke:none;fill-rule:nonzero;fill:rgb(14.901961%,19.607843%,21.960784%);fill-opacity:1;" d="M 543.011719 849.375 L 504.046875 841.664062 L 504.894531 825.785156 L 548.457031 834.066406 Z M 543.011719 849.375 "/>
<path style=" stroke:none;fill-rule:nonzero;fill:rgb(14.901961%,19.607843%,21.960784%);fill-opacity:1;" d="M 538.59375 887.058594 C 539.222656 886.75 539.730469 886.242188 540.035156 885.617188 C 540.378906 885.082031 540.429688 884.410156 540.175781 883.832031 C 538.9375 881.269531 531.25 880.398438 530.382812 880.285156 C 530.21875 880.257812 530.058594 880.332031 529.96875 880.46875 C 529.867188 880.621094 529.867188 880.820312 529.96875 880.972656 C 531.707031 883.257812 535.117188 887.332031 537.792969 887.148438 C 538.066406 887.167969 538.335938 887.136719 538.59375 887.058594 Z M 531.363281 881.40625 C 533.996094 881.773438 538.6875 882.757812 539.441406 884.335938 C 539.589844 884.613281 539.589844 884.949219 539.441406 885.226562 C 539.152344 885.878906 538.546875 886.335938 537.839844 886.441406 C 536.261719 886.441406 533.925781 884.585938 531.410156 881.316406 Z M 531.363281 881.40625 "/>
<path style=" stroke:none;fill-rule:nonzero;fill:rgb(14.901961%,19.607843%,21.960784%);fill-opacity:1;" d="M 537.0625 880.078125 C 538.121094 879.71875 539.023438 879.007812 539.625 878.066406 C 540.027344 877.292969 539.847656 876.347656 539.191406 875.777344 C 538.671875 875.207031 537.925781 874.894531 537.152344 874.929688 C 534.066406 875.089844 530.175781 880.171875 530.015625 880.375 C 529.949219 880.515625 529.949219 880.675781 530.015625 880.8125 C 530.046875 880.972656 530.175781 881.097656 530.335938 881.132812 C 532.628906 881.308594 534.933594 880.949219 537.0625 880.078125 Z M 536.054688 876.210938 C 536.417969 876.046875 536.804688 875.945312 537.199219 875.914062 C 537.730469 875.875 538.246094 876.089844 538.59375 876.488281 C 538.921875 876.78125 539.03125 877.246094 538.871094 877.652344 C 538.09375 879.234375 533.699219 880.421875 531.203125 880.375 C 532.539062 878.714844 534.1875 877.328125 536.054688 876.304688 Z M 536.054688 876.210938 "/>
<path style=" stroke:none;fill-rule:nonzero;fill:rgb(14.901961%,19.607843%,21.960784%);fill-opacity:1;" d="M 612.039062 893.257812 C 613.679688 893.914062 615.496094 893.996094 617.1875 893.488281 C 618.113281 893.148438 618.8125 892.378906 619.0625 891.425781 C 619.289062 890.925781 619.230469 890.339844 618.902344 889.894531 C 617.121094 887.605469 607.050781 889.230469 605.886719 889.414062 C 605.699219 889.445312 605.558594 889.59375 605.542969 889.78125 C 605.503906 889.96875 605.585938 890.160156 605.746094 890.261719 C 607.734375 891.472656 609.84375 892.480469 612.039062 893.257812 Z M 617.1875 889.894531 C 617.535156 889.96875 617.855469 890.144531 618.101562 890.398438 C 618.21875 890.605469 618.21875 890.855469 618.101562 891.0625 C 617.910156 891.765625 617.390625 892.335938 616.707031 892.59375 C 614.257812 893.578125 609.570312 891.382812 607.097656 890.054688 C 610.414062 889.496094 613.800781 889.496094 617.121094 890.054688 Z M 617.1875 889.894531 "/>
<path style=" stroke:none;fill-rule:nonzero;fill:rgb(14.901961%,19.607843%,21.960784%);fill-opacity:1;" d="M 605.679688 890.304688 L 605.863281 890.304688 C 608.835938 889.941406 615.746094 886.898438 616.113281 884.425781 C 616.113281 883.898438 615.976562 883.144531 614.832031 882.640625 C 610.253906 880.46875 605.679688 889.230469 605.335938 889.644531 C 605.269531 889.789062 605.269531 889.957031 605.335938 890.101562 C 605.425781 890.207031 605.546875 890.277344 605.679688 890.304688 Z M 614.191406 883.441406 L 614.535156 883.578125 C 615.335938 883.945312 615.289062 884.289062 615.242188 884.402344 C 615.039062 885.980469 609.980469 888.660156 606.640625 889.367188 C 607.832031 887.378906 611.101562 882.503906 614.191406 883.441406 Z M 614.191406 883.441406 "/>
<path style=" stroke:none;fill-rule:nonzero;fill:rgb(100%,76.078431%,73.72549%);fill-opacity:1;" d="M 766.9375 325.332031 C 766.9375 325.332031 768.675781 312.539062 770.230469 313 C 771.789062 313.457031 783.847656 311.121094 789.269531 310.09375 C 790.921875 309.796875 792.625 309.929688 794.210938 310.480469 L 806.472656 314.738281 C 808.054688 315.269531 808.925781 316.960938 808.441406 318.558594 L 806.152344 325.878906 C 805.832031 327.085938 804.824219 327.984375 803.589844 328.167969 L 789.40625 330.066406 C 788.230469 330.222656 787.035156 330.164062 785.882812 329.882812 Z M 766.9375 325.332031 "/>
<path style=" stroke:none;fill-rule:nonzero;fill:rgb(14.901961%,19.607843%,21.960784%);fill-opacity:1;" d="M 761.21875 312.539062 L 778.125 306.25 C 778.125 306.25 786.820312 313.5 783.9375 321.167969 C 781.054688 328.832031 776.960938 329.609375 776.960938 329.609375 C 776.960938 329.609375 770.09375 335.285156 760.441406 329.609375 C 750.785156 323.933594 761.21875 312.539062 761.21875 312.539062 Z M 761.21875 312.539062 "/>
<path style=" stroke:none;fill-rule:nonzero;fill:rgb(14.901961%,19.607843%,21.960784%);fill-opacity:1;" d="M 611.195312 280.898438 C 627.734375 286.183594 670.039062 300.300781 689.992188 308.011719 C 699.144531 311.578125 736.597656 309.292969 752.820312 310.296875 C 756.996094 311.003906 761.054688 312.257812 764.902344 314.027344 L 762.613281 326.382812 C 762.613281 326.382812 760.324219 332.011719 755.222656 333.019531 C 736.1875 336.792969 688.984375 340.546875 678.847656 338.007812 C 649.402344 330.640625 600.257812 317.414062 596.597656 309.910156 C 591.035156 298.8125 598.472656 276.847656 611.195312 280.898438 Z M 611.195312 280.898438 "/>
<use xlink:href="#surface35" mask="url(#mask10)"/>
<path style=" stroke:none;fill-rule:nonzero;fill:rgb(100%,76.078431%,73.72549%);fill-opacity:1;" d="M 351.253906 349.445312 C 351.253906 349.445312 349.515625 336.65625 347.960938 337.113281 C 346.402344 337.570312 334.230469 335.238281 328.921875 334.207031 C 327.269531 333.902344 325.566406 334.035156 323.980469 334.597656 L 311.71875 338.851562 C 310.136719 339.386719 309.265625 341.078125 309.75 342.671875 L 312.039062 349.996094 C 312.386719 351.160156 313.390625 352.011719 314.601562 352.167969 L 328.808594 354.089844 C 329.976562 354.246094 331.164062 354.1875 332.308594 353.90625 Z M 351.253906 349.445312 "/>
<path style=" stroke:none;fill-rule:nonzero;fill:rgb(14.901961%,19.607843%,21.960784%);fill-opacity:1;" d="M 363.90625 332.652344 L 343.65625 332.652344 C 343.65625 332.652344 336.335938 338.167969 340.15625 345.488281 C 342.035156 349.519531 345.277344 352.761719 349.308594 354.640625 L 364.433594 350.796875 C 374.429688 340.683594 363.90625 332.652344 363.90625 332.652344 Z M 363.90625 332.652344 "/>
<path style=" stroke:none;fill-rule:nonzero;fill:rgb(14.901961%,19.607843%,21.960784%);fill-opacity:1;" d="M 524.457031 309.613281 C 523.304688 311.648438 521.628906 313.339844 519.605469 314.507812 C 516.789062 316.453125 513.863281 318.234375 510.839844 319.839844 C 494.183594 328.992188 465.996094 340.570312 446.617188 348.257812 C 436.917969 352.101562 389.625 354.570312 370.265625 353.335938 C 365.117188 353.015625 362.074219 347.730469 362.074219 347.730469 L 358.117188 335.808594 C 361.679688 333.550781 365.527344 331.773438 369.558594 330.523438 C 385.574219 327.367188 422.867188 324.734375 431.515625 320 C 450.300781 309.726562 490.386719 290.253906 506.082031 282.773438 C 518.1875 277.101562 528.527344 297.875 524.457031 309.613281 Z M 524.457031 309.613281 "/>
<path style=" stroke:none;fill-rule:nonzero;fill:rgb(14.901961%,19.607843%,21.960784%);fill-opacity:1;" d="M 622.335938 422.9375 C 622.386719 425.203125 621.765625 427.429688 620.550781 429.34375 L 619.613281 430.738281 L 618.902344 431.859375 L 618.789062 431.859375 L 513.039062 432.546875 C 512.820312 432.414062 512.613281 432.257812 512.421875 432.089844 C 504.960938 426.347656 505.554688 415.957031 509.332031 407.355469 C 512.582031 400.078125 513.519531 386.167969 513.359375 369.878906 C 513.199219 353.585938 511.894531 334.804688 510.703125 317.78125 C 509.605469 302.128906 509.878906 281.652344 509.878906 281.652344 L 509.878906 281.492188 C 522.074219 279.085938 534.421875 277.558594 546.832031 276.917969 C 560.042969 276.109375 573.292969 276.238281 586.484375 277.304688 C 598.839844 278.769531 599.019531 278.152344 611.148438 280.851562 C 611.582031 281.8125 618.011719 291.445312 619.957031 310.023438 C 620.324219 313.648438 620.507812 317.292969 620.503906 320.9375 C 620.503906 322.425781 620.503906 323.957031 620.503906 325.515625 C 620.183594 333.84375 620.046875 354.386719 619.0625 397.746094 C 618.609375 402.335938 618.878906 406.96875 619.863281 411.472656 C 621.214844 415.160156 622.046875 419.019531 622.335938 422.9375 Z M 622.335938 422.9375 "/>
<use xlink:href="#surface38" mask="url(#mask11)"/>
<use xlink:href="#surface41" mask="url(#mask12)"/>
<path style=" stroke:none;fill-rule:nonzero;fill:rgb(14.901961%,19.607843%,21.960784%);fill-opacity:1;" d="M 586.550781 277.441406 L 574.769531 300.003906 L 555.136719 283.828125 C 559.933594 287.796875 566.269531 289.386719 572.371094 288.144531 C 578.472656 286.90625 583.6875 282.972656 586.550781 277.441406 Z M 586.550781 277.441406 "/>
<path style=" stroke:none;fill-rule:nonzero;fill:rgb(100%,76.078431%,73.72549%);fill-opacity:1;" d="M 586.550781 277.441406 C 583.6875 282.972656 578.472656 286.90625 572.371094 288.144531 C 566.269531 289.386719 559.933594 287.796875 555.136719 283.828125 L 546.902344 276.960938 C 555.914062 268.519531 553.648438 245.136719 551.269531 232.324219 L 575.453125 245.523438 C 576.804688 259.757812 572.433594 273.875 586.550781 277.441406 Z M 586.550781 277.441406 "/>
<use xlink:href="#surface44" mask="url(#mask13)"/>
<path style=" stroke:none;fill-rule:nonzero;fill:rgb(100%,76.078431%,73.72549%);fill-opacity:1;" d="M 540.699219 224.910156 C 549.371094 244.449219 552.597656 252.894531 566.507812 259.367188 C 587.421875 269.136719 609.476562 254.242188 606.847656 232.550781 C 604.558594 212.988281 590.714844 184.367188 568.203125 183.679688 C 552.113281 183.152344 538.640625 195.757812 538.09375 211.847656 C 537.929688 216.34375 538.824219 220.820312 540.699219 224.910156 Z M 540.699219 224.910156 "/>
<path style=" stroke:none;fill-rule:nonzero;fill:rgb(14.901961%,19.607843%,21.960784%);fill-opacity:1;" d="M 538.710938 244.542969 C 573.992188 240.699219 549.507812 202.832031 579.414062 186.539062 C 571.632812 172.8125 549.667969 171.140625 525.621094 189.46875 C 505.167969 205.050781 538.710938 244.542969 538.710938 244.542969 Z M 538.710938 244.542969 "/>
<path style=" stroke:none;fill-rule:nonzero;fill:rgb(14.901961%,19.607843%,21.960784%);fill-opacity:1;" d="M 554.886719 181.597656 C 554.886719 181.597656 593.324219 193.039062 599.089844 207.863281 C 599.089844 207.863281 600.578125 176.90625 586.917969 176.105469 C 573.257812 175.304688 548.226562 172.539062 554.886719 181.597656 Z M 554.886719 181.597656 "/>
<path style=" stroke:none;fill-rule:nonzero;fill:rgb(100%,76.078431%,73.72549%);fill-opacity:1;" d="M 540.632812 246.714844 C 543.820312 249.375 547.933594 250.664062 552.070312 250.308594 C 557.492188 249.78125 558.273438 244.449219 555.113281 240.332031 C 552.300781 236.601562 545.960938 232.507812 541.386719 234.953125 C 538.019531 236.882812 536.851562 241.175781 538.777344 244.542969 C 539.246094 245.382812 539.875 246.121094 540.632812 246.714844 Z M 540.632812 246.714844 "/>
<path style=" stroke:none;fill-rule:nonzero;fill:rgb(14.901961%,19.607843%,21.960784%);fill-opacity:1;" d="M 573.074219 219.234375 C 573.671875 220.835938 575.042969 221.820312 576.09375 221.523438 C 577.148438 221.226562 577.535156 219.488281 576.917969 217.863281 C 576.300781 216.238281 574.972656 215.277344 573.921875 215.574219 C 572.871094 215.871094 572.480469 217.613281 573.074219 219.234375 Z M 573.074219 219.234375 "/>
<path style=" stroke:none;fill-rule:nonzero;fill:rgb(14.901961%,19.607843%,21.960784%);fill-opacity:1;" d="M 591.449219 212.394531 C 592.066406 214.019531 593.394531 214.980469 594.492188 214.683594 C 595.589844 214.386719 595.933594 212.667969 595.292969 211.023438 C 594.652344 209.375 593.371094 208.4375 592.292969 208.734375 C 591.21875 209.03125 590.761719 210.746094 591.449219 212.394531 Z M 591.449219 212.394531 "/>
<path style=" stroke:none;fill-rule:nonzero;fill:rgb(92.54902%,51.372549%,49.411765%);fill-opacity:1;" d="M 587.628906 216.992188 C 590.460938 220.171875 593.714844 222.941406 597.304688 225.230469 C 596.066406 227.046875 594.09375 228.226562 591.90625 228.457031 Z M 587.628906 216.992188 "/>
<path style=" stroke:none;fill-rule:nonzero;fill:rgb(14.901961%,19.607843%,21.960784%);fill-opacity:1;" d="M 596.617188 235.9375 C 596.71875 235.882812 596.792969 235.785156 596.820312 235.671875 C 596.84375 235.558594 596.824219 235.4375 596.757812 235.34375 C 596.585938 235.195312 596.332031 235.195312 596.160156 235.34375 C 592.738281 237.761719 588.542969 238.835938 584.378906 238.363281 C 584.1875 238.25 583.9375 238.300781 583.804688 238.476562 C 583.65625 238.628906 583.65625 238.875 583.804688 239.027344 C 588.316406 239.695312 592.910156 238.589844 596.617188 235.9375 Z M 596.617188 235.9375 "/>
<path style=" stroke:none;fill-rule:nonzero;fill:rgb(14.901961%,19.607843%,21.960784%);fill-opacity:1;" d="M 566.53125 207.429688 C 566.769531 207.507812 567.03125 207.457031 567.21875 207.292969 C 568.917969 205.761719 571.253906 205.148438 573.488281 205.644531 C 573.882812 205.730469 574.277344 205.515625 574.425781 205.140625 C 574.511719 204.972656 574.519531 204.777344 574.457031 204.597656 C 574.390625 204.421875 574.253906 204.277344 574.082031 204.203125 C 571.394531 203.570312 568.570312 204.289062 566.507812 206.125 C 566.175781 206.363281 566.066406 206.8125 566.257812 207.179688 C 566.316406 207.289062 566.414062 207.378906 566.53125 207.429688 Z M 566.53125 207.429688 "/>
<path style=" stroke:none;fill-rule:nonzero;fill:rgb(14.901961%,19.607843%,21.960784%);fill-opacity:1;" d="M 594.878906 199.285156 C 595.152344 199.171875 595.339844 198.914062 595.359375 198.621094 C 595.386719 198.398438 595.320312 198.175781 595.175781 198.003906 C 595.035156 197.832031 594.828125 197.722656 594.605469 197.707031 C 591.40625 197.34375 588.234375 198.574219 586.117188 201 C 585.808594 201.320312 585.808594 201.824219 586.117188 202.144531 C 586.289062 202.28125 586.507812 202.347656 586.730469 202.320312 C 586.949219 202.296875 587.148438 202.183594 587.285156 202.007812 C 589.070312 200.042969 591.691406 199.054688 594.332031 199.351562 C 594.515625 199.402344 594.710938 199.375 594.878906 199.285156 Z M 594.878906 199.285156 "/>
<path style=" stroke:none;fill-rule:nonzero;fill:rgb(14.901961%,19.607843%,21.960784%);fill-opacity:1;" d="M 620.574219 439.777344 C 619.75 439.226562 542.78125 442.84375 520.222656 443.253906 C 512.375 443.988281 511.734375 433.53125 513.519531 432.363281 L 617.738281 431.8125 L 617.851562 431.8125 L 618.605469 430.691406 C 619.730469 432.457031 620.695312 434.316406 621.488281 436.253906 C 621.894531 437.503906 621.539062 438.878906 620.574219 439.777344 Z M 620.574219 439.777344 "/>
<use xlink:href="#surface47" mask="url(#mask14)"/>
<path style=" stroke:none;fill-rule:nonzero;fill:rgb(14.901961%,19.607843%,21.960784%);fill-opacity:1;" d="M 663.519531 763.757812 L 663.382812 763.757812 C 663.078125 763.722656 662.804688 763.566406 662.617188 763.324219 C 662.433594 763.085938 662.351562 762.777344 662.398438 762.476562 L 664.6875 743.621094 C 664.714844 743.316406 664.867188 743.035156 665.109375 742.84375 C 665.351562 742.652344 665.664062 742.570312 665.96875 742.617188 C 666.59375 742.699219 667.03125 743.273438 666.953125 743.898438 L 664.664062 762.75 C 664.59375 763.328125 664.101562 763.761719 663.519531 763.757812 Z M 663.519531 763.757812 "/>
<path style=" stroke:none;fill-rule:nonzero;fill:rgb(14.901961%,19.607843%,21.960784%);fill-opacity:1;" d="M 668.097656 726.027344 L 667.957031 726.027344 C 667.65625 725.992188 667.375 725.839844 667.1875 725.597656 C 667 725.355469 666.914062 725.050781 666.953125 724.746094 L 668.554688 711.75 C 672.46875 679.816406 673.792969 647.621094 672.511719 615.472656 C 672.492188 615.171875 672.597656 614.875 672.800781 614.652344 C 673 614.425781 673.285156 614.292969 673.585938 614.28125 C 673.890625 614.269531 674.1875 614.378906 674.410156 614.585938 C 674.632812 614.789062 674.765625 615.078125 674.777344 615.378906 C 676.078125 647.640625 674.757812 679.957031 670.820312 712.003906 L 669.238281 725 C 669.171875 725.582031 668.683594 726.019531 668.097656 726.027344 Z M 668.097656 726.027344 "/>
<path style=" stroke:none;fill-rule:nonzero;fill:rgb(14.901961%,19.607843%,21.960784%);fill-opacity:1;" d="M 502.101562 677.40625 L 499.8125 677.085938 C 499.8125 676.722656 504.777344 641.738281 505.578125 614.558594 C 506.425781 585.609375 504.921875 556.636719 501.070312 527.933594 L 503.359375 527.636719 C 507.230469 556.445312 508.757812 585.523438 507.9375 614.578125 C 507.089844 641.921875 502.148438 677.042969 502.101562 677.40625 Z M 502.101562 677.40625 "/>
<path style=" stroke:none;fill-rule:nonzero;fill:rgb(14.901961%,19.607843%,21.960784%);fill-opacity:1;" d="M 501.070312 527.933594 C 499.8125 518.53125 498.304688 509.238281 496.496094 500.316406 L 498.785156 499.882812 C 500.523438 508.851562 502.054688 518.1875 503.359375 527.636719 Z M 501.070312 527.933594 "/>
<path style=" stroke:none;fill-rule:nonzero;fill:rgb(14.901961%,19.607843%,21.960784%);fill-opacity:1;" d="M 494.207031 488.351562 C 492.742188 481.851562 490.914062 474.210938 488.488281 466.613281 L 490.777344 465.90625 C 493.222656 473.59375 495.054688 481.304688 496.519531 487.847656 Z M 494.207031 488.351562 "/>
</g>
</svg>
